<svg width="50" height="50" viewBox="0 0 50 50" fill="none" xmlns="http://www.w3.org/2000/svg">
<path d="M31.4705 0.759338C23.0791 0.759338 15.3447 7.05934 13.7338 14.0015C13.3752 15.5429 12.9721 19.5757 12.9721 19.5757L9.11661 29.3023C9.02132 29.5289 8.98352 29.7756 9.00657 30.0203C9.02963 30.265 9.11282 30.5003 9.24875 30.7051C9.38468 30.9099 9.56914 31.078 9.7857 31.1943C10.0023 31.3106 10.2442 31.3716 10.49 31.3718H10.8994C10.8518 31.2094 10.8475 31.0372 10.8872 30.8726C10.9268 30.708 11.0089 30.5566 11.1252 30.4336C11.6925 29.8426 12.3186 29.3112 12.994 28.8476C13.101 28.7749 13.2212 28.724 13.3479 28.6978C13.4746 28.6716 13.6052 28.6706 13.7323 28.6949C13.8593 28.7192 13.9804 28.7682 14.0885 28.8393C14.1966 28.9103 14.2896 29.0019 14.3623 29.1089C14.435 29.216 14.4859 29.3362 14.5121 29.4629C14.5383 29.5896 14.5393 29.7202 14.515 29.8473C14.4908 29.9743 14.4417 30.0954 14.3707 30.2035C14.2996 30.3116 14.208 30.4046 14.101 30.4773C13.7135 30.7398 13.3377 31.0586 12.9721 31.3992V35.0172H13.8416C14.1029 35.0172 14.3535 35.1209 14.5382 35.3057C14.723 35.4904 14.8268 35.741 14.8268 36.0023C14.8268 36.2636 14.723 36.5142 14.5382 36.6989C14.3535 36.8837 14.1029 36.9875 13.8416 36.9875H12.994C13.2244 40.807 16.3861 43.8359 20.2666 43.8359H23.1596V49.5015H27.49V48.7632C27.4848 48.6306 27.5063 48.4982 27.5535 48.3741C27.6006 48.2499 27.6723 48.1366 27.7643 48.0409C27.8563 47.9451 27.9667 47.8689 28.0889 47.8169C28.211 47.7649 28.3424 47.7381 28.4752 47.7381C28.608 47.7381 28.7394 47.7649 28.8616 47.8169C28.9837 47.8689 29.0941 47.9451 29.1861 48.0409C29.2781 48.1366 29.3498 48.2499 29.3969 48.3741C29.4441 48.4982 29.4656 48.6306 29.4604 48.7632V49.5015H31.2315V48.7648C31.2262 48.6321 31.2477 48.4998 31.2949 48.3756C31.342 48.2515 31.4137 48.1382 31.5057 48.0424C31.5977 47.9467 31.7081 47.8705 31.8303 47.8185C31.9524 47.7664 32.0838 47.7396 32.2166 47.7396C32.3494 47.7396 32.4808 47.7664 32.603 47.8185C32.7251 47.8705 32.8355 47.9467 32.9275 48.0424C33.0195 48.1382 33.0912 48.2515 33.1384 48.3756C33.1855 48.4998 33.2071 48.6321 33.2018 48.7648V49.5015H42.8979V33.8007C47.1994 30.4171 49.965 25.1562 49.965 19.2562C49.9643 9.04137 41.6893 0.759338 31.4705 0.759338ZM17.5307 19.0882C17.8018 19.0882 18.0702 19.1417 18.3207 19.2455C18.5711 19.3494 18.7986 19.5016 18.9902 19.6934C19.1817 19.8853 19.3336 20.113 19.4371 20.3636C19.5405 20.6142 19.5936 20.8828 19.5932 21.1539C19.5932 21.701 19.3759 22.2258 18.9892 22.6128C18.6024 22.9999 18.0778 23.2175 17.5307 23.2179C16.983 23.2179 16.4578 23.0004 16.0706 22.6132C15.6834 22.2259 15.4658 21.7007 15.4658 21.1531C15.4658 20.6055 15.6834 20.0803 16.0706 19.693C16.4578 19.3058 16.983 19.0882 17.5307 19.0882ZM15.2619 28.6843C15.2261 28.56 15.2151 28.4299 15.2296 28.3014C15.2441 28.1728 15.2838 28.0484 15.3464 27.9352C15.4091 27.822 15.4934 27.7223 15.5946 27.6417C15.6957 27.5611 15.8118 27.5013 15.9361 27.4656C16.7268 27.2408 17.5392 27.1015 18.3596 27.05C18.4889 27.0402 18.619 27.0563 18.742 27.0974C18.8651 27.1384 18.9787 27.2036 19.0764 27.289C19.174 27.3745 19.2536 27.4785 19.3105 27.5951C19.3675 27.7117 19.4006 27.8384 19.408 27.9679C19.4168 28.0971 19.4001 28.2267 19.3587 28.3494C19.3174 28.472 19.2522 28.5853 19.167 28.6828C19.0819 28.7802 18.9783 28.8599 18.8622 28.9173C18.7462 28.9747 18.62 29.0086 18.4908 29.0171C17.8111 29.059 17.1379 29.1743 16.483 29.3609C16.2315 29.4323 15.9619 29.4013 15.7332 29.2745C15.5045 29.1477 15.3346 28.9355 15.2619 28.6843ZM19.0502 36.9867H16.7971C16.5358 36.9867 16.2852 36.8829 16.1005 36.6981C15.9157 36.5134 15.8119 36.2628 15.8119 36.0015C15.8119 35.7402 15.9157 35.4897 16.1005 35.3049C16.2852 35.1202 16.5358 35.0164 16.7971 35.0164H19.0502C19.3115 35.0164 19.5621 35.1202 19.7468 35.3049C19.9316 35.4897 20.0354 35.7402 20.0354 36.0015C20.0354 36.2628 19.9316 36.5134 19.7468 36.6981C19.5621 36.8829 19.3115 36.9867 19.0502 36.9867ZM31.9057 23.3992H34.1588C34.4201 23.3992 34.6707 23.503 34.8554 23.6877C35.0402 23.8725 35.144 24.1231 35.144 24.3843C35.144 24.6456 35.0402 24.8962 34.8554 25.0809C34.6707 25.2657 34.4201 25.3695 34.1588 25.3695H31.9057C31.6444 25.3695 31.3938 25.2657 31.2091 25.0809C31.0243 24.8962 30.9205 24.6456 30.9205 24.3843C30.9205 24.1231 31.0243 23.8725 31.2091 23.6877C31.3938 23.503 31.6444 23.3992 31.9057 23.3992ZM26.569 25.9961C27.0205 25.1851 27.7182 24.5179 28.5877 24.0718C28.8183 23.9654 29.0812 23.952 29.3214 24.0346C29.5617 24.1171 29.7608 24.2892 29.8772 24.515C29.9937 24.7407 30.0185 25.0027 29.9465 25.2464C29.8745 25.49 29.7113 25.6964 29.4908 25.8226C28.969 26.0929 28.5541 26.4836 28.2908 26.9554C28.2281 27.0686 28.1436 27.1684 28.0423 27.2489C27.941 27.3294 27.8247 27.3892 27.7003 27.4247C27.5758 27.4603 27.4456 27.4709 27.317 27.4561C27.1885 27.4413 27.0641 27.4012 26.951 27.3382C26.7225 27.2108 26.5539 26.9978 26.4823 26.7462C26.4107 26.4945 26.4418 26.2247 26.569 25.9961ZM20.3947 28.0187C20.4156 27.8909 20.4615 27.7684 20.5297 27.6582C20.598 27.5481 20.6872 27.4525 20.7924 27.3769C20.8976 27.3013 21.0167 27.2472 21.1428 27.2176C21.269 27.1881 21.3997 27.1837 21.5275 27.2046C22.3254 27.3354 23.1102 27.5362 23.8729 27.8047C23.9949 27.8474 24.1074 27.9138 24.2038 28.0001C24.3002 28.0864 24.3786 28.1908 24.4346 28.3074C24.4906 28.424 24.5231 28.5505 24.5302 28.6796C24.5373 28.8088 24.5189 28.9381 24.476 29.0601C24.3896 29.3067 24.2088 29.5088 23.9733 29.6221C23.7379 29.7353 23.4671 29.7504 23.2205 29.664C22.5657 29.4359 21.8927 29.2639 21.2088 29.15C21.081 29.1292 20.9586 29.0834 20.8486 29.0153C20.7385 28.9472 20.643 28.8581 20.5674 28.753C20.4918 28.648 20.4376 28.529 20.408 28.403C20.3784 28.277 20.3739 28.1464 20.3947 28.0187ZM24.965 37.4164C24.8398 37.6457 24.6289 37.8161 24.3784 37.8903C24.1279 37.9645 23.8582 37.9365 23.6283 37.8125C23.0521 37.5007 22.4333 37.2751 21.7916 37.1429C21.6649 37.1166 21.5446 37.0656 21.4376 36.9928C21.3306 36.92 21.239 36.8268 21.1681 36.7186C21.0971 36.6104 21.0481 36.4893 21.0239 36.3622C20.9997 36.2351 21.0008 36.1044 21.0272 35.9777C21.0535 35.851 21.1045 35.7307 21.1773 35.6237C21.2501 35.5167 21.3433 35.4251 21.4515 35.3541C21.5597 35.2832 21.6808 35.2342 21.8079 35.21C21.935 35.1858 22.0657 35.1869 22.1924 35.2132C23.033 35.389 23.8338 35.6804 24.5682 36.0797C25.0471 36.3406 25.2236 36.939 24.9643 37.4156L24.965 37.4164ZM25.369 29.4929C25.5611 29.1914 25.8916 29.0461 26.2252 29.0531C26.3244 28.7398 26.5635 28.475 26.9057 28.3875C27.0311 28.3554 27.1616 28.3485 27.2897 28.3669C27.4179 28.3854 27.5411 28.4289 27.6524 28.495C27.7637 28.5611 27.8609 28.6484 27.9384 28.7521C28.0159 28.8558 28.0722 28.9737 28.1041 29.0992C28.3502 30.0632 28.851 30.8937 28.8557 30.9023C28.9826 31.1077 29.0298 31.3525 28.9881 31.5903C28.9464 31.8282 28.8189 32.0424 28.6297 32.1924C28.4405 32.3424 28.2028 32.4176 27.9617 32.4039C27.7207 32.3902 27.493 32.2884 27.3221 32.1179C26.8088 31.65 26.2563 31.2271 25.6705 30.8539C25.4503 30.7133 25.2949 30.4912 25.2384 30.2362C25.1818 29.9812 25.2288 29.7133 25.369 29.4929ZM26.6416 41.1398C26.368 40.5326 26.0163 39.9638 25.5955 39.4476C25.5133 39.3476 25.4517 39.2324 25.414 39.1086C25.3764 38.9848 25.3636 38.8547 25.3763 38.7259C25.389 38.5971 25.427 38.4721 25.488 38.358C25.5491 38.2438 25.6321 38.1429 25.7322 38.0609C25.8322 37.9786 25.9474 37.9169 26.0712 37.8792C26.1951 37.8415 26.3251 37.8286 26.454 37.8414C26.5828 37.8541 26.7079 37.8921 26.822 37.9532C26.9361 38.0143 27.037 38.0974 27.119 38.1976C27.6479 38.8459 28.0901 39.5602 28.4346 40.3226C28.5036 40.4725 28.5337 40.6373 28.5222 40.8019C28.5108 40.9665 28.458 41.1256 28.3689 41.2644C28.2798 41.4033 28.1572 41.5174 28.0123 41.5964C27.8674 41.6754 27.705 41.7167 27.54 41.7164C27.3508 41.7161 27.1655 41.6616 27.0063 41.5593C26.847 41.4569 26.7205 41.3119 26.6416 41.1398ZM29.4604 45.8062C29.4604 46.0675 29.3566 46.3181 29.1718 46.5028C28.9871 46.6876 28.7365 46.7914 28.4752 46.7914C28.2139 46.7914 27.9633 46.6876 27.7786 46.5028C27.5938 46.3181 27.49 46.0675 27.49 45.8062V45.2554C27.49 44.7281 27.4525 44.2062 27.3807 43.7023C27.3436 43.4435 27.4106 43.1805 27.5669 42.971C27.7233 42.7614 27.9564 42.6224 28.215 42.5843C28.3433 42.5653 28.474 42.5718 28.5997 42.6036C28.7254 42.6353 28.8436 42.6917 28.9473 42.7695C29.0511 42.8472 29.1384 42.9448 29.2042 43.0565C29.27 43.1682 29.313 43.2918 29.3307 43.4203C29.4182 44.0164 29.4604 44.6336 29.4604 45.2554V45.8062ZM30.1432 35.9757C29.8537 35.3449 29.5097 34.7405 29.115 34.1695C28.9756 33.9544 28.9255 33.6934 28.9752 33.4419C29.025 33.1904 29.1708 32.9682 29.3816 32.8223C29.5925 32.6765 29.8518 32.6186 30.1047 32.6608C30.3576 32.703 30.5841 32.842 30.7361 33.0484C31.1947 33.7125 31.5986 34.4203 31.9346 35.1531C32.0438 35.3906 32.0541 35.6618 31.9634 35.907C31.8726 36.1522 31.6881 36.3513 31.4506 36.4605C31.213 36.5697 30.9418 36.5801 30.6966 36.4893C30.4515 36.3985 30.2524 36.2133 30.1432 35.9757ZM31.2268 40.6281C31.2081 39.9345 31.1292 39.2439 30.9908 38.564C30.9651 38.4372 30.9646 38.3066 30.9893 38.1796C31.014 38.0526 31.0635 37.9317 31.135 37.8238C31.2065 37.7159 31.2985 37.6232 31.4058 37.5509C31.5131 37.4785 31.6336 37.4281 31.7604 37.4023C31.8872 37.3766 32.0178 37.376 32.1448 37.4008C32.2718 37.4255 32.3927 37.475 32.5006 37.5465C32.6085 37.6179 32.7012 37.7099 32.7735 37.8172C32.8459 37.9245 32.8963 38.045 32.9221 38.1718C33.0822 38.9601 33.1752 39.7695 33.1971 40.575C33.2008 40.7042 33.179 40.8328 33.133 40.9536C33.0869 41.0744 33.0175 41.1849 32.9287 41.2788C32.8399 41.3727 32.7334 41.4482 32.6153 41.5009C32.4973 41.5536 32.37 41.5825 32.2408 41.5859C32.2307 41.5875 32.2221 41.5875 32.2119 41.5875C31.6815 41.5875 31.2432 41.1625 31.2275 40.6289L31.2268 40.6281ZM33.2018 45.8086C33.2018 46.0698 33.098 46.3204 32.9132 46.5052C32.7285 46.6899 32.4779 46.7937 32.2166 46.7937C31.9553 46.7937 31.7048 46.6899 31.52 46.5052C31.3352 46.3204 31.2315 46.0698 31.2315 45.8086V43.5578C31.2262 43.4251 31.2477 43.2927 31.2949 43.1686C31.342 43.0445 31.4137 42.9311 31.5057 42.8354C31.5977 42.7397 31.7081 42.6635 31.8303 42.6114C31.9524 42.5594 32.0838 42.5326 32.2166 42.5326C32.3494 42.5326 32.4808 42.5594 32.603 42.6114C32.7251 42.6635 32.8355 42.7397 32.9275 42.8354C33.0195 42.9311 33.0912 43.0445 33.1384 43.1686C33.1855 43.2927 33.2071 43.4251 33.2018 43.5578V45.8086ZM33.7424 29.857V28.1781L34.0674 28.175C35.0754 28.1717 36.0413 27.7704 36.7549 27.0584C37.4685 26.3464 37.872 25.3814 37.8776 24.3734C37.872 23.3654 37.4685 22.4004 36.7549 21.6884C36.0413 20.9764 35.0754 20.5751 34.0674 20.5718L33.7424 20.5703V18.8937H34.0697C37.0963 18.8937 39.558 21.3507 39.558 24.3742C39.558 27.3968 37.0963 29.8578 34.0697 29.8578L33.7424 29.857Z" fill="#71ACF0"/>
<path d="M7 29C6 29 3.4 28.2 1 25" stroke="#71ACF0" stroke-width="2"/>
<path d="M7 26C6.5 26 5.2 25.6 4 24" stroke="#71ACF0" stroke-width="2"/>
<path d="M7 32C6 32 3.4 32.8 1 36" stroke="#71ACF0" stroke-width="2"/>
<path d="M6 36C5.5 36 4.2 36.4 3 38" stroke="#71ACF0" stroke-width="2"/>
</svg>
