<svg width="50" height="50" viewBox="0 0 50 50" fill="none" xmlns="http://www.w3.org/2000/svg">
<rect width="50" height="50" rx="5" fill="url(#paint0_linear)"/>
<path d="M36.8751 15H33.5417V17.5C33.5417 17.7408 33.4943 17.9792 33.4022 18.2016C33.31 18.424 33.175 18.6261 33.0047 18.7964C32.8345 18.9666 32.6324 19.1016 32.41 19.1938C32.1875 19.2859 31.9491 19.3333 31.7084 19.3333C31.4676 19.3333 31.2292 19.2859 31.0068 19.1938C30.7844 19.1016 30.5823 18.9666 30.412 18.7964C30.2418 18.6261 30.1067 18.424 30.0146 18.2016C29.9225 17.9792 29.8751 17.7408 29.8751 17.5V15H20.1667V17.5C20.1667 17.9862 19.9736 18.4525 19.6297 18.7964C19.2859 19.1402 18.8196 19.3333 18.3334 19.3333C17.8472 19.3333 17.3808 19.1402 17.037 18.7964C16.6932 18.4525 16.5001 17.9862 16.5001 17.5V15H13.1667C12.9684 14.9977 12.7717 15.0353 12.5881 15.1104C12.4045 15.1855 12.2379 15.2966 12.0981 15.4373C11.9582 15.5779 11.848 15.7451 11.7739 15.9291C11.6998 16.1131 11.6634 16.31 11.6667 16.5083V35.1583C11.6634 35.3531 11.6985 35.5467 11.77 35.7279C11.8415 35.9091 11.948 36.0745 12.0834 36.2146C12.2189 36.3547 12.3806 36.4667 12.5593 36.5442C12.738 36.6218 12.9302 36.6634 13.1251 36.6667H36.8751C37.0699 36.6634 37.2621 36.6218 37.4408 36.5442C37.6196 36.4667 37.7812 36.3547 37.9167 36.2146C38.0521 36.0745 38.1586 35.9091 38.2301 35.7279C38.3016 35.5467 38.3367 35.3531 38.3334 35.1583V16.5083C38.3367 16.3135 38.3016 16.12 38.2301 15.9387C38.1586 15.7575 38.0521 15.5921 37.9167 15.4521C37.7812 15.312 37.6196 15.2 37.4408 15.1224C37.2621 15.0449 37.0699 15.0033 36.8751 15ZM18.3334 31.6667H16.6667V30H18.3334V31.6667ZM18.3334 27.5H16.6667V25.8333H18.3334V27.5ZM18.3334 23.3333H16.6667V21.6667H18.3334V23.3333ZM23.3334 31.6667H21.6667V30H23.3334V31.6667ZM23.3334 27.5H21.6667V25.8333H23.3334V27.5ZM23.3334 23.3333H21.6667V21.6667H23.3334V23.3333ZM28.3334 31.6667H26.6667V30H28.3334V31.6667ZM28.3334 27.5H26.6667V25.8333H28.3334V27.5ZM28.3334 23.3333H26.6667V21.6667H28.3334V23.3333ZM33.3334 31.6667H31.6667V30H33.3334V31.6667ZM33.3334 27.5H31.6667V25.8333H33.3334V27.5ZM33.3334 23.3333H31.6667V21.6667H33.3334V23.3333Z" fill="white"/>
<path d="M18.3333 18.3333C18.5543 18.3333 18.7663 18.2455 18.9226 18.0893C19.0789 17.933 19.1667 17.721 19.1667 17.5V12.5C19.1667 12.279 19.0789 12.067 18.9226 11.9107C18.7663 11.7545 18.5543 11.6667 18.3333 11.6667C18.1123 11.6667 17.9004 11.7545 17.7441 11.9107C17.5878 12.067 17.5 12.279 17.5 12.5V17.5C17.5 17.721 17.5878 17.933 17.7441 18.0893C17.9004 18.2455 18.1123 18.3333 18.3333 18.3333Z" fill="white"/>
<path d="M31.6668 18.3333C31.8878 18.3333 32.0998 18.2455 32.2561 18.0893C32.4124 17.933 32.5002 17.721 32.5002 17.5V12.5C32.5002 12.279 32.4124 12.067 32.2561 11.9107C32.0998 11.7545 31.8878 11.6667 31.6668 11.6667C31.4458 11.6667 31.2339 11.7545 31.0776 11.9107C30.9213 12.067 30.8335 12.279 30.8335 12.5V17.5C30.8335 17.721 30.9213 17.933 31.0776 18.0893C31.2339 18.2455 31.4458 18.3333 31.6668 18.3333Z" fill="white"/>
<defs>
<linearGradient id="paint0_linear" x1="58.0508" y1="58.8235" x2="-14.5175" y2="50.3773" gradientUnits="userSpaceOnUse">
<stop stop-color="#4B68B0"/>
<stop offset="0.9998" stop-color="#71ACF0" stop-opacity="0.972816"/>
</linearGradient>
</defs>
</svg>
