<svg width="192" height="145" viewBox="0 0 192 145" fill="none" xmlns="http://www.w3.org/2000/svg">
<path d="M72.6663 14.5833C72.6663 11.375 75.2913 8.75 78.4997 8.75C81.708 8.75 84.333 11.375 84.333 14.5833C84.333 17.7917 81.708 20.4167 78.4997 20.4167C75.2913 20.4167 72.6663 17.7917 72.6663 14.5833ZM86.608 25.025C84.0505 23.9088 81.2901 23.3327 78.4997 23.3327C75.7092 23.3327 72.9488 23.9088 70.3913 25.025C69.3347 25.4767 68.434 26.2289 67.8014 27.1882C67.1688 28.1476 66.832 29.2717 66.833 30.4208V32.0833H90.1663V30.4208C90.1663 28.0583 88.7663 25.9583 86.608 25.025ZM113.5 20.4167C116.708 20.4167 119.333 17.7917 119.333 14.5833C119.333 11.375 116.708 8.75 113.5 8.75C110.291 8.75 107.666 11.375 107.666 14.5833C107.666 17.7917 110.291 20.4167 113.5 20.4167ZM121.608 25.025C119.051 23.9088 116.29 23.3327 113.5 23.3327C110.709 23.3327 107.949 23.9088 105.391 25.025C104.335 25.4767 103.434 26.2289 102.801 27.1882C102.169 28.1476 101.832 29.2717 101.833 30.4208V32.0833H125.166V30.4208C125.166 28.0583 123.766 25.9583 121.608 25.025ZM125.166 49.5833L113.5 37.9167V46.6667H78.4997V37.9167L66.833 49.5833L78.4997 61.25V52.5H113.5V61.25L125.166 49.5833Z" fill="white"/>
<path d="M7.89551 123.083L5.28809 125.793V133H2.47559V111.672H5.28809V122.219L14.7656 111.672H18.1641L9.77051 121.091L18.8232 133H15.4541L7.89551 123.083ZM27.0557 133.293C24.9072 133.293 23.1592 132.59 21.8115 131.184C20.4639 129.768 19.79 127.878 19.79 125.515V125.017C19.79 123.444 20.0879 122.043 20.6836 120.812C21.2891 119.572 22.1289 118.605 23.2031 117.912C24.2871 117.209 25.459 116.857 26.7188 116.857C28.7793 116.857 30.3809 117.536 31.5234 118.894C32.666 120.251 33.2373 122.194 33.2373 124.724V125.852H22.5C22.5391 127.414 22.9932 128.679 23.8623 129.646C24.7412 130.603 25.8545 131.081 27.2021 131.081C28.1592 131.081 28.9697 130.886 29.6338 130.495C30.2979 130.104 30.8789 129.587 31.377 128.942L33.0322 130.231C31.7041 132.272 29.7119 133.293 27.0557 133.293ZM26.7188 119.084C25.625 119.084 24.707 119.484 23.9648 120.285C23.2227 121.076 22.7637 122.189 22.5879 123.625H30.5273V123.42C30.4492 122.043 30.0781 120.979 29.4141 120.227C28.75 119.465 27.8516 119.084 26.7188 119.084ZM42.9639 133.293C40.8154 133.293 39.0674 132.59 37.7197 131.184C36.3721 129.768 35.6982 127.878 35.6982 125.515V125.017C35.6982 123.444 35.9961 122.043 36.5918 120.812C37.1973 119.572 38.0371 118.605 39.1113 117.912C40.1953 117.209 41.3672 116.857 42.627 116.857C44.6875 116.857 46.2891 117.536 47.4316 118.894C48.5742 120.251 49.1455 122.194 49.1455 124.724V125.852H38.4082C38.4473 127.414 38.9014 128.679 39.7705 129.646C40.6494 130.603 41.7627 131.081 43.1104 131.081C44.0674 131.081 44.8779 130.886 45.542 130.495C46.2061 130.104 46.7871 129.587 47.2852 128.942L48.9404 130.231C47.6123 132.272 45.6201 133.293 42.9639 133.293ZM42.627 119.084C41.5332 119.084 40.6152 119.484 39.873 120.285C39.1309 121.076 38.6719 122.189 38.4961 123.625H46.4355V123.42C46.3574 122.043 45.9863 120.979 45.3223 120.227C44.6582 119.465 43.7598 119.084 42.627 119.084ZM65.6836 125.251C65.6836 127.663 65.1318 129.606 64.0283 131.081C62.9248 132.556 61.4307 133.293 59.5459 133.293C57.6221 133.293 56.1084 132.683 55.0049 131.462V139.094H52.2949V117.15H54.7705L54.9023 118.908C56.0059 117.541 57.5391 116.857 59.502 116.857C61.4062 116.857 62.9102 117.575 64.0137 119.011C65.127 120.446 65.6836 122.443 65.6836 125.002V125.251ZM62.9736 124.943C62.9736 123.156 62.5928 121.745 61.8311 120.71C61.0693 119.675 60.0244 119.157 58.6963 119.157C57.0557 119.157 55.8252 119.885 55.0049 121.34V128.913C55.8154 130.358 57.0557 131.081 58.7256 131.081C60.0244 131.081 61.0547 130.568 61.8164 129.543C62.5879 128.508 62.9736 126.975 62.9736 124.943ZM77.0068 133V111.672H83.0273C84.8828 111.672 86.5234 112.082 87.9492 112.902C89.375 113.723 90.4736 114.89 91.2451 116.403C92.0264 117.917 92.4219 119.655 92.4316 121.618V122.98C92.4316 124.992 92.041 126.755 91.2598 128.269C90.4883 129.782 89.3799 130.944 87.9346 131.755C86.499 132.565 84.8242 132.98 82.9102 133H77.0068ZM79.8193 113.986V130.7H82.7783C84.9463 130.7 86.6309 130.026 87.832 128.679C89.043 127.331 89.6484 125.412 89.6484 122.922V121.677C89.6484 119.255 89.0771 117.375 87.9346 116.037C86.8018 114.689 85.1904 114.006 83.1006 113.986H79.8193ZM99.2139 133H96.5039V117.15H99.2139V133ZM96.2842 112.946C96.2842 112.507 96.416 112.136 96.6797 111.833C96.9531 111.53 97.3535 111.379 97.8809 111.379C98.4082 111.379 98.8086 111.53 99.082 111.833C99.3555 112.136 99.4922 112.507 99.4922 112.946C99.4922 113.386 99.3555 113.752 99.082 114.045C98.8086 114.338 98.4082 114.484 97.8809 114.484C97.3535 114.484 96.9531 114.338 96.6797 114.045C96.416 113.752 96.2842 113.386 96.2842 112.946ZM112.793 128.796C112.793 128.063 112.515 127.497 111.958 127.097C111.411 126.687 110.449 126.335 109.072 126.042C107.705 125.749 106.616 125.397 105.806 124.987C105.005 124.577 104.409 124.089 104.019 123.522C103.638 122.956 103.447 122.282 103.447 121.501C103.447 120.202 103.994 119.104 105.088 118.205C106.191 117.307 107.598 116.857 109.307 116.857C111.104 116.857 112.559 117.321 113.672 118.249C114.795 119.177 115.356 120.363 115.356 121.809H112.632C112.632 121.066 112.314 120.427 111.68 119.89C111.055 119.353 110.264 119.084 109.307 119.084C108.32 119.084 107.549 119.299 106.992 119.729C106.436 120.158 106.157 120.72 106.157 121.413C106.157 122.067 106.416 122.561 106.934 122.893C107.451 123.225 108.384 123.542 109.731 123.845C111.089 124.147 112.188 124.509 113.027 124.929C113.867 125.349 114.487 125.856 114.888 126.452C115.298 127.038 115.503 127.756 115.503 128.605C115.503 130.021 114.937 131.159 113.804 132.019C112.671 132.868 111.201 133.293 109.395 133.293C108.125 133.293 107.002 133.068 106.025 132.619C105.049 132.17 104.282 131.545 103.726 130.744C103.179 129.934 102.905 129.06 102.905 128.122H105.615C105.664 129.03 106.025 129.753 106.699 130.29C107.383 130.817 108.281 131.081 109.395 131.081C110.42 131.081 111.24 130.876 111.855 130.466C112.48 130.046 112.793 129.489 112.793 128.796ZM122.71 113.312V117.15H125.669V119.245H122.71V129.074C122.71 129.709 122.842 130.188 123.105 130.51C123.369 130.822 123.818 130.979 124.453 130.979C124.766 130.979 125.195 130.92 125.742 130.803V133C125.029 133.195 124.336 133.293 123.662 133.293C122.451 133.293 121.538 132.927 120.923 132.194C120.308 131.462 120 130.422 120 129.074V119.245H117.114V117.15H120V113.312H122.71ZM138.633 133C138.477 132.688 138.35 132.131 138.252 131.33C136.992 132.639 135.488 133.293 133.74 133.293C132.178 133.293 130.894 132.854 129.888 131.975C128.892 131.086 128.394 129.963 128.394 128.605C128.394 126.955 129.019 125.676 130.269 124.768C131.528 123.85 133.296 123.391 135.571 123.391H138.208V122.146C138.208 121.198 137.925 120.446 137.358 119.89C136.792 119.323 135.957 119.04 134.854 119.04C133.887 119.04 133.076 119.284 132.422 119.772C131.768 120.261 131.44 120.852 131.44 121.545H128.716C128.716 120.754 128.994 119.992 129.551 119.26C130.117 118.518 130.879 117.932 131.836 117.502C132.803 117.072 133.862 116.857 135.015 116.857C136.841 116.857 138.271 117.316 139.307 118.234C140.342 119.143 140.879 120.397 140.918 121.999V129.294C140.918 130.749 141.104 131.906 141.475 132.766V133H138.633ZM134.136 130.935C134.985 130.935 135.791 130.715 136.553 130.275C137.314 129.836 137.866 129.265 138.208 128.562V125.31H136.084C132.764 125.31 131.104 126.281 131.104 128.225C131.104 129.074 131.387 129.738 131.953 130.217C132.52 130.695 133.247 130.935 134.136 130.935ZM147.729 117.15L147.817 119.143C149.028 117.619 150.61 116.857 152.563 116.857C155.913 116.857 157.603 118.747 157.632 122.526V133H154.922V122.512C154.912 121.369 154.648 120.524 154.131 119.978C153.623 119.431 152.827 119.157 151.743 119.157C150.864 119.157 150.093 119.392 149.429 119.86C148.765 120.329 148.247 120.944 147.876 121.706V133H145.166V117.15H147.729ZM168.076 131.081C169.043 131.081 169.888 130.788 170.61 130.202C171.333 129.616 171.733 128.884 171.812 128.005H174.375C174.326 128.913 174.014 129.777 173.438 130.598C172.861 131.418 172.09 132.072 171.123 132.561C170.166 133.049 169.15 133.293 168.076 133.293C165.918 133.293 164.199 132.575 162.92 131.14C161.65 129.694 161.016 127.722 161.016 125.222V124.768C161.016 123.225 161.299 121.853 161.865 120.651C162.432 119.45 163.242 118.518 164.297 117.854C165.361 117.189 166.616 116.857 168.062 116.857C169.839 116.857 171.313 117.39 172.485 118.454C173.667 119.519 174.297 120.9 174.375 122.6H171.812C171.733 121.574 171.343 120.734 170.64 120.08C169.946 119.416 169.087 119.084 168.062 119.084C166.685 119.084 165.615 119.582 164.854 120.578C164.102 121.564 163.726 122.995 163.726 124.87V125.383C163.726 127.209 164.102 128.615 164.854 129.602C165.605 130.588 166.68 131.081 168.076 131.081ZM183.999 133.293C181.851 133.293 180.103 132.59 178.755 131.184C177.407 129.768 176.733 127.878 176.733 125.515V125.017C176.733 123.444 177.031 122.043 177.627 120.812C178.232 119.572 179.072 118.605 180.146 117.912C181.23 117.209 182.402 116.857 183.662 116.857C185.723 116.857 187.324 117.536 188.467 118.894C189.609 120.251 190.181 122.194 190.181 124.724V125.852H179.443C179.482 127.414 179.937 128.679 180.806 129.646C181.685 130.603 182.798 131.081 184.146 131.081C185.103 131.081 185.913 130.886 186.577 130.495C187.241 130.104 187.822 129.587 188.32 128.942L189.976 130.231C188.647 132.272 186.655 133.293 183.999 133.293ZM183.662 119.084C182.568 119.084 181.65 119.484 180.908 120.285C180.166 121.076 179.707 122.189 179.531 123.625H187.471V123.42C187.393 122.043 187.021 120.979 186.357 120.227C185.693 119.465 184.795 119.084 183.662 119.084Z" fill="white"/>
</svg>
