<svg width="184" height="56" viewBox="0 0 184 56" fill="none" xmlns="http://www.w3.org/2000/svg">
<path d="M72.31 41.15C70.75 41.15 69.33 40.85 68.05 40.25C66.79 39.65 65.7 38.84 64.78 37.82C63.88 36.78 63.18 35.62 62.68 34.34C62.18 33.04 61.93 31.71 61.93 30.35C61.93 28.93 62.19 27.58 62.71 26.3C63.23 25 63.96 23.85 64.9 22.85C65.84 21.83 66.94 21.03 68.2 20.45C69.48 19.85 70.88 19.55 72.4 19.55C73.94 19.55 75.34 19.86 76.6 20.48C77.88 21.1 78.97 21.93 79.87 22.97C80.79 24.01 81.49 25.18 81.97 26.48C82.47 27.76 82.72 29.07 82.72 30.41C82.72 31.81 82.46 33.16 81.94 34.46C81.42 35.74 80.69 36.89 79.75 37.91C78.83 38.91 77.73 39.7 76.45 40.28C75.19 40.86 73.81 41.15 72.31 41.15ZM66.13 30.35C66.13 31.59 66.37 32.75 66.85 33.83C67.35 34.91 68.06 35.79 68.98 36.47C69.92 37.15 71.04 37.49 72.34 37.49C73.68 37.49 74.81 37.14 75.73 36.44C76.65 35.74 77.35 34.84 77.83 33.74C78.31 32.64 78.55 31.51 78.55 30.35C78.55 29.11 78.3 27.95 77.8 26.87C77.3 25.79 76.58 24.92 75.64 24.26C74.72 23.58 73.62 23.24 72.34 23.24C71 23.24 69.87 23.59 68.95 24.29C68.03 24.99 67.33 25.89 66.85 26.99C66.37 28.07 66.13 29.19 66.13 30.35ZM89.0655 19.7L94.8255 36.08L100.525 19.7H104.875L96.8055 41H92.8155L84.7155 19.7H89.0655ZM108.949 41V19.7H113.089V41H108.949ZM123.473 27.32V41H119.333V19.7H122.633L133.643 33.74V19.73H137.783V41H134.333L123.473 27.32ZM144.014 41V19.7H158.324V23.33H148.154V28.82H156.614V32.18H148.154V41H144.014ZM171.808 41.15C170.248 41.15 168.828 40.85 167.548 40.25C166.288 39.65 165.198 38.84 164.278 37.82C163.378 36.78 162.678 35.62 162.178 34.34C161.678 33.04 161.428 31.71 161.428 30.35C161.428 28.93 161.688 27.58 162.208 26.3C162.728 25 163.458 23.85 164.398 22.85C165.338 21.83 166.438 21.03 167.698 20.45C168.978 19.85 170.378 19.55 171.898 19.55C173.438 19.55 174.838 19.86 176.098 20.48C177.378 21.1 178.468 21.93 179.368 22.97C180.288 24.01 180.988 25.18 181.468 26.48C181.968 27.76 182.218 29.07 182.218 30.41C182.218 31.81 181.958 33.16 181.438 34.46C180.918 35.74 180.188 36.89 179.248 37.91C178.328 38.91 177.228 39.7 175.948 40.28C174.688 40.86 173.308 41.15 171.808 41.15ZM165.628 30.35C165.628 31.59 165.868 32.75 166.348 33.83C166.848 34.91 167.558 35.79 168.478 36.47C169.418 37.15 170.538 37.49 171.838 37.49C173.178 37.49 174.308 37.14 175.228 36.44C176.148 35.74 176.848 34.84 177.328 33.74C177.808 32.64 178.048 31.51 178.048 30.35C178.048 29.11 177.798 27.95 177.298 26.87C176.798 25.79 176.078 24.92 175.138 24.26C174.218 23.58 173.118 23.24 171.838 23.24C170.498 23.24 169.368 23.59 168.448 24.29C167.528 24.99 166.828 25.89 166.348 26.99C165.868 28.07 165.628 29.19 165.628 30.35Z" fill="#989898"/>
<path d="M26.8076 10.1928H29.6856C29.3258 7.67462 29.3258 5.03651 29.6856 2.51831H26.8076C27.0474 5.15643 27.0474 7.67462 26.8076 10.1928Z" fill="#989898"/>
<path d="M17.9339 13.4305L20.4521 11.9916C18.8933 9.95302 17.5742 7.67465 16.6149 5.27637L14.0967 6.71534C15.6556 8.75388 16.9746 11.0323 17.9339 13.4305Z" fill="#989898"/>
<path d="M11.8182 20.5054L13.2572 17.9872C10.8589 17.0278 8.70045 15.7088 6.542 14.1499L5.10303 16.6681C7.62123 17.6274 9.77969 18.9465 11.8182 20.5054Z" fill="#989898"/>
<path d="M10.1396 29.7388V26.8608C7.6214 27.2206 4.98329 27.2206 2.46509 26.8608V29.7388C5.1032 29.379 7.6214 29.379 10.1396 29.7388Z" fill="#989898"/>
<path d="M13.3773 38.6124L11.9383 36.0942C9.89979 37.6531 7.62143 38.9722 5.22314 39.9315L6.66211 42.4497C8.70066 40.8908 10.979 39.5718 13.3773 38.6124Z" fill="#989898"/>
<path d="M20.4521 44.6082L17.9339 43.1692C16.9746 45.5675 15.6556 47.7259 14.0967 49.8844L16.6149 51.3234C17.5742 48.9251 18.8933 46.7666 20.4521 44.6082Z" fill="#989898"/>
<path d="M29.6856 46.2869H26.8076C27.1674 48.8051 27.1674 51.4432 26.8076 53.9614H29.6856C29.3258 51.4432 29.3258 48.925 29.6856 46.2869Z" fill="#989898"/>
<path d="M38.5592 43.1692L36.041 44.6082C37.5999 46.6467 38.919 48.9251 39.8783 51.3234L42.3965 49.8844C40.8376 47.8458 39.5185 45.5675 38.5592 43.1692Z" fill="#989898"/>
<path d="M44.555 36.0942L43.116 38.6124C45.5143 39.5718 47.6727 40.8908 49.8312 42.4497L51.2701 39.9315C48.8719 38.8523 46.7134 37.6531 44.555 36.0942Z" fill="#989898"/>
<path d="M46.2336 26.8608V29.7388C48.7518 29.379 51.39 29.379 53.9082 29.7388V26.8608C51.39 27.1007 48.8718 27.1007 46.2336 26.8608Z" fill="#989898"/>
<path d="M43.116 17.9872L44.555 20.5054C46.5935 18.9465 48.8719 17.6274 51.2701 16.6681L49.8312 14.1499C47.7926 15.7088 45.5143 17.0278 43.116 17.9872Z" fill="#989898"/>
<path d="M36.041 11.8715L38.5592 13.3104C39.5185 10.9121 40.8376 8.75368 42.3965 6.59522L39.8783 5.15625C38.799 7.67445 37.5999 9.83291 36.041 11.8715Z" fill="#989898"/>
<path d="M28.2466 48.8051C39.5714 48.8051 48.7519 39.6246 48.7519 28.2998C48.7519 16.975 39.5714 7.79443 28.2466 7.79443C16.9218 7.79443 7.74121 16.975 7.74121 28.2998C7.74121 39.6246 16.9218 48.8051 28.2466 48.8051Z" fill="#989898"/>
<path d="M48.7519 28.2998C48.7519 30.818 48.2722 33.0964 47.5527 35.2548C47.0731 36.6938 46.3536 38.0128 45.6341 39.212C43.1159 43.1692 39.2786 46.2869 34.7219 47.7259C32.6833 48.3255 30.5249 48.6852 28.3664 48.6852C17.0945 48.6852 7.86108 39.5717 7.86108 28.1799C7.86108 25.9015 8.22082 23.863 8.94031 21.8244C10.3793 17.2677 13.4971 13.4304 17.4542 10.9122C18.6534 10.0728 19.9724 9.47323 21.4114 8.99357C23.5699 8.15417 25.9682 7.79443 28.3664 7.79443C39.5185 7.79443 48.7519 17.0278 48.7519 28.2998Z" fill="#989898"/>
<path opacity="0.4" d="M35.6812 41.3703C35.6812 43.6487 35.3215 45.6873 34.7219 47.7258C32.6833 48.3254 30.5249 48.6851 28.3664 48.6851C17.0945 48.6851 7.86108 39.5716 7.86108 28.1798C7.86108 25.9014 8.22082 23.8628 8.94031 21.8243C10.9788 21.2247 13.1373 20.865 15.2958 20.865C26.4478 20.865 35.6812 30.0984 35.6812 41.3703Z" fill="#989898"/>
<path opacity="0.3" d="M48.7519 28.2998C48.7519 30.818 48.2722 33.0964 47.5527 35.2548C47.0731 36.6938 46.3536 38.0128 45.6341 39.212C42.5163 41.2505 38.6791 42.3298 34.7219 42.3298C23.4499 42.3298 14.2166 33.2163 14.2166 21.8244C14.2166 17.7473 15.4157 14.03 17.3343 10.9122C18.5335 10.0728 19.8525 9.47323 21.2915 8.99357C23.4499 8.15417 25.8482 7.79443 28.2465 7.79443C39.5185 7.79443 48.7519 17.0278 48.7519 28.2998Z" fill="#989898"/>
<path opacity="0.3" d="M31.3643 18.107C32.2253 18.107 32.9232 17.4091 32.9232 16.5481C32.9232 15.6872 32.2253 14.9893 31.3643 14.9893C30.5034 14.9893 29.8054 15.6872 29.8054 16.5481C29.8054 17.4091 30.5034 18.107 31.3643 18.107Z" fill="#989898"/>
<path d="M42.9962 33.3361C43.9234 33.3361 44.675 32.5845 44.675 31.6573C44.675 30.7301 43.9234 29.9785 42.9962 29.9785C42.069 29.9785 41.3174 30.7301 41.3174 31.6573C41.3174 32.5845 42.069 33.3361 42.9962 33.3361Z" fill="#989898"/>
<path d="M14.5765 29.9786C16.2321 29.9786 17.5743 28.6364 17.5743 26.9808C17.5743 25.3251 16.2321 23.9829 14.5765 23.9829C12.9208 23.9829 11.5786 25.3251 11.5786 26.9808C11.5786 28.6364 12.9208 29.9786 14.5765 29.9786Z" fill="#989898"/>
<path d="M32.5636 25.3019C33.8881 25.3019 34.9619 24.2282 34.9619 22.9037C34.9619 21.5791 33.8881 20.5054 32.5636 20.5054C31.239 20.5054 30.1653 21.5791 30.1653 22.9037C30.1653 24.2282 31.239 25.3019 32.5636 25.3019Z" fill="#989898"/>
<path d="M36.8805 41.6102C37.5428 41.6102 38.0797 41.0733 38.0797 40.4111C38.0797 39.7488 37.5428 39.2119 36.8805 39.2119C36.2183 39.2119 35.6814 39.7488 35.6814 40.4111C35.6814 41.0733 36.2183 41.6102 36.8805 41.6102Z" fill="#989898"/>
<path opacity="0.3" d="M20.3322 20.3854C21.8555 20.3854 23.0903 19.1506 23.0903 17.6274C23.0903 16.1042 21.8555 14.8694 20.3322 14.8694C18.809 14.8694 17.5742 16.1042 17.5742 17.6274C17.5742 19.1506 18.809 20.3854 20.3322 20.3854Z" fill="#989898"/>
<path d="M26.9276 13.7903C27.5237 13.7903 28.0069 13.3071 28.0069 12.7111C28.0069 12.115 27.5237 11.6318 26.9276 11.6318C26.3316 11.6318 25.8484 12.115 25.8484 12.7111C25.8484 13.3071 26.3316 13.7903 26.9276 13.7903Z" fill="#989898"/>
<path d="M41.3173 19.9059C41.9796 19.9059 42.5165 19.369 42.5165 18.7067C42.5165 18.0444 41.9796 17.5076 41.3173 17.5076C40.655 17.5076 40.1182 18.0444 40.1182 18.7067C40.1182 19.369 40.655 19.9059 41.3173 19.9059Z" fill="#989898"/>
<path opacity="0.3" d="M23.33 42.2099C24.8533 42.2099 26.0881 40.9751 26.0881 39.4519C26.0881 37.9287 24.8533 36.6938 23.33 36.6938C21.8068 36.6938 20.572 37.9287 20.572 39.4519C20.572 40.9751 21.8068 42.2099 23.33 42.2099Z" fill="#989898"/>
<path opacity="0.3" d="M44.435 24.2228C45.1635 24.2228 45.7541 23.6323 45.7541 22.9038C45.7541 22.1753 45.1635 21.5847 44.435 21.5847C43.7065 21.5847 43.116 22.1753 43.116 22.9038C43.116 23.6323 43.7065 24.2228 44.435 24.2228Z" fill="#989898"/>
<path d="M28.1268 3.83726C30.5772 3.83726 32.5636 2.97826 32.5636 1.91863C32.5636 0.859 30.5772 0 28.1268 0C25.6764 0 23.6899 0.859 23.6899 1.91863C23.6899 2.97826 25.6764 3.83726 28.1268 3.83726Z" fill="#989898"/>
<path d="M28.1266 2.99781C29.5836 2.99781 30.7648 2.51463 30.7648 1.91859C30.7648 1.32254 29.5836 0.839355 28.1266 0.839355C26.6696 0.839355 25.4885 1.32254 25.4885 1.91859C25.4885 2.51463 26.6696 2.99781 28.1266 2.99781Z" fill="#989898"/>
<path d="M28.1268 55.9999C30.5772 55.9999 32.5636 55.1409 32.5636 54.0812C32.5636 53.0216 30.5772 52.1626 28.1268 52.1626C25.6764 52.1626 23.6899 53.0216 23.6899 54.0812C23.6899 55.1409 25.6764 55.9999 28.1268 55.9999Z" fill="#989898"/>
<path d="M28.1266 55.1604C29.5836 55.1604 30.7648 54.6772 30.7648 54.0812C30.7648 53.4851 29.5836 53.002 28.1266 53.002C26.6696 53.002 25.4885 53.4851 25.4885 54.0812C25.4885 54.6772 26.6696 55.1604 28.1266 55.1604Z" fill="#989898"/>
<path d="M45.1162 7.75889C45.6522 6.84475 44.373 5.09894 42.259 3.85953C40.1451 2.62012 37.9969 2.35645 37.4609 3.27059C36.925 4.18473 38.2042 5.93052 40.3181 7.16993C42.4321 8.40934 44.5803 8.67303 45.1162 7.75889Z" fill="#989898"/>
<path d="M43.5625 6.84754C43.864 6.33333 43.0894 5.31906 41.8325 4.58212C40.5756 3.84517 39.3122 3.66461 39.0107 4.17882C38.7092 4.69302 39.4838 5.70728 40.7407 6.44422C41.9977 7.18117 43.261 7.36174 43.5625 6.84754Z" fill="#989898"/>
<path d="M18.7405 52.7423C19.2765 51.8281 17.9972 50.0823 15.8833 48.8429C13.7693 47.6035 11.6211 47.3398 11.0852 48.254C10.5492 49.1681 11.8284 50.9139 13.9424 52.1533C16.0564 53.3927 18.2045 53.6564 18.7405 52.7423Z" fill="#989898"/>
<path d="M17.1883 51.8319C17.4897 51.3177 16.7152 50.3034 15.4582 49.5665C14.2013 48.8295 12.9379 48.649 12.6364 49.1632C12.335 49.6774 13.1095 50.6916 14.3665 51.4286C15.6234 52.1655 16.8868 52.3461 17.1883 51.8319Z" fill="#989898"/>
<path d="M53.0867 19.1923C54.0113 18.6748 53.7907 16.5219 52.594 14.3837C51.3972 12.2455 49.6774 10.9317 48.7528 11.4492C47.8282 11.9667 48.0488 14.1196 49.2456 16.2578C50.4423 18.396 52.1621 19.7099 53.0867 19.1923Z" fill="#989898"/>
<path d="M52.2071 17.6189C52.7272 17.3278 52.572 16.0612 51.8604 14.7898C51.1488 13.5184 50.1503 12.7238 49.6302 13.0149C49.1101 13.306 49.2653 14.5726 49.9769 15.844C50.6885 17.1154 51.687 17.91 52.2071 17.6189Z" fill="#989898"/>
<path d="M7.5115 44.655C8.43613 44.1375 8.21553 41.9846 7.01875 39.8463C5.82198 37.7081 4.10224 36.3943 3.1776 36.9118C2.25297 37.4293 2.47359 39.5822 3.67036 41.7205C4.86714 43.8587 6.58687 45.1725 7.5115 44.655Z" fill="#989898"/>
<path d="M6.63216 43.0813C7.15227 42.7902 6.99705 41.5236 6.28545 40.2522C5.57386 38.9808 4.57536 38.1862 4.05525 38.4773C3.53515 38.7684 3.69038 40.035 4.40198 41.3064C5.11357 42.5778 6.11206 43.3724 6.63216 43.0813Z" fill="#989898"/>
<path d="M56.0774 28.6279C56.1265 26.178 55.3075 24.1748 54.248 24.1536C53.1886 24.1324 52.29 26.1012 52.2409 28.5511C52.1919 31.001 53.0109 33.0043 54.0703 33.0255C55.1298 33.0467 56.0284 31.0778 56.0774 28.6279Z" fill="#989898"/>
<path d="M55.2382 28.6112C55.2674 27.1545 54.8079 25.9639 54.212 25.952C53.6161 25.9401 53.1093 27.1113 53.0802 28.568C53.051 30.0247 53.5104 31.2152 54.1064 31.2272C54.7023 31.2391 55.209 30.0679 55.2382 28.6112Z" fill="#989898"/>
<path d="M3.92533 27.5076C3.9744 25.0577 3.15535 23.0545 2.09593 23.0332C1.03651 23.012 0.137908 24.9809 0.0888421 27.4308C0.0397759 29.8807 0.858826 31.8839 1.91824 31.9051C2.97766 31.9263 3.87626 29.9575 3.92533 27.5076Z" fill="#989898"/>
<path d="M3.08586 27.4906C3.11504 26.0339 2.6556 24.8433 2.05967 24.8314C1.46375 24.8195 0.957007 25.9907 0.92783 27.4474C0.898653 28.9041 1.35809 30.0946 1.95401 30.1066C2.54994 30.1185 3.05668 28.9473 3.08586 27.4906Z" fill="#989898"/>
<path d="M52.4523 41.8964C53.6697 39.7698 53.911 37.619 52.9913 37.0926C52.0717 36.5661 50.3393 37.8634 49.1219 39.9901C47.9046 42.1168 47.6632 44.2676 48.5829 44.794C49.5026 45.3204 51.2349 44.0231 52.4523 41.8964Z" fill="#989898"/>
<path d="M51.721 41.4766C52.4449 40.212 52.6123 38.9469 52.095 38.6508C51.5777 38.3547 50.5716 39.1397 49.8477 40.4042C49.1239 41.6688 48.9565 42.9339 49.4738 43.23C49.9911 43.5261 50.9972 42.7411 51.721 41.4766Z" fill="#989898"/>
<path d="M7.16372 16.0732C8.38108 13.9465 8.62242 11.7957 7.70276 11.2693C6.78311 10.7429 5.05072 12.0402 3.83337 14.1669C2.61601 16.2936 2.37468 18.4443 3.29433 18.9708C4.21398 19.4972 5.94637 18.1999 7.16372 16.0732Z" fill="#989898"/>
<path d="M6.43589 15.6565C7.15973 14.392 7.32715 13.1268 6.80985 12.8307C6.29254 12.5346 5.2864 13.3196 4.56257 14.5842C3.83873 15.8487 3.67131 17.1138 4.18862 17.4099C4.70592 17.7061 5.71206 16.921 6.43589 15.6565Z" fill="#989898"/>
<path d="M42.2915 52.1431C44.4033 50.9 45.6794 49.152 45.1419 48.2388C44.6043 47.3256 42.4566 47.593 40.3449 48.8361C38.2331 50.0792 36.957 51.8272 37.4946 52.7404C38.0321 53.6536 40.1798 53.3862 42.2915 52.1431Z" fill="#989898"/>
<path d="M41.8661 51.4208C43.1217 50.6816 43.8945 49.666 43.5921 49.1524C43.2897 48.6387 42.0267 48.8215 40.7711 49.5606C39.5154 50.2997 38.7427 51.3153 39.045 51.829C39.3474 52.3427 40.6104 52.1599 41.8661 51.4208Z" fill="#989898"/>
<path d="M15.8727 7.16963C17.9844 5.92679 19.2607 4.17897 18.7232 3.26579C18.1858 2.3526 16.0382 2.61984 13.9264 3.86268C11.8147 5.10552 10.5385 6.85332 11.0759 7.76651C11.6134 8.6797 13.7609 8.41247 15.8727 7.16963Z" fill="#989898"/>
<path d="M15.4508 6.42395C16.7064 5.68481 17.4792 4.66921 17.1768 4.15554C16.8745 3.64187 15.6114 3.82465 14.3558 4.56379C13.1002 5.30292 12.3274 6.31851 12.6298 6.83218C12.9321 7.34585 14.1952 7.16308 15.4508 6.42395Z" fill="#989898"/>
<path d="M18.93 27.2C18.93 25.9 19.16 24.62 19.62 23.36C20.1 22.1 20.79 20.96 21.69 19.94C22.59 18.92 23.69 18.11 24.99 17.51C26.29 16.89 27.77 16.58 29.43 16.58C31.37 16.58 33.06 17.01 34.5 17.87C35.94 18.73 37.01 19.85 37.71 21.23L34.53 23.42C34.17 22.62 33.7 21.99 33.12 21.53C32.54 21.07 31.91 20.74 31.23 20.54C30.57 20.34 29.93 20.24 29.31 20.24C28.27 20.24 27.36 20.45 26.58 20.87C25.82 21.29 25.18 21.84 24.66 22.52C24.14 23.2 23.75 23.96 23.49 24.8C23.25 25.64 23.13 26.48 23.13 27.32C23.13 28.58 23.39 29.76 23.91 30.86C24.43 31.94 25.16 32.82 26.1 33.5C27.04 34.18 28.13 34.52 29.37 34.52C30.01 34.52 30.67 34.41 31.35 34.19C32.05 33.97 32.69 33.62 33.27 33.14C33.85 32.66 34.3 32.04 34.62 31.28L38.01 33.23C37.57 34.29 36.88 35.19 35.94 35.93C35 36.65 33.94 37.21 32.76 37.61C31.58 37.99 30.41 38.18 29.25 38.18C27.73 38.18 26.34 37.87 25.08 37.25C23.84 36.61 22.76 35.77 21.84 34.73C20.92 33.67 20.2 32.49 19.68 31.19C19.18 29.87 18.93 28.54 18.93 27.2Z" fill="white"/>
</svg>
