<svg width="50" height="50" viewBox="0 0 50 50" fill="none" xmlns="http://www.w3.org/2000/svg">
<g clip-path="url(#clip0)">
<path d="M27.0835 13.0435C19.1669 13.0435 12.9169 19.0851 12.5002 27.0018L8.54188 32.2101C8.12521 32.8351 8.54188 33.8768 9.37521 33.8768H12.5002V40.1268C12.5002 42.4185 14.3752 44.2935 16.6669 44.2935H18.7502V50.5435H33.3335V40.7518C38.3335 38.4601 41.6669 33.4601 41.6669 27.6268C41.6669 19.5018 35.2085 13.0435 27.0835 13.0435Z" fill="#71ACF0"/>
<path fill-rule="evenodd" clip-rule="evenodd" d="M13.426 0.235665C13.6397 0.0607001 13.9142 -0.0222256 14.189 0.00512189C14.4638 0.0324694 14.7166 0.167851 14.8916 0.381499L19.0583 5.47525C19.1831 5.62787 19.262 5.81277 19.2859 6.00847C19.3098 6.20417 19.2776 6.40262 19.1932 6.58077C19.1087 6.75892 18.9755 6.90945 18.8089 7.01487C18.6423 7.12028 18.4492 7.17626 18.252 7.17629H16.5989L18.0093 8.6565C18.1932 8.85759 18.2909 9.12271 18.2815 9.39499C18.2722 9.66728 18.1565 9.92508 17.9594 10.1131C17.7622 10.3011 17.4992 10.4044 17.2268 10.4009C16.9544 10.3973 16.6942 10.2871 16.502 10.094L13.4125 6.85337C13.2718 6.70578 13.1775 6.52012 13.1413 6.31944C13.1051 6.11876 13.1286 5.91187 13.2089 5.72443C13.2892 5.53699 13.4228 5.37723 13.593 5.26498C13.7633 5.15273 13.9627 5.09292 14.1666 5.09296H16.0541L13.2791 1.70129C13.1042 1.48758 13.0212 1.21312 13.0486 0.938283C13.0759 0.663441 13.2113 0.41071 13.425 0.235665H13.426Z" fill="#71ACF0"/>
<path fill-rule="evenodd" clip-rule="evenodd" d="M35.5775 0.235665C35.3638 0.0607001 35.0893 -0.0222256 34.8145 0.00512189C34.5397 0.0324694 34.2869 0.167851 34.1119 0.381499L29.9452 5.47525C29.8204 5.62787 29.7415 5.81277 29.7176 6.00847C29.6938 6.20417 29.7259 6.40262 29.8103 6.58077C29.8948 6.75892 30.028 6.90945 30.1946 7.01487C30.3612 7.12028 30.5543 7.17626 30.7515 7.17629H32.4046L30.9942 8.6565C30.8104 8.85759 30.7126 9.12271 30.722 9.39499C30.7313 9.66728 30.847 9.92508 31.0441 10.1131C31.2413 10.3011 31.5043 10.4044 31.7767 10.4009C32.0491 10.3973 32.3093 10.2871 32.5015 10.094L35.591 6.85337C35.7318 6.70578 35.826 6.52012 35.8622 6.31944C35.8984 6.11876 35.8749 5.91187 35.7946 5.72443C35.7143 5.53699 35.5807 5.37723 35.4105 5.26498C35.2402 5.15273 35.0408 5.09292 34.8369 5.09296H32.9494L35.7244 1.70129C35.8993 1.48758 35.9823 1.21312 35.9549 0.938283C35.9276 0.663441 35.7922 0.41071 35.5785 0.235665H35.5775Z" fill="#71ACF0"/>
<path fill-rule="evenodd" clip-rule="evenodd" d="M23.968 0.218947C24.5201 -0.0029283 25.1326 0.235614 25.3346 0.751238L26.7596 4.38249C26.8255 4.55893 26.8407 4.75028 26.8036 4.93492C26.7664 5.11955 26.6783 5.2901 26.5492 5.42728C26.418 5.57189 26.2519 5.68046 26.0669 5.74264C25.8818 5.80483 25.6838 5.81854 25.4919 5.78249L24.5023 5.58874L25.2815 7.40645C25.5003 7.91686 25.2346 8.52207 24.6878 8.75957C24.143 8.99603 23.5232 8.7752 23.3044 8.26582L21.7419 4.61999C21.6697 4.44346 21.6491 4.25001 21.6827 4.06224C21.7163 3.87447 21.8026 3.70012 21.9315 3.55957C22.1971 3.25749 22.6096 3.11582 22.9982 3.1929L24.0596 3.40124L23.3357 1.55749C23.1336 1.04082 23.4169 0.441863 23.968 0.218947Z" fill="#71ACF0"/>
</g>
<defs>
<clipPath id="clip0">
<rect width="50" height="50" fill="white"/>
</clipPath>
</defs>
</svg>
