<svg width="30" height="30" viewBox="0 0 30 30" fill="none" xmlns="http://www.w3.org/2000/svg">
<path fill-rule="evenodd" clip-rule="evenodd" d="M1.25 3.5475C1.25 2.93817 1.49206 2.35379 1.92292 1.92293C2.35379 1.49206 2.93817 1.25 3.5475 1.25H26.45C26.752 1.24951 27.0511 1.30858 27.3302 1.42384C27.6093 1.53909 27.8629 1.70827 28.0766 1.92167C28.2902 2.13508 28.4597 2.38853 28.5752 2.66752C28.6908 2.9465 28.7502 3.24553 28.75 3.5475V26.45C28.7503 26.752 28.6911 27.0512 28.5757 27.3303C28.4603 27.6094 28.291 27.863 28.0775 28.0766C27.864 28.2903 27.6105 28.4597 27.3314 28.5752C27.0524 28.6908 26.7533 28.7502 26.4512 28.75H3.5475C3.24568 28.75 2.94682 28.6905 2.668 28.575C2.38917 28.4595 2.13584 28.2901 1.92248 28.0766C1.70912 27.8632 1.53991 27.6097 1.42453 27.3308C1.30914 27.052 1.24984 26.7531 1.25 26.4512V3.5475ZM12.135 11.735H15.8587V13.605C16.3962 12.53 17.7712 11.5625 19.8375 11.5625C23.7987 11.5625 24.7375 13.7038 24.7375 17.6325V24.91H20.7287V18.5275C20.7287 16.29 20.1912 15.0275 18.8262 15.0275C16.9325 15.0275 16.145 16.3888 16.145 18.5275V24.91H12.135V11.735ZM5.26 24.7388H9.27V11.5625H5.26V24.7375V24.7388ZM9.84375 7.265C9.85131 7.60834 9.79021 7.94974 9.66405 8.26915C9.53788 8.58855 9.34919 8.87955 9.10904 9.12504C8.86889 9.37054 8.58212 9.56559 8.26557 9.69876C7.94901 9.83193 7.60905 9.90052 7.26562 9.90052C6.9222 9.90052 6.58224 9.83193 6.26568 9.69876C5.94913 9.56559 5.66236 9.37054 5.42221 9.12504C5.18206 8.87955 4.99337 8.58855 4.8672 8.26915C4.74103 7.94974 4.67994 7.60834 4.6875 7.265C4.70234 6.59107 4.98048 5.94974 5.46236 5.47836C5.94423 5.00698 6.59153 4.74302 7.26562 4.74302C7.93972 4.74302 8.58702 5.00698 9.06889 5.47836C9.55077 5.94974 9.82891 6.59107 9.84375 7.265Z" fill="#C0C0C0"/>
</svg>
