<svg width="76" height="97" viewBox="0 0 76 97" fill="none" xmlns="http://www.w3.org/2000/svg">
<g filter="url(#filter0_d)">
<circle cx="54" cy="18" r="18" fill="#FF6C6C"/>
<path d="M53.1956 11.0004H54.2686C54.1345 10.0615 54.1345 9.07785 54.2686 8.13892H53.1956C53.285 9.12256 53.285 10.0615 53.1956 11.0004Z" fill="white"/>
<path d="M49.8868 12.2076L50.8257 11.671C50.2445 10.911 49.7527 10.0615 49.395 9.16724L48.4561 9.70377C49.0373 10.4639 49.5291 11.3134 49.8868 12.2076Z" fill="white"/>
<path d="M47.6066 14.8455L48.1431 13.9066C47.2489 13.5489 46.4441 13.0571 45.6393 12.4758L45.1028 13.4148C46.0417 13.7724 46.8465 14.2643 47.6066 14.8455Z" fill="white"/>
<path d="M46.9806 18.2884V17.2153C46.0417 17.3495 45.0581 17.3495 44.1191 17.2153V18.2884C45.1028 18.1543 46.0417 18.1543 46.9806 18.2884Z" fill="white"/>
<path d="M48.1878 21.5969L47.6513 20.658C46.8912 21.2392 46.0417 21.731 45.1475 22.0887L45.684 23.0276C46.4441 22.4464 47.2936 21.9546 48.1878 21.5969Z" fill="white"/>
<path d="M50.8257 23.8324L49.8868 23.2959C49.5291 24.1901 49.0373 24.9949 48.4561 25.7997L49.395 26.3362C49.7527 25.442 50.2445 24.6372 50.8257 23.8324Z" fill="white"/>
<path d="M54.2686 24.4585H53.1956C53.3297 25.3974 53.3297 26.3811 53.1956 27.32H54.2686C54.1345 26.3811 54.1345 25.4421 54.2686 24.4585Z" fill="white"/>
<path d="M57.5771 23.2959L56.6382 23.8324C57.2194 24.5925 57.7112 25.442 58.0689 26.3362L59.0079 25.7997C58.4266 25.0396 57.9348 24.1901 57.5771 23.2959Z" fill="white"/>
<path d="M59.8127 20.658L59.2761 21.5969C60.1703 21.9546 60.9751 22.4464 61.7799 23.0276L62.3165 22.0887C61.4222 21.6863 60.6175 21.2392 59.8127 20.658Z" fill="white"/>
<path d="M60.4387 17.2153V18.2884C61.3776 18.1543 62.3613 18.1543 63.3002 18.2884V17.2153C62.3613 17.3048 61.4224 17.3048 60.4387 17.2153Z" fill="white"/>
<path d="M59.2761 13.9066L59.8127 14.8455C60.5727 14.2643 61.4222 13.7724 62.3165 13.4148L61.7799 12.4758C61.0199 13.0571 60.1703 13.5489 59.2761 13.9066Z" fill="white"/>
<path d="M56.6382 11.6264L57.5771 12.1629C57.9348 11.2687 58.4266 10.4639 59.0079 9.65909L58.0689 9.12256C57.6665 10.0615 57.2194 10.8663 56.6382 11.6264Z" fill="white"/>
<path d="M53.732 25.3973C57.9545 25.3973 61.3776 21.9743 61.3776 17.7518C61.3776 13.5292 57.9545 10.1062 53.732 10.1062C49.5095 10.1062 46.0864 13.5292 46.0864 17.7518C46.0864 21.9743 49.5095 25.3973 53.732 25.3973Z" fill="white"/>
<path d="M61.3775 17.7518C61.3775 18.6907 61.1987 19.5402 60.9304 20.345C60.7516 20.8815 60.4833 21.3734 60.215 21.8205C59.2761 23.2959 57.8454 24.4584 56.1463 24.9949C55.3863 25.2185 54.5815 25.3526 53.7767 25.3526C49.5738 25.3526 46.1311 21.9546 46.1311 17.7071C46.1311 16.8575 46.2652 16.0975 46.5335 15.3374C47.07 13.6384 48.2325 12.2076 49.708 11.2687C50.1551 10.9557 50.6469 10.7322 51.1834 10.5533C51.9882 10.2403 52.8825 10.1062 53.7767 10.1062C57.9348 10.1062 61.3775 13.5489 61.3775 17.7518Z" fill="white"/>
<path opacity="0.4" d="M56.504 22.6251C56.504 23.4746 56.3699 24.2347 56.1463 24.9947C55.3863 25.2183 54.5815 25.3524 53.7767 25.3524C49.5738 25.3524 46.1311 21.9544 46.1311 17.7069C46.1311 16.8573 46.2652 16.0973 46.5335 15.3372C47.2936 15.1136 48.0984 14.9795 48.9032 14.9795C53.0613 14.9795 56.504 18.4222 56.504 22.6251Z" fill="#F5F9FF"/>
<path opacity="0.3" d="M61.3777 17.7518C61.3777 18.6907 61.1989 19.5402 60.9306 20.345C60.7518 20.8815 60.4835 21.3734 60.2152 21.8205C59.0528 22.5805 57.622 22.9829 56.1465 22.9829C51.9437 22.9829 48.501 19.5849 48.501 15.3374C48.501 13.8172 48.9481 12.4312 49.6635 11.2687C50.1106 10.9557 50.6024 10.7322 51.1389 10.5533C51.9437 10.2403 52.8379 10.1062 53.7322 10.1062C57.935 10.1062 61.3777 13.5489 61.3777 17.7518Z" fill="white"/>
<path opacity="0.3" d="M54.8945 13.9513C55.2155 13.9513 55.4757 13.6911 55.4757 13.3701C55.4757 13.0491 55.2155 12.7888 54.8945 12.7888C54.5735 12.7888 54.3132 13.0491 54.3132 13.3701C54.3132 13.6911 54.5735 13.9513 54.8945 13.9513Z" fill="white"/>
<path d="M59.2314 19.6296C59.5771 19.6296 59.8574 19.3493 59.8574 19.0036C59.8574 18.6579 59.5771 18.3777 59.2314 18.3777C58.8857 18.3777 58.6055 18.6579 58.6055 19.0036C58.6055 19.3493 58.8857 19.6296 59.2314 19.6296Z" fill="#F5F9FF"/>
<path d="M48.6349 18.3776C49.2522 18.3776 49.7526 17.8772 49.7526 17.2599C49.7526 16.6425 49.2522 16.1421 48.6349 16.1421C48.0175 16.1421 47.5171 16.6425 47.5171 17.2599C47.5171 17.8772 48.0175 18.3776 48.6349 18.3776Z" fill="#F5F9FF"/>
<path d="M55.3415 16.6339C55.8353 16.6339 56.2357 16.2335 56.2357 15.7397C56.2357 15.2458 55.8353 14.8455 55.3415 14.8455C54.8476 14.8455 54.4473 15.2458 54.4473 15.7397C54.4473 16.2335 54.8476 16.6339 55.3415 16.6339Z" fill="#F5F9FF"/>
<path d="M56.9513 22.7145C57.1982 22.7145 57.3984 22.5144 57.3984 22.2674C57.3984 22.0205 57.1982 21.8203 56.9513 21.8203C56.7043 21.8203 56.5042 22.0205 56.5042 22.2674C56.5042 22.5144 56.7043 22.7145 56.9513 22.7145Z" fill="#F5F9FF"/>
<path opacity="0.3" d="M50.781 14.8008C51.349 14.8008 51.8094 14.3404 51.8094 13.7725C51.8094 13.2045 51.349 12.7441 50.781 12.7441C50.2131 12.7441 49.7527 13.2045 49.7527 13.7725C49.7527 14.3404 50.2131 14.8008 50.781 14.8008Z" fill="white"/>
<path d="M53.2403 12.3417C53.4625 12.3417 53.6427 12.1615 53.6427 11.9393C53.6427 11.717 53.4625 11.5369 53.2403 11.5369C53.018 11.5369 52.8379 11.717 52.8379 11.9393C52.8379 12.1615 53.018 12.3417 53.2403 12.3417Z" fill="#F5F9FF"/>
<path d="M58.6056 14.622C58.8525 14.622 59.0527 14.4218 59.0527 14.1749C59.0527 13.928 58.8525 13.7278 58.6056 13.7278C58.3586 13.7278 58.1584 13.928 58.1584 14.1749C58.1584 14.4218 58.3586 14.622 58.6056 14.622Z" fill="#F5F9FF"/>
<path opacity="0.3" d="M51.899 22.938C52.4669 22.938 52.9273 22.4776 52.9273 21.9097C52.9273 21.3418 52.4669 20.8813 51.899 20.8813C51.331 20.8813 50.8706 21.3418 50.8706 21.9097C50.8706 22.4776 51.331 22.938 51.899 22.938Z" fill="white"/>
<path opacity="0.3" d="M59.7679 16.2317C60.0396 16.2317 60.2598 16.0115 60.2598 15.7399C60.2598 15.4682 60.0396 15.248 59.7679 15.248C59.4963 15.248 59.2761 15.4682 59.2761 15.7399C59.2761 16.0115 59.4963 16.2317 59.7679 16.2317Z" fill="white"/>
<path d="M53.6873 8.6307C54.6009 8.6307 55.3416 8.31042 55.3416 7.91533C55.3416 7.52024 54.6009 7.19995 53.6873 7.19995C52.7736 7.19995 52.033 7.52024 52.033 7.91533C52.033 8.31042 52.7736 8.6307 53.6873 8.6307Z" fill="#F5F9FF"/>
<path d="M53.6873 8.31774C54.2305 8.31774 54.6709 8.13758 54.6709 7.91534C54.6709 7.6931 54.2305 7.51294 53.6873 7.51294C53.144 7.51294 52.7036 7.6931 52.7036 7.91534C52.7036 8.13758 53.144 8.31774 53.6873 8.31774Z" fill="#F5F9FF"/>
<path d="M53.6873 28.0799C54.6009 28.0799 55.3416 27.7596 55.3416 27.3645C55.3416 26.9695 54.6009 26.6492 53.6873 26.6492C52.7736 26.6492 52.033 26.9695 52.033 27.3645C52.033 27.7596 52.7736 28.0799 53.6873 28.0799Z" fill="#F5F9FF"/>
<path d="M53.6873 27.767C54.2305 27.767 54.6709 27.5868 54.6709 27.3646C54.6709 27.1423 54.2305 26.9622 53.6873 26.9622C53.144 26.9622 52.7036 27.1423 52.7036 27.3646C52.7036 27.5868 53.144 27.767 53.6873 27.767Z" fill="#F5F9FF"/>
<path d="M60.0217 10.0931C60.2216 9.75222 59.7446 9.10125 58.9564 8.63909C58.1682 8.17694 57.3673 8.0786 57.1675 8.41945C56.9676 8.76031 57.4446 9.41127 58.2328 9.87343C59.021 10.3356 59.8219 10.4339 60.0217 10.0931Z" fill="#F5F9FF"/>
<path d="M59.4428 9.7529C59.5552 9.56118 59.2664 9.18304 58.7977 8.9083C58.329 8.63356 57.858 8.56625 57.7455 8.75797C57.6331 8.94969 57.9219 9.32783 58.3906 9.60257C58.8593 9.87731 59.3304 9.94462 59.4428 9.7529Z" fill="#F5F9FF"/>
<path d="M50.1874 26.8653C50.3872 26.5244 49.9103 25.8735 49.1221 25.4114C48.3338 24.9493 47.5329 24.851 47.333 25.1918C47.1332 25.5327 47.6102 26.1836 48.3984 26.6457C49.1866 27.1078 49.9876 27.2061 50.1874 26.8653Z" fill="#F5F9FF"/>
<path d="M49.6088 26.526C49.7212 26.3343 49.4324 25.9561 48.9637 25.6814C48.4951 25.4066 48.024 25.3393 47.9116 25.531C47.7991 25.7228 48.0879 26.1009 48.5566 26.3756C49.0253 26.6504 49.4964 26.7177 49.6088 26.526Z" fill="#F5F9FF"/>
<path d="M62.9938 14.3557C63.3385 14.1627 63.2563 13.36 62.8101 12.5628C62.3639 11.7655 61.7226 11.2756 61.3779 11.4686C61.0331 11.6616 61.1154 12.4643 61.5616 13.2615C62.0078 14.0588 62.649 14.5487 62.9938 14.3557Z" fill="#F5F9FF"/>
<path d="M62.666 13.7691C62.8599 13.6606 62.802 13.1883 62.5367 12.7143C62.2714 12.2403 61.8991 11.944 61.7051 12.0525C61.5112 12.161 61.5691 12.6333 61.8344 13.1073C62.0998 13.5814 62.4721 13.8777 62.666 13.7691Z" fill="#F5F9FF"/>
<path d="M46.0009 23.8498C46.3456 23.6569 46.2634 22.8541 45.8171 22.0569C45.3709 21.2596 44.7297 20.7698 44.385 20.9627C44.0402 21.1557 44.1225 21.9584 44.5687 22.7557C45.0149 23.5529 45.6561 24.0428 46.0009 23.8498Z" fill="#F5F9FF"/>
<path d="M45.6731 23.263C45.867 23.1545 45.8091 22.6822 45.5438 22.2082C45.2785 21.7342 44.9061 21.4379 44.7122 21.5464C44.5183 21.6549 44.5762 22.1272 44.8415 22.6012C45.1068 23.0753 45.4791 23.3716 45.6731 23.263Z" fill="#F5F9FF"/>
<path d="M64.1091 17.8742C64.1274 16.9607 63.822 16.2138 63.427 16.2059C63.032 16.198 62.6969 16.9321 62.6786 17.8455C62.6603 18.759 62.9657 19.5059 63.3607 19.5138C63.7558 19.5217 64.0908 18.7876 64.1091 17.8742Z" fill="#F5F9FF"/>
<path d="M63.7963 17.8679C63.8071 17.3247 63.6358 16.8808 63.4136 16.8764C63.1914 16.8719 63.0025 17.3086 62.9916 17.8518C62.9807 18.3949 63.152 18.8388 63.3742 18.8433C63.5964 18.8477 63.7854 18.411 63.7963 17.8679Z" fill="#F5F9FF"/>
<path d="M44.6638 17.4565C44.6821 16.543 44.3767 15.7961 43.9817 15.7882C43.5867 15.7803 43.2516 16.5144 43.2333 17.4278C43.215 18.3413 43.5204 19.0882 43.9154 19.0961C44.3104 19.104 44.6455 18.3699 44.6638 17.4565Z" fill="#F5F9FF"/>
<path d="M44.3507 17.4502C44.3616 16.907 44.1903 16.4631 43.9681 16.4587C43.7459 16.4542 43.5569 16.8909 43.5461 17.434C43.5352 17.9772 43.7065 18.4211 43.9287 18.4255C44.1509 18.43 44.3398 17.9933 44.3507 17.4502Z" fill="#F5F9FF"/>
<path d="M62.7572 22.8213C63.2111 22.0283 63.3011 21.2264 62.9582 21.0301C62.6153 20.8339 61.9694 21.3176 61.5155 22.1105C61.0616 22.9035 60.9716 23.7054 61.3145 23.9017C61.6574 24.0979 62.3033 23.6142 62.7572 22.8213Z" fill="#F5F9FF"/>
<path d="M62.4844 22.6648C62.7542 22.1933 62.8166 21.7215 62.6238 21.6111C62.4309 21.5007 62.0558 21.7934 61.786 22.2649C61.5161 22.7364 61.4537 23.2082 61.6466 23.3186C61.8395 23.429 62.2146 23.1363 62.4844 22.6648Z" fill="#F5F9FF"/>
<path d="M45.8713 13.1929C46.3252 12.3999 46.4152 11.598 46.0723 11.4017C45.7294 11.2054 45.0834 11.6891 44.6295 12.4821C44.1756 13.275 44.0856 14.077 44.4285 14.2732C44.7714 14.4695 45.4173 13.9858 45.8713 13.1929Z" fill="#F5F9FF"/>
<path d="M45.5997 13.0377C45.8696 12.5662 45.9321 12.0945 45.7392 11.9841C45.5463 11.8737 45.1712 12.1664 44.9013 12.6379C44.6314 13.1094 44.569 13.5811 44.7618 13.6915C44.9547 13.8019 45.3299 13.5092 45.5997 13.0377Z" fill="#F5F9FF"/>
<path d="M58.9689 26.6417C59.7563 26.1783 60.2322 25.5265 60.0317 25.186C59.8313 24.8456 59.0305 24.9453 58.2431 25.4087C57.4557 25.8722 56.9799 26.5239 57.1803 26.8644C57.3807 27.2049 58.1815 27.1052 58.9689 26.6417Z" fill="#F5F9FF"/>
<path d="M58.8103 26.3725C59.2784 26.0969 59.5666 25.7183 59.4538 25.5267C59.3411 25.3352 58.8701 25.4034 58.4019 25.6789C57.9337 25.9545 57.6456 26.3331 57.7584 26.5246C57.8711 26.7161 58.3421 26.648 58.8103 26.3725Z" fill="#F5F9FF"/>
<path d="M49.1184 9.87308C49.9058 9.40968 50.3816 8.758 50.1812 8.41751C49.9809 8.07702 49.1801 8.17666 48.3927 8.64006C47.6053 9.10347 47.1295 9.75515 47.3299 10.0956C47.5303 10.4361 48.331 10.3365 49.1184 9.87308Z" fill="#F5F9FF"/>
<path d="M48.9611 9.59512C49.4293 9.31956 49.7175 8.94092 49.6047 8.7494C49.492 8.55788 49.021 8.62601 48.5528 8.90157C48.0846 9.17713 47.7965 9.55577 47.9092 9.74729C48.022 9.9388 48.4929 9.87068 48.9611 9.59512Z" fill="#F5F9FF"/>
</g>
<g filter="url(#filter1_d)">
<circle cx="22" cy="71" r="18" fill="#FF6C6C"/>
<path d="M21.1956 64.0004H22.2686C22.1345 63.0615 22.1345 62.0778 22.2686 61.1389H21.1956C21.285 62.1226 21.285 63.0615 21.1956 64.0004Z" fill="white"/>
<path d="M17.8868 65.2076L18.8257 64.671C18.2445 63.911 17.7527 63.0615 17.395 62.1672L16.4561 62.7038C17.0373 63.4639 17.5291 64.3134 17.8868 65.2076Z" fill="white"/>
<path d="M15.6066 67.8455L16.1431 66.9066C15.2489 66.5489 14.4441 66.0571 13.6393 65.4758L13.1028 66.4148C14.0417 66.7724 14.8465 67.2643 15.6066 67.8455Z" fill="white"/>
<path d="M14.9806 71.2884V70.2153C14.0417 70.3495 13.0581 70.3495 12.1191 70.2153V71.2884C13.1028 71.1543 14.0417 71.1543 14.9806 71.2884Z" fill="white"/>
<path d="M16.1878 74.5969L15.6513 73.658C14.8912 74.2392 14.0417 74.731 13.1475 75.0887L13.684 76.0276C14.4441 75.4464 15.2936 74.9546 16.1878 74.5969Z" fill="white"/>
<path d="M18.8257 76.8324L17.8868 76.2959C17.5291 77.1901 17.0373 77.9949 16.4561 78.7997L17.395 79.3362C17.7527 78.442 18.2445 77.6372 18.8257 76.8324Z" fill="white"/>
<path d="M22.2686 77.4585H21.1956C21.3297 78.3974 21.3297 79.3811 21.1956 80.32H22.2686C22.1345 79.3811 22.1345 78.4421 22.2686 77.4585Z" fill="white"/>
<path d="M25.5771 76.2959L24.6382 76.8324C25.2194 77.5925 25.7112 78.442 26.0689 79.3362L27.0079 78.7997C26.4266 78.0396 25.9348 77.1901 25.5771 76.2959Z" fill="white"/>
<path d="M27.8127 73.658L27.2761 74.5969C28.1703 74.9546 28.9751 75.4464 29.7799 76.0276L30.3165 75.0887C29.4222 74.6863 28.6175 74.2392 27.8127 73.658Z" fill="white"/>
<path d="M28.4387 70.2153V71.2884C29.3776 71.1543 30.3613 71.1543 31.3002 71.2884V70.2153C30.3613 70.3048 29.4224 70.3048 28.4387 70.2153Z" fill="white"/>
<path d="M27.2761 66.9066L27.8127 67.8455C28.5727 67.2643 29.4222 66.7724 30.3165 66.4148L29.7799 65.4758C29.0199 66.0571 28.1703 66.5489 27.2761 66.9066Z" fill="white"/>
<path d="M24.6382 64.6264L25.5771 65.1629C25.9348 64.2687 26.4266 63.4639 27.0079 62.6591L26.0689 62.1226C25.6665 63.0615 25.2194 63.8663 24.6382 64.6264Z" fill="white"/>
<path d="M21.732 78.3973C25.9545 78.3973 29.3776 74.9743 29.3776 70.7518C29.3776 66.5292 25.9545 63.1062 21.732 63.1062C17.5095 63.1062 14.0864 66.5292 14.0864 70.7518C14.0864 74.9743 17.5095 78.3973 21.732 78.3973Z" fill="white"/>
<path d="M29.3775 70.7518C29.3775 71.6907 29.1987 72.5402 28.9304 73.345C28.7516 73.8815 28.4833 74.3734 28.215 74.8205C27.2761 76.2959 25.8454 77.4584 24.1463 77.9949C23.3863 78.2185 22.5815 78.3526 21.7767 78.3526C17.5738 78.3526 14.1311 74.9546 14.1311 70.7071C14.1311 69.8575 14.2652 69.0975 14.5335 68.3374C15.07 66.6384 16.2325 65.2076 17.708 64.2687C18.1551 63.9557 18.6469 63.7322 19.1834 63.5533C19.9882 63.2403 20.8825 63.1062 21.7767 63.1062C25.9348 63.1062 29.3775 66.5489 29.3775 70.7518Z" fill="white"/>
<path opacity="0.4" d="M24.504 75.6251C24.504 76.4746 24.3699 77.2347 24.1463 77.9947C23.3863 78.2183 22.5815 78.3524 21.7767 78.3524C17.5738 78.3524 14.1311 74.9544 14.1311 70.7069C14.1311 69.8573 14.2652 69.0973 14.5335 68.3372C15.2936 68.1136 16.0984 67.9795 16.9032 67.9795C21.0613 67.9795 24.504 71.4222 24.504 75.6251Z" fill="#F5F9FF"/>
<path opacity="0.3" d="M29.3777 70.7518C29.3777 71.6907 29.1989 72.5402 28.9306 73.345C28.7518 73.8815 28.4835 74.3734 28.2152 74.8205C27.0528 75.5805 25.622 75.9829 24.1465 75.9829C19.9437 75.9829 16.501 72.5849 16.501 68.3374C16.501 66.8172 16.9481 65.4312 17.6635 64.2687C18.1106 63.9557 18.6024 63.7322 19.1389 63.5533C19.9437 63.2403 20.8379 63.1062 21.7322 63.1062C25.935 63.1062 29.3777 66.5489 29.3777 70.7518Z" fill="white"/>
<path opacity="0.3" d="M22.8945 66.9513C23.2155 66.9513 23.4757 66.6911 23.4757 66.3701C23.4757 66.0491 23.2155 65.7888 22.8945 65.7888C22.5735 65.7888 22.3132 66.0491 22.3132 66.3701C22.3132 66.6911 22.5735 66.9513 22.8945 66.9513Z" fill="white"/>
<path d="M27.2314 72.6296C27.5771 72.6296 27.8574 72.3493 27.8574 72.0036C27.8574 71.6579 27.5771 71.3777 27.2314 71.3777C26.8857 71.3777 26.6055 71.6579 26.6055 72.0036C26.6055 72.3493 26.8857 72.6296 27.2314 72.6296Z" fill="#F5F9FF"/>
<path d="M16.6349 71.3776C17.2522 71.3776 17.7526 70.8772 17.7526 70.2599C17.7526 69.6425 17.2522 69.1421 16.6349 69.1421C16.0175 69.1421 15.5171 69.6425 15.5171 70.2599C15.5171 70.8772 16.0175 71.3776 16.6349 71.3776Z" fill="#F5F9FF"/>
<path d="M23.3415 69.6339C23.8353 69.6339 24.2357 69.2335 24.2357 68.7397C24.2357 68.2458 23.8353 67.8455 23.3415 67.8455C22.8476 67.8455 22.4473 68.2458 22.4473 68.7397C22.4473 69.2335 22.8476 69.6339 23.3415 69.6339Z" fill="#F5F9FF"/>
<path d="M24.9513 75.7145C25.1982 75.7145 25.3984 75.5144 25.3984 75.2674C25.3984 75.0205 25.1982 74.8203 24.9513 74.8203C24.7043 74.8203 24.5042 75.0205 24.5042 75.2674C24.5042 75.5144 24.7043 75.7145 24.9513 75.7145Z" fill="#F5F9FF"/>
<path opacity="0.3" d="M18.781 67.8008C19.349 67.8008 19.8094 67.3404 19.8094 66.7725C19.8094 66.2045 19.349 65.7441 18.781 65.7441C18.2131 65.7441 17.7527 66.2045 17.7527 66.7725C17.7527 67.3404 18.2131 67.8008 18.781 67.8008Z" fill="white"/>
<path d="M21.2403 65.3417C21.4625 65.3417 21.6427 65.1615 21.6427 64.9393C21.6427 64.717 21.4625 64.5369 21.2403 64.5369C21.018 64.5369 20.8379 64.717 20.8379 64.9393C20.8379 65.1615 21.018 65.3417 21.2403 65.3417Z" fill="#F5F9FF"/>
<path d="M26.6056 67.622C26.8525 67.622 27.0527 67.4218 27.0527 67.1749C27.0527 66.928 26.8525 66.7278 26.6056 66.7278C26.3586 66.7278 26.1584 66.928 26.1584 67.1749C26.1584 67.4218 26.3586 67.622 26.6056 67.622Z" fill="#F5F9FF"/>
<path opacity="0.3" d="M19.899 75.938C20.4669 75.938 20.9273 75.4776 20.9273 74.9097C20.9273 74.3418 20.4669 73.8813 19.899 73.8813C19.331 73.8813 18.8706 74.3418 18.8706 74.9097C18.8706 75.4776 19.331 75.938 19.899 75.938Z" fill="white"/>
<path opacity="0.3" d="M27.7679 69.2317C28.0396 69.2317 28.2598 69.0115 28.2598 68.7399C28.2598 68.4682 28.0396 68.248 27.7679 68.248C27.4963 68.248 27.2761 68.4682 27.2761 68.7399C27.2761 69.0115 27.4963 69.2317 27.7679 69.2317Z" fill="white"/>
<path d="M21.6873 61.6307C22.6009 61.6307 23.3416 61.3104 23.3416 60.9153C23.3416 60.5202 22.6009 60.2 21.6873 60.2C20.7736 60.2 20.033 60.5202 20.033 60.9153C20.033 61.3104 20.7736 61.6307 21.6873 61.6307Z" fill="#F5F9FF"/>
<path d="M21.6873 61.3177C22.2305 61.3177 22.6709 61.1376 22.6709 60.9153C22.6709 60.6931 22.2305 60.5129 21.6873 60.5129C21.144 60.5129 20.7036 60.6931 20.7036 60.9153C20.7036 61.1376 21.144 61.3177 21.6873 61.3177Z" fill="#F5F9FF"/>
<path d="M21.6873 81.0799C22.6009 81.0799 23.3416 80.7596 23.3416 80.3645C23.3416 79.9695 22.6009 79.6492 21.6873 79.6492C20.7736 79.6492 20.033 79.9695 20.033 80.3645C20.033 80.7596 20.7736 81.0799 21.6873 81.0799Z" fill="#F5F9FF"/>
<path d="M21.6873 80.767C22.2305 80.767 22.6709 80.5868 22.6709 80.3646C22.6709 80.1423 22.2305 79.9622 21.6873 79.9622C21.144 79.9622 20.7036 80.1423 20.7036 80.3646C20.7036 80.5868 21.144 80.767 21.6873 80.767Z" fill="#F5F9FF"/>
<path d="M28.0217 63.0931C28.2216 62.7522 27.7446 62.1013 26.9564 61.6391C26.1682 61.1769 25.3673 61.0786 25.1675 61.4195C24.9676 61.7603 25.4446 62.4113 26.2328 62.8734C27.021 63.3356 27.8219 63.4339 28.0217 63.0931Z" fill="#F5F9FF"/>
<path d="M27.4428 62.7529C27.5552 62.5612 27.2664 62.183 26.7977 61.9083C26.329 61.6336 25.858 61.5663 25.7455 61.758C25.6331 61.9497 25.9219 62.3278 26.3906 62.6026C26.8593 62.8773 27.3304 62.9446 27.4428 62.7529Z" fill="#F5F9FF"/>
<path d="M18.1874 79.8653C18.3872 79.5244 17.9103 78.8735 17.1221 78.4114C16.3338 77.9493 15.5329 77.851 15.333 78.1918C15.1332 78.5327 15.6102 79.1836 16.3984 79.6457C17.1866 80.1078 17.9876 80.2061 18.1874 79.8653Z" fill="#F5F9FF"/>
<path d="M17.6088 79.526C17.7212 79.3343 17.4324 78.9561 16.9637 78.6814C16.4951 78.4066 16.024 78.3393 15.9116 78.531C15.7991 78.7228 16.0879 79.1009 16.5566 79.3756C17.0253 79.6504 17.4964 79.7177 17.6088 79.526Z" fill="#F5F9FF"/>
<path d="M30.9938 67.3557C31.3385 67.1627 31.2563 66.36 30.8101 65.5628C30.3639 64.7655 29.7226 64.2756 29.3779 64.4686C29.0331 64.6616 29.1154 65.4643 29.5616 66.2615C30.0078 67.0588 30.649 67.5487 30.9938 67.3557Z" fill="#F5F9FF"/>
<path d="M30.666 66.7691C30.8599 66.6606 30.802 66.1883 30.5367 65.7143C30.2714 65.2403 29.8991 64.944 29.7051 65.0525C29.5112 65.161 29.5691 65.6333 29.8344 66.1073C30.0998 66.5814 30.4721 66.8777 30.666 66.7691Z" fill="#F5F9FF"/>
<path d="M14.0009 76.8498C14.3456 76.6569 14.2634 75.8541 13.8171 75.0569C13.3709 74.2596 12.7297 73.7698 12.385 73.9627C12.0402 74.1557 12.1225 74.9584 12.5687 75.7557C13.0149 76.5529 13.6561 77.0428 14.0009 76.8498Z" fill="#F5F9FF"/>
<path d="M13.6731 76.263C13.867 76.1545 13.8091 75.6822 13.5438 75.2082C13.2785 74.7342 12.9061 74.4379 12.7122 74.5464C12.5183 74.6549 12.5762 75.1272 12.8415 75.6012C13.1068 76.0753 13.4791 76.3716 13.6731 76.263Z" fill="#F5F9FF"/>
<path d="M32.1091 70.8742C32.1274 69.9607 31.822 69.2138 31.427 69.2059C31.032 69.198 30.6969 69.9321 30.6786 70.8455C30.6603 71.759 30.9657 72.5059 31.3607 72.5138C31.7558 72.5217 32.0908 71.7876 32.1091 70.8742Z" fill="#F5F9FF"/>
<path d="M31.7963 70.8679C31.8071 70.3247 31.6358 69.8808 31.4136 69.8764C31.1914 69.8719 31.0025 70.3086 30.9916 70.8518C30.9807 71.3949 31.152 71.8388 31.3742 71.8433C31.5964 71.8477 31.7854 71.411 31.7963 70.8679Z" fill="#F5F9FF"/>
<path d="M12.6638 70.4565C12.6821 69.543 12.3767 68.7961 11.9817 68.7882C11.5867 68.7803 11.2516 69.5144 11.2333 70.4278C11.215 71.3413 11.5204 72.0882 11.9154 72.0961C12.3104 72.104 12.6455 71.3699 12.6638 70.4565Z" fill="#F5F9FF"/>
<path d="M12.3507 70.4502C12.3616 69.907 12.1903 69.4631 11.9681 69.4587C11.7459 69.4542 11.5569 69.8909 11.5461 70.434C11.5352 70.9772 11.7065 71.4211 11.9287 71.4255C12.1509 71.43 12.3398 70.9933 12.3507 70.4502Z" fill="#F5F9FF"/>
<path d="M30.7572 75.8213C31.2111 75.0283 31.3011 74.2264 30.9582 74.0301C30.6153 73.8339 29.9694 74.3176 29.5155 75.1105C29.0616 75.9035 28.9716 76.7054 29.3145 76.9017C29.6574 77.0979 30.3033 76.6142 30.7572 75.8213Z" fill="#F5F9FF"/>
<path d="M30.4844 75.6648C30.7542 75.1933 30.8166 74.7215 30.6238 74.6111C30.4309 74.5007 30.0558 74.7934 29.786 75.2649C29.5161 75.7364 29.4537 76.2082 29.6466 76.3186C29.8395 76.429 30.2146 76.1363 30.4844 75.6648Z" fill="#F5F9FF"/>
<path d="M13.8713 66.1929C14.3252 65.3999 14.4152 64.598 14.0723 64.4017C13.7294 64.2054 13.0834 64.6891 12.6295 65.4821C12.1756 66.275 12.0856 67.077 12.4285 67.2732C12.7714 67.4695 13.4173 66.9858 13.8713 66.1929Z" fill="#F5F9FF"/>
<path d="M13.5997 66.0377C13.8696 65.5662 13.9321 65.0945 13.7392 64.9841C13.5463 64.8737 13.1712 65.1664 12.9013 65.6379C12.6314 66.1094 12.569 66.5811 12.7618 66.6915C12.9547 66.8019 13.3299 66.5092 13.5997 66.0377Z" fill="#F5F9FF"/>
<path d="M26.9689 79.6417C27.7563 79.1783 28.2322 78.5265 28.0317 78.186C27.8313 77.8456 27.0305 77.9453 26.2431 78.4087C25.4557 78.8722 24.9799 79.5239 25.1803 79.8644C25.3807 80.2049 26.1815 80.1052 26.9689 79.6417Z" fill="#F5F9FF"/>
<path d="M26.8103 79.3725C27.2784 79.0969 27.5666 78.7183 27.4538 78.5267C27.3411 78.3352 26.8701 78.4034 26.4019 78.6789C25.9337 78.9545 25.6456 79.3331 25.7584 79.5246C25.8711 79.7161 26.3421 79.648 26.8103 79.3725Z" fill="#F5F9FF"/>
<path d="M17.1184 62.8731C17.9058 62.4097 18.3816 61.758 18.1812 61.4175C17.9809 61.077 17.1801 61.1767 16.3927 61.6401C15.6053 62.1035 15.1295 62.7551 15.3299 63.0956C15.5303 63.4361 16.331 63.3365 17.1184 62.8731Z" fill="#F5F9FF"/>
<path d="M16.9611 62.5951C17.4293 62.3196 17.7175 61.9409 17.6047 61.7494C17.492 61.5579 17.021 61.626 16.5528 61.9016C16.0846 62.1771 15.7965 62.5558 15.9092 62.7473C16.022 62.9388 16.4929 62.8707 16.9611 62.5951Z" fill="#F5F9FF"/>
</g>
<defs>
<filter id="filter0_d" x="32" y="0" width="44" height="44" filterUnits="userSpaceOnUse" color-interpolation-filters="sRGB">
<feFlood flood-opacity="0" result="BackgroundImageFix"/>
<feColorMatrix in="SourceAlpha" type="matrix" values="0 0 0 0 0 0 0 0 0 0 0 0 0 0 0 0 0 0 127 0" result="hardAlpha"/>
<feOffset dy="4"/>
<feGaussianBlur stdDeviation="2"/>
<feComposite in2="hardAlpha" operator="out"/>
<feColorMatrix type="matrix" values="0 0 0 0 0.580392 0 0 0 0 0.788235 0 0 0 0 1 0 0 0 0.25 0"/>
<feBlend mode="normal" in2="BackgroundImageFix" result="effect1_dropShadow"/>
<feBlend mode="normal" in="SourceGraphic" in2="effect1_dropShadow" result="shape"/>
</filter>
<filter id="filter1_d" x="0" y="53" width="44" height="44" filterUnits="userSpaceOnUse" color-interpolation-filters="sRGB">
<feFlood flood-opacity="0" result="BackgroundImageFix"/>
<feColorMatrix in="SourceAlpha" type="matrix" values="0 0 0 0 0 0 0 0 0 0 0 0 0 0 0 0 0 0 127 0" result="hardAlpha"/>
<feOffset dy="4"/>
<feGaussianBlur stdDeviation="2"/>
<feComposite in2="hardAlpha" operator="out"/>
<feColorMatrix type="matrix" values="0 0 0 0 0.580392 0 0 0 0 0.788235 0 0 0 0 1 0 0 0 0.25 0"/>
<feBlend mode="normal" in2="BackgroundImageFix" result="effect1_dropShadow"/>
<feBlend mode="normal" in="SourceGraphic" in2="effect1_dropShadow" result="shape"/>
</filter>
</defs>
</svg>
