<svg width="50" height="50" viewBox="0 0 50 50" fill="none" xmlns="http://www.w3.org/2000/svg">
<rect width="50" height="50" rx="5" fill="url(#paint0_linear)"/>
<path d="M25 12.5C20.1625 12.5 16.25 16.4125 16.25 21.25C16.25 27.8125 25 37.5 25 37.5C25 37.5 33.75 27.8125 33.75 21.25C33.75 16.4125 29.8375 12.5 25 12.5ZM25 24.375C24.1712 24.375 23.3763 24.0458 22.7903 23.4597C22.2042 22.8737 21.875 22.0788 21.875 21.25C21.875 20.4212 22.2042 19.6263 22.7903 19.0403C23.3763 18.4542 24.1712 18.125 25 18.125C25.8288 18.125 26.6237 18.4542 27.2097 19.0403C27.7958 19.6263 28.125 20.4212 28.125 21.25C28.125 22.0788 27.7958 22.8737 27.2097 23.4597C26.6237 24.0458 25.8288 24.375 25 24.375Z" fill="white"/>
<defs>
<linearGradient id="paint0_linear" x1="58.0508" y1="58.8235" x2="-14.5175" y2="50.3773" gradientUnits="userSpaceOnUse">
<stop stop-color="#4B68B0"/>
<stop offset="0.9998" stop-color="#71ACF0" stop-opacity="0.972816"/>
</linearGradient>
</defs>
</svg>
