<svg width="150" height="145" viewBox="0 0 150 145" fill="none" xmlns="http://www.w3.org/2000/svg">
<path fill-rule="evenodd" clip-rule="evenodd" d="M75.2071 14.0728C75.5228 13.9757 75.8583 13.9757 76.174 14.0728L97.553 20.6509C97.8893 20.7543 98.1835 20.9629 98.3924 21.2458C98.6014 21.5288 98.7141 21.8713 98.7141 22.2231V23.8676H100.359C102.539 23.8676 104.631 24.734 106.173 26.276C107.715 27.8181 108.581 29.9095 108.581 32.0903V38.6685C108.581 40.8493 107.715 42.9407 106.173 44.4828C104.631 46.0248 102.539 46.8912 100.359 46.8912H96.3196C94.4301 49.797 91.5797 51.9466 88.2663 52.9644L76.174 56.686C75.859 56.7828 75.5221 56.7828 75.2071 56.686L63.1148 52.9644C59.8014 51.9466 56.951 49.797 55.0615 46.8912H51.0225C48.8417 46.8912 46.7502 46.0248 45.2082 44.4828C43.6661 42.9407 42.7998 40.8493 42.7998 38.6685V32.0903C42.7998 29.9095 43.6661 27.8181 45.2082 26.276C46.7502 24.734 48.8417 23.8676 51.0225 23.8676H52.667V22.2231C52.667 21.8713 52.7797 21.5288 52.9887 21.2458C53.1976 20.9629 53.4918 20.7543 53.8281 20.6509L75.2071 14.0728ZM52.667 38.8181C52.667 40.4791 52.9433 42.0908 53.4597 43.6021H51.0225C49.714 43.6021 48.4591 43.0823 47.5339 42.1571C46.6087 41.2318 46.0889 39.9769 46.0889 38.6685V32.0903C46.0889 30.7818 46.6087 29.527 47.5339 28.6017C48.4591 27.6765 49.714 27.1567 51.0225 27.1567H52.667V38.8181ZM97.9214 43.6021H100.359C101.667 43.6021 102.922 43.0823 103.847 42.1571C104.772 41.2318 105.292 39.9769 105.292 38.6685V32.0903C105.292 30.7818 104.772 29.527 103.847 28.6017C102.922 27.6765 101.667 27.1567 100.359 27.1567H98.7141V38.8181C98.7141 40.4791 98.4378 42.0908 97.9214 43.6021ZM85.5578 30.4458H65.8233V27.1567H85.5578V30.4458ZM85.5578 40.313H65.8233V37.0239H85.5578V40.313Z" fill="white"/>
<path d="M7.0752 126.276L7.48535 129.089L8.08594 126.555L12.3047 111.672H14.6777L18.7939 126.555L19.3799 129.133L19.834 126.262L23.1445 111.672H25.9717L20.8008 133H18.2373L13.8428 117.458L13.5059 115.832L13.1689 117.458L8.61328 133H6.0498L0.893555 111.672H3.70605L7.0752 126.276ZM34.79 133.293C32.6416 133.293 30.8936 132.59 29.5459 131.184C28.1982 129.768 27.5244 127.878 27.5244 125.515V125.017C27.5244 123.444 27.8223 122.043 28.418 120.812C29.0234 119.572 29.8633 118.605 30.9375 117.912C32.0215 117.209 33.1934 116.857 34.4531 116.857C36.5137 116.857 38.1152 117.536 39.2578 118.894C40.4004 120.251 40.9717 122.194 40.9717 124.724V125.852H30.2344C30.2734 127.414 30.7275 128.679 31.5967 129.646C32.4756 130.603 33.5889 131.081 34.9365 131.081C35.8936 131.081 36.7041 130.886 37.3682 130.495C38.0322 130.104 38.6133 129.587 39.1113 128.942L40.7666 130.231C39.4385 132.272 37.4463 133.293 34.79 133.293ZM34.4531 119.084C33.3594 119.084 32.4414 119.484 31.6992 120.285C30.957 121.076 30.498 122.189 30.3223 123.625H38.2617V123.42C38.1836 122.043 37.8125 120.979 37.1484 120.227C36.4844 119.465 35.5859 119.084 34.4531 119.084ZM53.9062 133C53.75 132.688 53.623 132.131 53.5254 131.33C52.2656 132.639 50.7617 133.293 49.0137 133.293C47.4512 133.293 46.167 132.854 45.1611 131.975C44.165 131.086 43.667 129.963 43.667 128.605C43.667 126.955 44.292 125.676 45.542 124.768C46.8018 123.85 48.5693 123.391 50.8447 123.391H53.4814V122.146C53.4814 121.198 53.1982 120.446 52.6318 119.89C52.0654 119.323 51.2305 119.04 50.127 119.04C49.1602 119.04 48.3496 119.284 47.6953 119.772C47.041 120.261 46.7139 120.852 46.7139 121.545H43.9893C43.9893 120.754 44.2676 119.992 44.8242 119.26C45.3906 118.518 46.1523 117.932 47.1094 117.502C48.0762 117.072 49.1357 116.857 50.2881 116.857C52.1143 116.857 53.5449 117.316 54.5801 118.234C55.6152 119.143 56.1523 120.397 56.1914 121.999V129.294C56.1914 130.749 56.377 131.906 56.748 132.766V133H53.9062ZM49.4092 130.935C50.2588 130.935 51.0645 130.715 51.8262 130.275C52.5879 129.836 53.1396 129.265 53.4814 128.562V125.31H51.3574C48.0371 125.31 46.377 126.281 46.377 128.225C46.377 129.074 46.6602 129.738 47.2266 130.217C47.793 130.695 48.5205 130.935 49.4092 130.935ZM68.1006 119.582C67.6904 119.514 67.2461 119.479 66.7676 119.479C64.9902 119.479 63.7842 120.236 63.1494 121.75V133H60.4395V117.15H63.0762L63.1201 118.981C64.0088 117.565 65.2686 116.857 66.8994 116.857C67.4268 116.857 67.8271 116.926 68.1006 117.062V119.582ZM80.5957 117.15L80.6689 118.908C81.8311 117.541 83.3984 116.857 85.3711 116.857C87.5879 116.857 89.0967 117.707 89.8975 119.406C90.4248 118.645 91.1084 118.029 91.9482 117.561C92.7979 117.092 93.7988 116.857 94.9512 116.857C98.4277 116.857 100.195 118.698 100.254 122.38V133H97.5439V122.541C97.5439 121.408 97.2852 120.563 96.7676 120.007C96.25 119.44 95.3809 119.157 94.1602 119.157C93.1543 119.157 92.3193 119.46 91.6553 120.065C90.9912 120.661 90.6055 121.467 90.498 122.482V133H87.7734V122.614C87.7734 120.31 86.6455 119.157 84.3896 119.157C82.6123 119.157 81.3965 119.914 80.7422 121.428V133H78.0322V117.15H80.5957ZM114.141 133C113.984 132.688 113.857 132.131 113.76 131.33C112.5 132.639 110.996 133.293 109.248 133.293C107.686 133.293 106.401 132.854 105.396 131.975C104.399 131.086 103.901 129.963 103.901 128.605C103.901 126.955 104.526 125.676 105.776 124.768C107.036 123.85 108.804 123.391 111.079 123.391H113.716V122.146C113.716 121.198 113.433 120.446 112.866 119.89C112.3 119.323 111.465 119.04 110.361 119.04C109.395 119.04 108.584 119.284 107.93 119.772C107.275 120.261 106.948 120.852 106.948 121.545H104.224C104.224 120.754 104.502 119.992 105.059 119.26C105.625 118.518 106.387 117.932 107.344 117.502C108.311 117.072 109.37 116.857 110.522 116.857C112.349 116.857 113.779 117.316 114.814 118.234C115.85 119.143 116.387 120.397 116.426 121.999V129.294C116.426 130.749 116.611 131.906 116.982 132.766V133H114.141ZM109.644 130.935C110.493 130.935 111.299 130.715 112.061 130.275C112.822 129.836 113.374 129.265 113.716 128.562V125.31H111.592C108.271 125.31 106.611 126.281 106.611 128.225C106.611 129.074 106.895 129.738 107.461 130.217C108.027 130.695 108.755 130.935 109.644 130.935ZM129.902 128.796C129.902 128.063 129.624 127.497 129.067 127.097C128.521 126.687 127.559 126.335 126.182 126.042C124.814 125.749 123.726 125.397 122.915 124.987C122.114 124.577 121.519 124.089 121.128 123.522C120.747 122.956 120.557 122.282 120.557 121.501C120.557 120.202 121.104 119.104 122.197 118.205C123.301 117.307 124.707 116.857 126.416 116.857C128.213 116.857 129.668 117.321 130.781 118.249C131.904 119.177 132.466 120.363 132.466 121.809H129.741C129.741 121.066 129.424 120.427 128.789 119.89C128.164 119.353 127.373 119.084 126.416 119.084C125.43 119.084 124.658 119.299 124.102 119.729C123.545 120.158 123.267 120.72 123.267 121.413C123.267 122.067 123.525 122.561 124.043 122.893C124.561 123.225 125.493 123.542 126.841 123.845C128.198 124.147 129.297 124.509 130.137 124.929C130.977 125.349 131.597 125.856 131.997 126.452C132.407 127.038 132.612 127.756 132.612 128.605C132.612 130.021 132.046 131.159 130.913 132.019C129.78 132.868 128.311 133.293 126.504 133.293C125.234 133.293 124.111 133.068 123.135 132.619C122.158 132.17 121.392 131.545 120.835 130.744C120.288 129.934 120.015 129.06 120.015 128.122H122.725C122.773 129.03 123.135 129.753 123.809 130.29C124.492 130.817 125.391 131.081 126.504 131.081C127.529 131.081 128.35 130.876 128.965 130.466C129.59 130.046 129.902 129.489 129.902 128.796ZM140.566 125.661L138.867 127.434V133H136.157V110.5H138.867V124.108L140.317 122.365L145.254 117.15H148.55L142.383 123.771L149.268 133H146.089L140.566 125.661Z" fill="white"/>
</svg>
