<svg width="40" height="40" viewBox="0 0 40 40" fill="none" xmlns="http://www.w3.org/2000/svg">
<path d="M2.5 20C2.5 23.4612 3.52636 26.8446 5.44928 29.7225C7.37221 32.6003 10.1053 34.8434 13.303 36.1679C16.5007 37.4924 20.0194 37.839 23.4141 37.1637C26.8087 36.4885 29.9269 34.8218 32.3744 32.3744C34.8218 29.9269 36.4885 26.8087 37.1637 23.4141C37.839 20.0194 37.4924 16.5007 36.1679 13.303C34.8434 10.1053 32.6003 7.37221 29.7225 5.44928C26.8446 3.52636 23.4612 2.5 20 2.5C15.3587 2.5 10.9075 4.34374 7.62563 7.62563C4.34374 10.9075 2.5 15.3587 2.5 20ZM10 18.75H25.1875L18.2125 11.7412L20 10L30 20L20 30L18.2125 28.2162L25.1875 21.25H10V18.75Z" fill="#4B68B0"/>
</svg>
