<svg width="50" height="50" viewBox="0 0 50 50" fill="none" xmlns="http://www.w3.org/2000/svg">
<rect width="50" height="50" rx="5" fill="url(#paint0_linear)"/>
<path d="M24.3188 15.4604H25.856C25.6639 14.1113 25.6639 12.6981 25.856 11.349H24.3188C24.4469 12.7623 24.4469 14.1113 24.3188 15.4604Z" fill="white"/>
<path d="M19.5789 17.1948L20.9239 16.424C20.0913 15.3319 19.3867 14.1113 18.8743 12.8265L17.5293 13.5974C18.3619 14.6895 19.0665 15.91 19.5789 17.1948Z" fill="white"/>
<path d="M16.3124 20.985L17.081 19.636C15.8 19.122 14.6471 18.4154 13.4942 17.5803L12.7256 18.9293C14.0706 19.4432 15.2235 20.1499 16.3124 20.985Z" fill="white"/>
<path d="M15.4156 25.9315V24.3897C14.0705 24.5824 12.6614 24.5824 11.3164 24.3897V25.9315C12.7255 25.7388 14.0705 25.7388 15.4156 25.9315Z" fill="white"/>
<path d="M17.1454 30.6852L16.3768 29.3362C15.288 30.1713 14.071 30.8779 12.79 31.3919L13.5586 32.7409C14.6475 31.9058 15.8644 31.1991 17.1454 30.6852Z" fill="white"/>
<path d="M20.9239 33.8972L19.5789 33.1263C19.0665 34.4111 18.3619 35.5675 17.5293 36.7238L18.8743 37.4947C19.3867 36.2099 20.0913 35.0535 20.9239 33.8972Z" fill="white"/>
<path d="M25.856 34.7966H24.3188C24.511 36.1456 24.511 37.5589 24.3188 38.9079H25.856C25.6639 37.5589 25.6639 36.2098 25.856 34.7966Z" fill="white"/>
<path d="M30.5955 33.1263L29.2505 33.8972C30.0831 34.9893 30.7877 36.2099 31.3001 37.4947L32.6451 36.7238C31.8125 35.6317 31.1079 34.4111 30.5955 33.1263Z" fill="white"/>
<path d="M33.7979 29.3362L33.0293 30.6852C34.3103 31.1991 35.4632 31.9058 36.6161 32.7409L37.3847 31.3919C36.1037 30.8137 34.9508 30.1713 33.7979 29.3362Z" fill="white"/>
<path d="M34.6943 24.3897V25.9315C36.0394 25.7388 37.4485 25.7388 38.7935 25.9315V24.3897C37.4485 24.5182 36.1034 24.5182 34.6943 24.3897Z" fill="white"/>
<path d="M33.0293 19.636L33.7979 20.985C34.8867 20.1499 36.1037 19.4432 37.3847 18.9293L36.6161 17.5803C35.5272 18.4154 34.3103 19.122 33.0293 19.636Z" fill="white"/>
<path d="M29.2505 16.3597L30.5955 17.1306C31.1079 15.8458 31.8125 14.6895 32.6451 13.5332L31.3001 12.7623C30.7236 14.1113 30.0831 15.2677 29.2505 16.3597Z" fill="white"/>
<path d="M25.0873 36.1456C31.1361 36.1456 36.0397 31.2274 36.0397 25.1606C36.0397 19.0937 31.1361 14.1756 25.0873 14.1756C19.0384 14.1756 14.1348 19.0937 14.1348 25.1606C14.1348 31.2274 19.0384 36.1456 25.0873 36.1456Z" fill="white"/>
<path d="M36.0401 25.1606C36.0401 26.5096 35.7839 27.7302 35.3996 28.8865C35.1434 29.6574 34.7591 30.364 34.3748 31.0064C33.0298 33.1263 30.9802 34.7966 28.5463 35.5674C27.4575 35.8886 26.3046 36.0814 25.1517 36.0814C19.131 36.0814 14.1992 31.1991 14.1992 25.0964C14.1992 23.8758 14.3914 22.7837 14.7757 21.6916C15.5443 19.2505 17.2096 17.1949 19.3232 15.8458C19.9637 15.3961 20.6682 15.0749 21.4368 14.818C22.5897 14.3683 23.8707 14.1756 25.1517 14.1756C31.1083 14.1756 36.0401 19.1221 36.0401 25.1606Z" fill="white"/>
<path opacity="0.4" d="M29.0587 32.1627C29.0587 33.3833 28.8666 34.4754 28.5463 35.5675C27.4575 35.8887 26.3046 36.0814 25.1517 36.0814C19.131 36.0814 14.1992 31.1991 14.1992 25.0964C14.1992 23.8758 14.3914 22.7837 14.7757 21.6917C15.8645 21.3705 17.0174 21.1777 18.1703 21.1777C24.1269 21.1777 29.0587 26.1242 29.0587 32.1627Z" fill="white"/>
<path opacity="0.3" d="M36.0396 25.1606C36.0396 26.5096 35.7834 27.7302 35.3991 28.8865C35.1429 29.6574 34.7586 30.364 34.3743 31.0064C32.709 32.0985 30.6594 32.6767 28.5457 32.6767C22.5251 32.6767 17.5933 27.7944 17.5933 21.6916C17.5933 19.5075 18.2338 17.5161 19.2585 15.8458C19.899 15.3961 20.6036 15.0749 21.3722 14.818C22.5251 14.3683 23.8061 14.1756 25.0871 14.1756C31.1077 14.1756 36.0396 19.122 36.0396 25.1606Z" fill="white"/>
<path opacity="0.3" d="M26.7526 19.7002C27.2124 19.7002 27.5852 19.3263 27.5852 18.8651C27.5852 18.4039 27.2124 18.03 26.7526 18.03C26.2927 18.03 25.9199 18.4039 25.9199 18.8651C25.9199 19.3263 26.2927 19.7002 26.7526 19.7002Z" fill="white"/>
<path d="M32.9655 27.8587C33.4608 27.8587 33.8622 27.456 33.8622 26.9593C33.8622 26.4626 33.4608 26.06 32.9655 26.06C32.4703 26.06 32.0688 26.4626 32.0688 26.9593C32.0688 27.456 32.4703 27.8587 32.9655 27.8587Z" fill="white"/>
<path d="M17.7858 26.06C18.6702 26.06 19.3871 25.3409 19.3871 24.454C19.3871 23.567 18.6702 22.848 17.7858 22.848C16.9015 22.848 16.1846 23.567 16.1846 24.454C16.1846 25.3409 16.9015 26.06 17.7858 26.06Z" fill="white"/>
<path d="M27.3933 23.5546C28.1008 23.5546 28.6743 22.9794 28.6743 22.2698C28.6743 21.5602 28.1008 20.985 27.3933 20.985C26.6858 20.985 26.1123 21.5602 26.1123 22.2698C26.1123 22.9794 26.6858 23.5546 27.3933 23.5546Z" fill="white"/>
<path d="M29.6991 32.2912C30.0528 32.2912 30.3396 32.0036 30.3396 31.6488C30.3396 31.294 30.0528 31.0064 29.6991 31.0064C29.3454 31.0064 29.0586 31.294 29.0586 31.6488C29.0586 32.0036 29.3454 32.2912 29.6991 32.2912Z" fill="white"/>
<path opacity="0.3" d="M20.8599 20.9208C21.6734 20.9208 22.333 20.2593 22.333 19.4432C22.333 18.6272 21.6734 17.9657 20.8599 17.9657C20.0463 17.9657 19.3867 18.6272 19.3867 19.4432C19.3867 20.2593 20.0463 20.9208 20.8599 20.9208Z" fill="white"/>
<path d="M24.3831 17.3876C24.7014 17.3876 24.9595 17.1287 24.9595 16.8094C24.9595 16.4901 24.7014 16.2313 24.3831 16.2313C24.0647 16.2313 23.8066 16.4901 23.8066 16.8094C23.8066 17.1287 24.0647 17.3876 24.3831 17.3876Z" fill="white"/>
<path d="M32.0687 20.6638C32.4225 20.6638 32.7092 20.3762 32.7092 20.0214C32.7092 19.6666 32.4225 19.379 32.0687 19.379C31.715 19.379 31.4282 19.6666 31.4282 20.0214C31.4282 20.3762 31.715 20.6638 32.0687 20.6638Z" fill="white"/>
<path opacity="0.3" d="M22.4614 32.6124C23.275 32.6124 23.9346 31.9509 23.9346 31.1349C23.9346 30.3189 23.275 29.6574 22.4614 29.6574C21.6478 29.6574 20.9883 30.3189 20.9883 31.1349C20.9883 31.9509 21.6478 32.6124 22.4614 32.6124Z" fill="white"/>
<path opacity="0.3" d="M33.7338 22.9764C34.123 22.9764 34.4384 22.6601 34.4384 22.2698C34.4384 21.8795 34.123 21.5632 33.7338 21.5632C33.3447 21.5632 33.0293 21.8795 33.0293 22.2698C33.0293 22.6601 33.3447 22.9764 33.7338 22.9764Z" fill="white"/>
<path d="M25.0232 12.0557C26.332 12.0557 27.393 11.5955 27.393 11.0278C27.393 10.4602 26.332 10 25.0232 10C23.7143 10 22.6533 10.4602 22.6533 11.0278C22.6533 11.5955 23.7143 12.0557 25.0232 12.0557Z" fill="white"/>
<path d="M25.0233 11.606C25.8016 11.606 26.4324 11.3471 26.4324 11.0278C26.4324 10.7085 25.8016 10.4497 25.0233 10.4497C24.2451 10.4497 23.6143 10.7085 23.6143 11.0278C23.6143 11.3471 24.2451 11.606 25.0233 11.606Z" fill="white"/>
<path d="M25.0232 40C26.332 40 27.393 39.5398 27.393 38.9722C27.393 38.4045 26.332 37.9443 25.0232 37.9443C23.7143 37.9443 22.6533 38.4045 22.6533 38.9722C22.6533 39.5398 23.7143 40 25.0232 40Z" fill="white"/>
<path d="M25.0233 39.5503C25.8016 39.5503 26.4324 39.2915 26.4324 38.9722C26.4324 38.6529 25.8016 38.394 25.0233 38.394C24.2451 38.394 23.6143 38.6529 23.6143 38.9722C23.6143 39.2915 24.2451 39.5503 25.0233 39.5503Z" fill="white"/>
<path d="M34.0975 14.1566C34.3838 13.6669 33.7005 12.7316 32.5714 12.0676C31.4422 11.4037 30.2948 11.2624 30.0086 11.7521C29.7223 12.2418 30.4056 13.1771 31.5347 13.8411C32.6638 14.505 33.8112 14.6463 34.0975 14.1566Z" fill="white"/>
<path d="M33.2677 13.6683C33.4288 13.3928 33.0151 12.8495 32.3437 12.4547C31.6723 12.0599 30.9975 11.9631 30.8365 12.2386C30.6755 12.5141 31.0892 13.0574 31.7605 13.4522C32.4319 13.847 33.1067 13.9437 33.2677 13.6683Z" fill="white"/>
<path d="M20.0096 38.2549C20.2959 37.7652 19.6126 36.8299 18.4835 36.166C17.3544 35.502 16.207 35.3607 15.9207 35.8505C15.6344 36.3402 16.3177 37.2754 17.4468 37.9394C18.5759 38.6034 19.7233 38.7446 20.0096 38.2549Z" fill="white"/>
<path d="M19.1808 37.7672C19.3418 37.4917 18.9281 36.9484 18.2568 36.5536C17.5854 36.1588 16.9106 36.062 16.7496 36.3375C16.5885 36.613 17.0023 37.1563 17.6736 37.5511C18.345 37.9459 19.0198 38.0427 19.1808 37.7672Z" fill="white"/>
<path d="M38.3551 20.2816C38.849 20.0043 38.7311 18.851 38.0919 17.7055C37.4527 16.5601 36.5341 15.8562 36.0402 16.1335C35.5464 16.4107 35.6642 17.5641 36.3034 18.7095C36.9427 19.855 37.8612 20.5588 38.3551 20.2816Z" fill="white"/>
<path d="M37.8853 19.4388C38.1631 19.2829 38.0802 18.6043 37.7001 17.9232C37.32 17.2421 36.7867 16.8164 36.5089 16.9724C36.2311 17.1283 36.314 17.8069 36.6941 18.488C37.0741 19.1691 37.6075 19.5948 37.8853 19.4388Z" fill="white"/>
<path d="M14.0118 33.9224C14.5057 33.6452 14.3879 32.4918 13.7486 31.3464C13.1094 30.2009 12.1908 29.4971 11.697 29.7743C11.2031 30.0515 11.3209 31.2049 11.9602 32.3503C12.5994 33.4958 13.5179 34.1997 14.0118 33.9224Z" fill="white"/>
<path d="M13.542 33.0793C13.8198 32.9234 13.7369 32.2448 13.3568 31.5637C12.9767 30.8826 12.4434 30.4569 12.1656 30.6129C11.8878 30.7688 11.9707 31.4474 12.3508 32.1285C12.7309 32.8096 13.2642 33.2353 13.542 33.0793Z" fill="white"/>
<path d="M39.9526 25.3364C39.9788 24.0239 39.5413 22.9508 38.9755 22.9394C38.4096 22.928 37.9296 23.9828 37.9034 25.2952C37.8772 26.6077 38.3147 27.6808 38.8805 27.6922C39.4464 27.7036 39.9264 26.6488 39.9526 25.3364Z" fill="white"/>
<path d="M39.5041 25.3274C39.5197 24.547 39.2743 23.9092 38.956 23.9028C38.6377 23.8964 38.367 24.5239 38.3515 25.3043C38.3359 26.0846 38.5813 26.7224 38.8996 26.7288C39.2179 26.7352 39.4885 26.1078 39.5041 25.3274Z" fill="white"/>
<path d="M12.0966 24.7363C12.1228 23.4238 11.6854 22.3506 11.1195 22.3393C10.5536 22.3279 10.0737 23.3826 10.0475 24.6951C10.0212 26.0075 10.4587 27.0807 11.0246 27.0921C11.5905 27.1034 12.0704 26.0487 12.0966 24.7363Z" fill="white"/>
<path d="M11.6482 24.7272C11.6638 23.9468 11.4184 23.309 11.1001 23.3026C10.7818 23.2962 10.5111 23.9236 10.4955 24.704C10.4799 25.4844 10.7253 26.1222 11.0436 26.1286C11.3619 26.135 11.6326 25.5075 11.6482 24.7272Z" fill="white"/>
<path d="M38.0157 32.4446C38.666 31.3053 38.7949 30.1531 38.3037 29.8711C37.8124 29.5891 36.8871 30.284 36.2369 31.4233C35.5867 32.5627 35.4578 33.7149 35.949 33.9969C36.4402 34.2789 37.3655 33.5839 38.0157 32.4446Z" fill="white"/>
<path d="M37.6254 32.2197C38.0121 31.5422 38.1015 30.8645 37.8252 30.7059C37.5489 30.5472 37.0115 30.9678 36.6248 31.6452C36.2382 32.3226 36.1488 33.0004 36.4251 33.159C36.7014 33.3177 37.2388 32.8971 37.6254 32.2197Z" fill="white"/>
<path d="M13.8263 18.6107C14.4765 17.4714 14.6054 16.3192 14.1142 16.0371C13.623 15.7551 12.6977 16.4501 12.0475 17.5894C11.3972 18.7287 11.2683 19.8809 11.7595 20.1629C12.2507 20.4449 13.1761 19.75 13.8263 18.6107Z" fill="white"/>
<path d="M13.4374 18.3875C13.8241 17.7101 13.9135 17.0323 13.6372 16.8737C13.3609 16.7151 12.8235 17.1356 12.4369 17.8131C12.0502 18.4905 11.9608 19.1682 12.2371 19.3269C12.5134 19.4855 13.0508 19.0649 13.4374 18.3875Z" fill="white"/>
<path d="M32.5889 37.9338C33.7169 37.2679 34.3985 36.3315 34.1114 35.8423C33.8242 35.353 32.6771 35.4963 31.5492 36.1623C30.4212 36.8282 29.7396 37.7646 30.0267 38.2538C30.3138 38.743 31.461 38.5998 32.5889 37.9338Z" fill="white"/>
<path d="M32.3617 37.5469C33.0324 37.1509 33.4451 36.6068 33.2836 36.3316C33.1221 36.0565 32.4475 36.1544 31.7769 36.5503C31.1062 36.9463 30.6934 37.4904 30.8549 37.7656C31.0164 38.0407 31.691 37.9428 32.3617 37.5469Z" fill="white"/>
<path d="M18.4779 13.8409C19.6058 13.1751 20.2875 12.2388 20.0004 11.7495C19.7134 11.2603 18.5663 11.4035 17.4383 12.0693C16.3104 12.7351 15.6287 13.6714 15.9158 14.1606C16.2028 14.6499 17.3499 14.5067 18.4779 13.8409Z" fill="white"/>
<path d="M18.2523 13.4414C18.923 13.0454 19.3358 12.5014 19.1743 12.2262C19.0128 11.951 18.3381 12.0489 17.6675 12.4449C16.9968 12.8409 16.5841 13.3849 16.7456 13.6601C16.9071 13.9353 17.5817 13.8374 18.2523 13.4414Z" fill="white"/>
<defs>
<linearGradient id="paint0_linear" x1="58.0508" y1="58.8235" x2="-14.5175" y2="50.3773" gradientUnits="userSpaceOnUse">
<stop stop-color="#4B68B0"/>
<stop offset="0.9998" stop-color="#71ACF0" stop-opacity="0.972816"/>
</linearGradient>
</defs>
</svg>
