<svg width="40" height="40" viewBox="0 0 40 40" fill="none" xmlns="http://www.w3.org/2000/svg">
<path d="M37.5 20C37.5 23.4612 36.4736 26.8446 34.5507 29.7225C32.6278 32.6003 29.8947 34.8434 26.697 36.1679C23.4993 37.4924 19.9806 37.839 16.5859 37.1637C13.1913 36.4885 10.0731 34.8218 7.62563 32.3744C5.17822 29.9269 3.5115 26.8087 2.83626 23.4141C2.16102 20.0194 2.50758 16.5007 3.83211 13.303C5.15664 10.1053 7.39966 7.37221 10.2775 5.44928C13.1554 3.52636 16.5388 2.5 20 2.5C24.6413 2.5 29.0925 4.34374 32.3744 7.62563C35.6563 10.9075 37.5 15.3587 37.5 20ZM30 18.75H14.8125L21.7875 11.7412L20 10L10 20L20 30L21.7875 28.2162L14.8125 21.25H30V18.75Z" fill="#4B68B0"/>
</svg>
