<svg width="204" height="145" viewBox="0 0 204 145" fill="none" xmlns="http://www.w3.org/2000/svg">
<path d="M91.4816 8.04775L87.1092 12.4202L82.0308 7.33895L86.2545 3.11526L83.1422 0L66.3262 16.816L69.4385 19.9283L73.6622 15.7046L78.7435 20.7859L74.371 25.1583L112.174 62.9615L127.923 63.3232L134.599 70L137.674 69.6675L129.629 61.6226L129.267 45.8742L91.4816 8.04775ZM91.4816 13.0298L110.687 32.2348L98.5872 44.3341L93.6985 39.4512L99.7656 33.384L97.1987 30.8172L91.1316 36.8843L86.6104 32.3631L92.6775 26.2959L90.1107 23.7291L84.0435 29.7962L79.3939 25.1467L91.4816 13.0298Z" fill="white"/>
<path d="M18.2227 130.202C17.5 131.237 16.4893 132.014 15.1904 132.531C13.9014 133.039 12.3975 133.293 10.6787 133.293C8.94043 133.293 7.39746 132.888 6.0498 132.077C4.70215 131.257 3.65723 130.095 2.91504 128.591C2.18262 127.087 1.80664 125.344 1.78711 123.361V121.501C1.78711 118.288 2.53418 115.798 4.02832 114.03C5.53223 112.263 7.6416 111.379 10.3564 111.379C12.583 111.379 14.375 111.95 15.7324 113.093C17.0898 114.226 17.9199 115.837 18.2227 117.927H15.4102C14.8828 115.104 13.2031 113.693 10.3711 113.693C8.48633 113.693 7.05566 114.357 6.0791 115.686C5.1123 117.004 4.62402 118.918 4.61426 121.428V123.171C4.61426 125.563 5.16113 127.468 6.25488 128.884C7.34863 130.29 8.82812 130.993 10.6934 130.993C11.748 130.993 12.6709 130.876 13.4619 130.642C14.2529 130.407 14.9072 130.012 15.4248 129.455V124.665H10.4883V122.38H18.2227V130.202ZM29.0771 133.293C26.9287 133.293 25.1807 132.59 23.833 131.184C22.4854 129.768 21.8115 127.878 21.8115 125.515V125.017C21.8115 123.444 22.1094 122.043 22.7051 120.812C23.3105 119.572 24.1504 118.605 25.2246 117.912C26.3086 117.209 27.4805 116.857 28.7402 116.857C30.8008 116.857 32.4023 117.536 33.5449 118.894C34.6875 120.251 35.2588 122.194 35.2588 124.724V125.852H24.5215C24.5605 127.414 25.0146 128.679 25.8838 129.646C26.7627 130.603 27.876 131.081 29.2236 131.081C30.1807 131.081 30.9912 130.886 31.6553 130.495C32.3193 130.104 32.9004 129.587 33.3984 128.942L35.0537 130.231C33.7256 132.272 31.7334 133.293 29.0771 133.293ZM28.7402 119.084C27.6465 119.084 26.7285 119.484 25.9863 120.285C25.2441 121.076 24.7852 122.189 24.6094 123.625H32.5488V123.42C32.4707 122.043 32.0996 120.979 31.4355 120.227C30.7715 119.465 29.873 119.084 28.7402 119.084ZM42.085 113.312V117.15H45.0439V119.245H42.085V129.074C42.085 129.709 42.2168 130.188 42.4805 130.51C42.7441 130.822 43.1934 130.979 43.8281 130.979C44.1406 130.979 44.5703 130.92 45.1172 130.803V133C44.4043 133.195 43.7109 133.293 43.0371 133.293C41.8262 133.293 40.9131 132.927 40.2979 132.194C39.6826 131.462 39.375 130.422 39.375 129.074V119.245H36.4893V117.15H39.375V113.312H42.085ZM63.1494 129.265L69.2432 111.672H72.3193L64.4092 133H61.9189L54.0234 111.672H57.085L63.1494 129.265ZM83.877 133C83.7207 132.688 83.5938 132.131 83.4961 131.33C82.2363 132.639 80.7324 133.293 78.9844 133.293C77.4219 133.293 76.1377 132.854 75.1318 131.975C74.1357 131.086 73.6377 129.963 73.6377 128.605C73.6377 126.955 74.2627 125.676 75.5127 124.768C76.7725 123.85 78.54 123.391 80.8154 123.391H83.4521V122.146C83.4521 121.198 83.1689 120.446 82.6025 119.89C82.0361 119.323 81.2012 119.04 80.0977 119.04C79.1309 119.04 78.3203 119.284 77.666 119.772C77.0117 120.261 76.6846 120.852 76.6846 121.545H73.96C73.96 120.754 74.2383 119.992 74.7949 119.26C75.3613 118.518 76.123 117.932 77.0801 117.502C78.0469 117.072 79.1064 116.857 80.2588 116.857C82.085 116.857 83.5156 117.316 84.5508 118.234C85.5859 119.143 86.123 120.397 86.1621 121.999V129.294C86.1621 130.749 86.3477 131.906 86.7188 132.766V133H83.877ZM79.3799 130.935C80.2295 130.935 81.0352 130.715 81.7969 130.275C82.5586 129.836 83.1104 129.265 83.4521 128.562V125.31H81.3281C78.0078 125.31 76.3477 126.281 76.3477 128.225C76.3477 129.074 76.6309 129.738 77.1973 130.217C77.7637 130.695 78.4912 130.935 79.3799 130.935ZM96.7676 131.081C97.7344 131.081 98.5791 130.788 99.3018 130.202C100.024 129.616 100.425 128.884 100.503 128.005H103.066C103.018 128.913 102.705 129.777 102.129 130.598C101.553 131.418 100.781 132.072 99.8145 132.561C98.8574 133.049 97.8418 133.293 96.7676 133.293C94.6094 133.293 92.8906 132.575 91.6113 131.14C90.3418 129.694 89.707 127.722 89.707 125.222V124.768C89.707 123.225 89.9902 121.853 90.5566 120.651C91.123 119.45 91.9336 118.518 92.9883 117.854C94.0527 117.189 95.3076 116.857 96.7529 116.857C98.5303 116.857 100.005 117.39 101.177 118.454C102.358 119.519 102.988 120.9 103.066 122.6H100.503C100.425 121.574 100.034 120.734 99.3311 120.08C98.6377 119.416 97.7783 119.084 96.7529 119.084C95.376 119.084 94.3066 119.582 93.5449 120.578C92.793 121.564 92.417 122.995 92.417 124.87V125.383C92.417 127.209 92.793 128.615 93.5449 129.602C94.2969 130.588 95.3711 131.081 96.7676 131.081ZM109.058 133H106.348V117.15H109.058V133ZM106.128 112.946C106.128 112.507 106.26 112.136 106.523 111.833C106.797 111.53 107.197 111.379 107.725 111.379C108.252 111.379 108.652 111.53 108.926 111.833C109.199 112.136 109.336 112.507 109.336 112.946C109.336 113.386 109.199 113.752 108.926 114.045C108.652 114.338 108.252 114.484 107.725 114.484C107.197 114.484 106.797 114.338 106.523 114.045C106.26 113.752 106.128 113.386 106.128 112.946ZM115.972 117.15L116.06 119.143C117.271 117.619 118.853 116.857 120.806 116.857C124.155 116.857 125.845 118.747 125.874 122.526V133H123.164V122.512C123.154 121.369 122.891 120.524 122.373 119.978C121.865 119.431 121.069 119.157 119.985 119.157C119.106 119.157 118.335 119.392 117.671 119.86C117.007 120.329 116.489 120.944 116.118 121.706V133H113.408V117.15H115.972ZM132.524 117.15L132.612 119.143C133.823 117.619 135.405 116.857 137.358 116.857C140.708 116.857 142.397 118.747 142.427 122.526V133H139.717V122.512C139.707 121.369 139.443 120.524 138.926 119.978C138.418 119.431 137.622 119.157 136.538 119.157C135.659 119.157 134.888 119.392 134.224 119.86C133.56 120.329 133.042 120.944 132.671 121.706V133H129.961V117.15H132.524ZM156.299 133C156.143 132.688 156.016 132.131 155.918 131.33C154.658 132.639 153.154 133.293 151.406 133.293C149.844 133.293 148.56 132.854 147.554 131.975C146.558 131.086 146.06 129.963 146.06 128.605C146.06 126.955 146.685 125.676 147.935 124.768C149.194 123.85 150.962 123.391 153.237 123.391H155.874V122.146C155.874 121.198 155.591 120.446 155.024 119.89C154.458 119.323 153.623 119.04 152.52 119.04C151.553 119.04 150.742 119.284 150.088 119.772C149.434 120.261 149.106 120.852 149.106 121.545H146.382C146.382 120.754 146.66 119.992 147.217 119.26C147.783 118.518 148.545 117.932 149.502 117.502C150.469 117.072 151.528 116.857 152.681 116.857C154.507 116.857 155.938 117.316 156.973 118.234C158.008 119.143 158.545 120.397 158.584 121.999V129.294C158.584 130.749 158.77 131.906 159.141 132.766V133H156.299ZM151.802 130.935C152.651 130.935 153.457 130.715 154.219 130.275C154.98 129.836 155.532 129.265 155.874 128.562V125.31H153.75C150.43 125.31 148.77 126.281 148.77 128.225C148.77 129.074 149.053 129.738 149.619 130.217C150.186 130.695 150.913 130.935 151.802 130.935ZM166.509 113.312V117.15H169.468V119.245H166.509V129.074C166.509 129.709 166.641 130.188 166.904 130.51C167.168 130.822 167.617 130.979 168.252 130.979C168.564 130.979 168.994 130.92 169.541 130.803V133C168.828 133.195 168.135 133.293 167.461 133.293C166.25 133.293 165.337 132.927 164.722 132.194C164.106 131.462 163.799 130.422 163.799 129.074V119.245H160.913V117.15H163.799V113.312H166.509ZM179.224 133.293C177.075 133.293 175.327 132.59 173.979 131.184C172.632 129.768 171.958 127.878 171.958 125.515V125.017C171.958 123.444 172.256 122.043 172.852 120.812C173.457 119.572 174.297 118.605 175.371 117.912C176.455 117.209 177.627 116.857 178.887 116.857C180.947 116.857 182.549 117.536 183.691 118.894C184.834 120.251 185.405 122.194 185.405 124.724V125.852H174.668C174.707 127.414 175.161 128.679 176.03 129.646C176.909 130.603 178.022 131.081 179.37 131.081C180.327 131.081 181.138 130.886 181.802 130.495C182.466 130.104 183.047 129.587 183.545 128.942L185.2 130.231C183.872 132.272 181.88 133.293 179.224 133.293ZM178.887 119.084C177.793 119.084 176.875 119.484 176.133 120.285C175.391 121.076 174.932 122.189 174.756 123.625H182.695V123.42C182.617 122.043 182.246 120.979 181.582 120.227C180.918 119.465 180.02 119.084 178.887 119.084ZM187.896 124.943C187.896 122.512 188.472 120.559 189.624 119.084C190.776 117.6 192.285 116.857 194.15 116.857C196.006 116.857 197.476 117.492 198.56 118.762V110.5H201.27V133H198.779L198.647 131.301C197.563 132.629 196.055 133.293 194.121 133.293C192.285 133.293 190.786 132.541 189.624 131.037C188.472 129.533 187.896 127.57 187.896 125.148V124.943ZM190.605 125.251C190.605 127.048 190.977 128.454 191.719 129.47C192.461 130.485 193.486 130.993 194.795 130.993C196.514 130.993 197.769 130.222 198.56 128.679V121.398C197.749 119.904 196.504 119.157 194.824 119.157C193.496 119.157 192.461 119.67 191.719 120.695C190.977 121.721 190.605 123.239 190.605 125.251Z" fill="white"/>
</svg>
