<svg width="212" height="16" viewBox="0 0 212 16" fill="none" xmlns="http://www.w3.org/2000/svg">
<path d="M1 7C0.447715 7 0 7.44772 0 8C0 8.55228 0.447715 9 1 9V7ZM211.707 8.70711C212.098 8.31658 212.098 7.68342 211.707 7.29289L205.343 0.928932C204.953 0.538408 204.319 0.538408 203.929 0.928932C203.538 1.31946 203.538 1.95262 203.929 2.34315L209.586 8L203.929 13.6569C203.538 14.0474 203.538 14.6805 203.929 15.0711C204.319 15.4616 204.953 15.4616 205.343 15.0711L211.707 8.70711ZM1 9H211V7H1V9Z" fill="#71ACF0"/>
</svg>
