<svg width="80" height="80" viewBox="0 0 80 80" fill="none" xmlns="http://www.w3.org/2000/svg">
<g filter="url(#filter0_d)">
<circle cx="40" cy="36" r="36" fill="#FF6C6C"/>
<path d="M38.3906 22.0008H40.5367C40.2685 20.123 40.2685 18.1557 40.5367 16.2778H38.3906C38.5695 18.2451 38.5695 20.123 38.3906 22.0008Z" fill="white"/>
<path d="M31.7736 24.4152L33.6515 23.3421C32.489 21.8219 31.5053 20.1229 30.79 18.3345L28.9121 19.4075C30.0746 20.9277 31.0582 22.6267 31.7736 24.4152Z" fill="white"/>
<path d="M27.213 29.6913L28.286 27.8134C26.4976 27.098 24.888 26.1144 23.2784 24.9519L22.2053 26.8298C24.0832 27.5451 25.6928 28.5288 27.213 29.6913Z" fill="white"/>
<path d="M25.961 36.5765V34.4304C24.0832 34.6987 22.1159 34.6987 20.238 34.4304V36.5765C22.2053 36.3083 24.0832 36.3083 25.961 36.5765Z" fill="white"/>
<path d="M28.3756 43.1938L27.3025 41.3159C25.7824 42.4784 24.0834 43.462 22.2949 44.1774L23.368 46.0553C24.8882 44.8928 26.5872 43.9091 28.3756 43.1938Z" fill="white"/>
<path d="M33.6515 47.6649L31.7736 46.5918C31.0582 48.3802 30.0746 49.9898 28.9121 51.5994L30.79 52.6725C31.5053 50.884 32.489 49.2745 33.6515 47.6649Z" fill="white"/>
<path d="M40.5367 48.9167H38.3906C38.6589 50.7946 38.6589 52.7619 38.3906 54.6397H40.5367C40.2685 52.7619 40.2685 50.884 40.5367 48.9167Z" fill="white"/>
<path d="M47.154 46.5918L45.2761 47.6649C46.4386 49.185 47.4222 50.884 48.1376 52.6725L50.0155 51.5994C48.853 50.0792 47.8694 48.3802 47.154 46.5918Z" fill="white"/>
<path d="M51.6253 41.3159L50.5522 43.1938C52.3407 43.9091 53.9503 44.8928 55.5599 46.0553L56.6329 44.1774C54.8445 43.3726 53.2349 42.4784 51.6253 41.3159Z" fill="white"/>
<path d="M52.877 34.4304V36.5765C54.7548 36.3083 56.7221 36.3083 58.5999 36.5765V34.4304C56.7221 34.6093 54.8442 34.6093 52.877 34.4304Z" fill="white"/>
<path d="M50.5522 27.8134L51.6253 29.6913C53.1455 28.5288 54.8445 27.5451 56.6329 26.8298L55.5599 24.9519C54.0397 26.1144 52.3407 27.098 50.5522 27.8134Z" fill="white"/>
<path d="M45.2761 23.2527L47.154 24.3258C47.8694 22.5374 48.853 20.9278 50.0155 19.3182L48.1376 18.2451C47.3328 20.123 46.4386 21.7326 45.2761 23.2527Z" fill="white"/>
<path d="M39.4637 50.7947C47.9088 50.7947 54.7549 43.9486 54.7549 35.5035C54.7549 27.0585 47.9088 20.2124 39.4637 20.2124C31.0187 20.2124 24.1726 27.0585 24.1726 35.5035C24.1726 43.9486 31.0187 50.7947 39.4637 50.7947Z" fill="white"/>
<path d="M54.7551 35.5035C54.7551 37.3814 54.3974 39.0804 53.8608 40.69C53.5032 41.7631 52.9666 42.7467 52.4301 43.6409C50.5522 46.5918 47.6907 48.9168 44.2927 49.9899C42.7725 50.437 41.1629 50.7052 39.5533 50.7052C31.1477 50.7052 24.2622 43.9092 24.2622 35.4141C24.2622 33.7151 24.5305 32.1949 25.067 30.6748C26.1401 27.2767 28.465 24.4152 31.416 22.5374C32.3102 21.9114 33.2938 21.4643 34.3669 21.1066C35.9765 20.4807 37.7649 20.2124 39.5533 20.2124C47.8696 20.2124 54.7551 27.0979 54.7551 35.5035Z" fill="white"/>
<path opacity="0.4" d="M45.0081 45.2506C45.0081 46.9496 44.7398 48.4698 44.2927 49.99C42.7725 50.4371 41.1629 50.7053 39.5533 50.7053C31.1477 50.7053 24.2622 43.9093 24.2622 35.4142C24.2622 33.7152 24.5305 32.195 25.067 30.6748C26.5872 30.2277 28.1968 29.9595 29.8064 29.9595C38.1226 29.9595 45.0081 36.845 45.0081 45.2506Z" fill="#F5F9FF"/>
<path opacity="0.3" d="M54.755 35.5035C54.755 37.3814 54.3973 39.0804 53.8607 40.69C53.503 41.7631 52.9665 42.7467 52.43 43.6409C50.105 45.1611 47.2435 45.9659 44.2926 45.9659C35.8869 45.9659 29.0015 39.1698 29.0015 30.6748C29.0015 27.6344 29.8957 24.8623 31.3264 22.5374C32.2206 21.9114 33.2043 21.4643 34.2773 21.1066C35.8869 20.4807 37.6754 20.2124 39.4638 20.2124C47.8695 20.2124 54.755 27.0979 54.755 35.5035Z" fill="white"/>
<path opacity="0.3" d="M41.7887 27.9026C42.4307 27.9026 42.9512 27.3821 42.9512 26.7401C42.9512 26.0981 42.4307 25.5776 41.7887 25.5776C41.1467 25.5776 40.6262 26.0981 40.6262 26.7401C40.6262 27.3821 41.1467 27.9026 41.7887 27.9026Z" fill="white"/>
<path d="M50.4626 39.2592C51.154 39.2592 51.7145 38.6987 51.7145 38.0073C51.7145 37.3159 51.154 36.7554 50.4626 36.7554C49.7712 36.7554 49.2107 37.3159 49.2107 38.0073C49.2107 38.6987 49.7712 39.2592 50.4626 39.2592Z" fill="#F5F9FF"/>
<path d="M29.2697 36.7555C30.5044 36.7555 31.5053 35.7546 31.5053 34.52C31.5053 33.2853 30.5044 32.2844 29.2697 32.2844C28.0351 32.2844 27.0342 33.2853 27.0342 34.52C27.0342 35.7546 28.0351 36.7555 29.2697 36.7555Z" fill="#F5F9FF"/>
<path d="M42.683 33.268C43.6707 33.268 44.4714 32.4673 44.4714 31.4796C44.4714 30.4919 43.6707 29.6912 42.683 29.6912C41.6952 29.6912 40.8945 30.4919 40.8945 31.4796C40.8945 32.4673 41.6952 33.268 42.683 33.268Z" fill="#F5F9FF"/>
<path d="M45.902 45.4293C46.3959 45.4293 46.7962 45.029 46.7962 44.5351C46.7962 44.0412 46.3959 43.6409 45.902 43.6409C45.4082 43.6409 45.0078 44.0412 45.0078 44.5351C45.0078 45.029 45.4082 45.4293 45.902 45.4293Z" fill="#F5F9FF"/>
<path opacity="0.3" d="M33.5621 29.6017C34.6979 29.6017 35.6188 28.6809 35.6188 27.545C35.6188 26.4091 34.6979 25.4883 33.5621 25.4883C32.4262 25.4883 31.5054 26.4091 31.5054 27.545C31.5054 28.6809 32.4262 29.6017 33.5621 29.6017Z" fill="white"/>
<path d="M38.4801 24.6836C38.9246 24.6836 39.2849 24.3232 39.2849 23.8788C39.2849 23.4343 38.9246 23.074 38.4801 23.074C38.0356 23.074 37.6753 23.4343 37.6753 23.8788C37.6753 24.3232 38.0356 24.6836 38.4801 24.6836Z" fill="#F5F9FF"/>
<path d="M49.2106 29.244C49.7045 29.244 50.1048 28.8436 50.1048 28.3498C50.1048 27.8559 49.7045 27.4556 49.2106 27.4556C48.7168 27.4556 48.3164 27.8559 48.3164 28.3498C48.3164 28.8436 48.7168 29.244 49.2106 29.244Z" fill="#F5F9FF"/>
<path opacity="0.3" d="M35.7974 45.8766C36.9333 45.8766 37.8541 44.9558 37.8541 43.8199C37.8541 42.684 36.9333 41.7632 35.7974 41.7632C34.6615 41.7632 33.7407 42.684 33.7407 43.8199C33.7407 44.9558 34.6615 45.8766 35.7974 45.8766Z" fill="white"/>
<path opacity="0.3" d="M51.5359 32.4631C52.0791 32.4631 52.5195 32.0227 52.5195 31.4795C52.5195 30.9362 52.0791 30.4958 51.5359 30.4958C50.9926 30.4958 50.5522 30.9362 50.5522 31.4795C50.5522 32.0227 50.9926 32.4631 51.5359 32.4631Z" fill="white"/>
<path d="M39.3743 17.2614C41.2016 17.2614 42.6829 16.6208 42.6829 15.8307C42.6829 15.0405 41.2016 14.3999 39.3743 14.3999C37.547 14.3999 36.0657 15.0405 36.0657 15.8307C36.0657 16.6208 37.547 17.2614 39.3743 17.2614Z" fill="#F5F9FF"/>
<path d="M39.3743 16.6355C40.4608 16.6355 41.3416 16.2752 41.3416 15.8307C41.3416 15.3862 40.4608 15.0259 39.3743 15.0259C38.2878 15.0259 37.407 15.3862 37.407 15.8307C37.407 16.2752 38.2878 16.6355 39.3743 16.6355Z" fill="#F5F9FF"/>
<path d="M39.3743 56.1601C41.2016 56.1601 42.6829 55.5195 42.6829 54.7293C42.6829 53.9392 41.2016 53.2986 39.3743 53.2986C37.547 53.2986 36.0657 53.9392 36.0657 54.7293C36.0657 55.5195 37.547 56.1601 39.3743 56.1601Z" fill="#F5F9FF"/>
<path d="M39.3743 55.5341C40.4608 55.5341 41.3416 55.1738 41.3416 54.7294C41.3416 54.2849 40.4608 53.9246 39.3743 53.9246C38.2878 53.9246 37.407 54.2849 37.407 54.7294C37.407 55.1738 38.2878 55.5341 39.3743 55.5341Z" fill="#F5F9FF"/>
<path d="M52.0436 20.1861C52.4433 19.5044 51.4894 18.2025 49.913 17.2783C48.3366 16.354 46.7347 16.1574 46.335 16.8391C45.9353 17.5208 46.8893 18.8226 48.4657 19.7469C50.0421 20.6711 51.644 20.8678 52.0436 20.1861Z" fill="#F5F9FF"/>
<path d="M50.8849 19.5061C51.1097 19.1227 50.5321 18.3663 49.5948 17.8168C48.6575 17.2672 47.7154 17.1326 47.4906 17.516C47.2657 17.8995 47.8434 18.6558 48.7807 19.2054C49.718 19.7549 50.6601 19.8896 50.8849 19.5061Z" fill="#F5F9FF"/>
<path d="M32.3751 53.7309C32.7748 53.0492 31.8208 51.7473 30.2444 50.8231C28.668 49.8989 27.066 49.7023 26.6663 50.384C26.2666 51.0657 27.2206 52.3675 28.797 53.2917C30.3734 54.2159 31.9754 54.4125 32.3751 53.7309Z" fill="#F5F9FF"/>
<path d="M31.2174 53.052C31.4423 52.6686 30.8647 51.9122 29.9273 51.3627C28.99 50.8131 28.0479 50.6785 27.8231 51.0619C27.5983 51.4454 28.1759 52.2017 29.1132 52.7513C30.0505 53.3008 30.9926 53.4355 31.2174 53.052Z" fill="#F5F9FF"/>
<path d="M57.9875 28.7119C58.677 28.3259 58.5125 26.7205 57.62 25.126C56.7275 23.5315 55.4451 22.5518 54.7556 22.9377C54.066 23.3236 54.2306 24.9291 55.123 26.5235C56.0155 28.118 57.298 29.0978 57.9875 28.7119Z" fill="#F5F9FF"/>
<path d="M57.3314 27.5388C57.7192 27.3217 57.6035 26.3771 57.0729 25.4291C56.5422 24.481 55.7976 23.8884 55.4098 24.1055C55.0219 24.3226 55.1377 25.2671 55.6683 26.2152C56.199 27.1633 56.9435 27.7559 57.3314 27.5388Z" fill="#F5F9FF"/>
<path d="M24.0014 47.6999C24.6909 47.314 24.5264 45.7085 23.6339 44.1141C22.7415 42.5196 21.459 41.5398 20.7695 41.9258C20.08 42.3117 20.2445 43.9171 21.137 45.5116C22.0294 47.1061 23.3119 48.0858 24.0014 47.6999Z" fill="#F5F9FF"/>
<path d="M23.3456 46.5263C23.7334 46.3092 23.6177 45.3647 23.087 44.4166C22.5564 43.4685 21.8118 42.8759 21.4239 43.093C21.0361 43.3101 21.1518 44.2547 21.6825 45.2027C22.2131 46.1508 22.9577 46.7434 23.3456 46.5263Z" fill="#F5F9FF"/>
<path d="M60.2177 35.7481C60.2543 33.9212 59.6435 32.4273 58.8535 32.4115C58.0635 32.3957 57.3934 33.8639 57.3568 35.6908C57.3202 37.5178 57.931 39.0116 58.721 39.0274C59.511 39.0432 60.1811 37.575 60.2177 35.7481Z" fill="#F5F9FF"/>
<path d="M59.5918 35.7357C59.6135 34.6495 59.2709 33.7616 58.8265 33.7527C58.3821 33.7438 58.0043 34.6172 57.9825 35.7035C57.9608 36.7898 58.3034 37.6776 58.7478 37.6865C59.1921 37.6954 59.57 36.822 59.5918 35.7357Z" fill="#F5F9FF"/>
<path d="M21.3271 34.9127C21.3637 33.0858 20.7529 31.5919 19.9629 31.5761C19.1728 31.5603 18.5027 33.0285 18.4662 34.8554C18.4296 36.6823 19.0403 38.1762 19.8304 38.192C20.6204 38.2078 21.2905 36.7396 21.3271 34.9127Z" fill="#F5F9FF"/>
<path d="M20.7012 34.9003C20.7229 33.814 20.3803 32.9262 19.9359 32.9173C19.4915 32.9084 19.1136 33.7818 19.0919 34.8681C19.0701 35.9544 19.4127 36.8422 19.8571 36.8511C20.3015 36.86 20.6794 35.9866 20.7012 34.9003Z" fill="#F5F9FF"/>
<path d="M57.5142 45.6429C58.4221 44.057 58.602 42.4532 57.9162 42.0606C57.2304 41.6681 55.9385 42.6355 55.0307 44.2214C54.1229 45.8073 53.9429 47.4111 54.6287 47.8037C55.3145 48.1962 56.6064 47.2288 57.5142 45.6429Z" fill="#F5F9FF"/>
<path d="M56.9689 45.3298C57.5086 44.3868 57.6335 43.4434 57.2477 43.2226C56.862 43.0018 56.1117 43.5872 55.5719 44.5302C55.0321 45.4731 54.9072 46.4165 55.293 46.6374C55.6787 46.8582 56.4291 46.2727 56.9689 45.3298Z" fill="#F5F9FF"/>
<path d="M23.742 26.3861C24.6498 24.8002 24.8298 23.1964 24.144 22.8038C23.4582 22.4113 22.1663 23.3786 21.2585 24.9645C20.3507 26.5504 20.1707 28.1543 20.8565 28.5468C21.5423 28.9394 22.8342 27.972 23.742 26.3861Z" fill="#F5F9FF"/>
<path d="M23.1989 26.0755C23.7387 25.1325 23.8635 24.1891 23.4777 23.9682C23.092 23.7474 22.3417 24.3328 21.802 25.2758C21.2622 26.2188 21.1374 27.1623 21.5232 27.3831C21.9089 27.604 22.6592 27.0185 23.1989 26.0755Z" fill="#F5F9FF"/>
<path d="M49.937 53.2839C51.5118 52.3569 52.4634 51.0534 52.0626 50.3724C51.6617 49.6914 50.0601 49.8909 48.4854 50.8179C46.9106 51.7449 45.959 53.0484 46.3598 53.7294C46.7607 54.4103 48.3623 54.2109 49.937 53.2839Z" fill="#F5F9FF"/>
<path d="M49.6197 52.7452C50.556 52.1941 51.1323 51.4367 50.9068 51.0537C50.6813 50.6706 49.7394 50.8069 48.8031 51.3581C47.8667 51.9093 47.2905 52.6666 47.5159 53.0496C47.7414 53.4327 48.6833 53.2964 49.6197 52.7452Z" fill="#F5F9FF"/>
<path d="M30.2363 19.7464C31.8111 18.8196 32.7628 17.5162 32.362 16.8353C31.9612 16.1543 30.3597 16.3536 28.785 17.2804C27.2102 18.2072 26.2585 19.5105 26.6593 20.1915C27.0601 20.8725 28.6615 20.6732 30.2363 19.7464Z" fill="#F5F9FF"/>
<path d="M29.9215 19.1904C30.8579 18.6392 31.4341 17.8818 31.2087 17.4987C30.9832 17.1157 30.0414 17.252 29.105 17.8032C28.1687 18.3544 27.5924 19.1118 27.8179 19.4949C28.0434 19.8779 28.9852 19.7416 29.9215 19.1904Z" fill="#F5F9FF"/>
</g>
<defs>
<filter id="filter0_d" x="0" y="0" width="80" height="80" filterUnits="userSpaceOnUse" color-interpolation-filters="sRGB">
<feFlood flood-opacity="0" result="BackgroundImageFix"/>
<feColorMatrix in="SourceAlpha" type="matrix" values="0 0 0 0 0 0 0 0 0 0 0 0 0 0 0 0 0 0 127 0" result="hardAlpha"/>
<feOffset dy="4"/>
<feGaussianBlur stdDeviation="2"/>
<feComposite in2="hardAlpha" operator="out"/>
<feColorMatrix type="matrix" values="0 0 0 0 0.580392 0 0 0 0 0.788235 0 0 0 0 1 0 0 0 0.25 0"/>
<feBlend mode="normal" in2="BackgroundImageFix" result="effect1_dropShadow"/>
<feBlend mode="normal" in="SourceGraphic" in2="effect1_dropShadow" result="shape"/>
</filter>
</defs>
</svg>
