<svg width="184" height="56" viewBox="0 0 184 56" fill="none" xmlns="http://www.w3.org/2000/svg">
<path d="M72.31 41.15C70.75 41.15 69.33 40.85 68.05 40.25C66.79 39.65 65.7 38.84 64.78 37.82C63.88 36.78 63.18 35.62 62.68 34.34C62.18 33.04 61.93 31.71 61.93 30.35C61.93 28.93 62.19 27.58 62.71 26.3C63.23 25 63.96 23.85 64.9 22.85C65.84 21.83 66.94 21.03 68.2 20.45C69.48 19.85 70.88 19.55 72.4 19.55C73.94 19.55 75.34 19.86 76.6 20.48C77.88 21.1 78.97 21.93 79.87 22.97C80.79 24.01 81.49 25.18 81.97 26.48C82.47 27.76 82.72 29.07 82.72 30.41C82.72 31.81 82.46 33.16 81.94 34.46C81.42 35.74 80.69 36.89 79.75 37.91C78.83 38.91 77.73 39.7 76.45 40.28C75.19 40.86 73.81 41.15 72.31 41.15ZM66.13 30.35C66.13 31.59 66.37 32.75 66.85 33.83C67.35 34.91 68.06 35.79 68.98 36.47C69.92 37.15 71.04 37.49 72.34 37.49C73.68 37.49 74.81 37.14 75.73 36.44C76.65 35.74 77.35 34.84 77.83 33.74C78.31 32.64 78.55 31.51 78.55 30.35C78.55 29.11 78.3 27.95 77.8 26.87C77.3 25.79 76.58 24.92 75.64 24.26C74.72 23.58 73.62 23.24 72.34 23.24C71 23.24 69.87 23.59 68.95 24.29C68.03 24.99 67.33 25.89 66.85 26.99C66.37 28.07 66.13 29.19 66.13 30.35ZM89.0655 19.7L94.8255 36.08L100.525 19.7H104.875L96.8055 41H92.8155L84.7155 19.7H89.0655ZM108.949 41V19.7H113.089V41H108.949ZM123.473 27.32V41H119.333V19.7H122.633L133.643 33.74V19.73H137.783V41H134.333L123.473 27.32ZM144.014 41V19.7H158.324V23.33H148.154V28.82H156.614V32.18H148.154V41H144.014ZM171.808 41.15C170.248 41.15 168.828 40.85 167.548 40.25C166.288 39.65 165.198 38.84 164.278 37.82C163.378 36.78 162.678 35.62 162.178 34.34C161.678 33.04 161.428 31.71 161.428 30.35C161.428 28.93 161.688 27.58 162.208 26.3C162.728 25 163.458 23.85 164.398 22.85C165.338 21.83 166.438 21.03 167.698 20.45C168.978 19.85 170.378 19.55 171.898 19.55C173.438 19.55 174.838 19.86 176.098 20.48C177.378 21.1 178.468 21.93 179.368 22.97C180.288 24.01 180.988 25.18 181.468 26.48C181.968 27.76 182.218 29.07 182.218 30.41C182.218 31.81 181.958 33.16 181.438 34.46C180.918 35.74 180.188 36.89 179.248 37.91C178.328 38.91 177.228 39.7 175.948 40.28C174.688 40.86 173.308 41.15 171.808 41.15ZM165.628 30.35C165.628 31.59 165.868 32.75 166.348 33.83C166.848 34.91 167.558 35.79 168.478 36.47C169.418 37.15 170.538 37.49 171.838 37.49C173.178 37.49 174.308 37.14 175.228 36.44C176.148 35.74 176.848 34.84 177.328 33.74C177.808 32.64 178.048 31.51 178.048 30.35C178.048 29.11 177.798 27.95 177.298 26.87C176.798 25.79 176.078 24.92 175.138 24.26C174.218 23.58 173.118 23.24 171.838 23.24C170.498 23.24 169.368 23.59 168.448 24.29C167.528 24.99 166.828 25.89 166.348 26.99C165.868 28.07 165.628 29.19 165.628 30.35Z" fill="url(#paint0_linear)"/>
<path d="M26.8076 10.1927H29.6856C29.3258 7.67453 29.3258 5.03642 29.6856 2.51822H26.8076C27.0474 5.15633 27.0474 7.67453 26.8076 10.1927Z" fill="url(#paint1_linear)"/>
<path d="M17.9339 13.4305L20.4521 11.9915C18.8933 9.95296 17.5742 7.67459 16.6149 5.27631L14.0967 6.71528C15.6556 8.75382 16.9746 11.0322 17.9339 13.4305Z" fill="url(#paint2_linear)"/>
<path d="M11.8182 20.5053L13.2572 17.9871C10.8589 17.0278 8.70045 15.7088 6.542 14.1499L5.10303 16.6681C7.62123 17.6274 9.77969 18.9464 11.8182 20.5053Z" fill="url(#paint3_linear)"/>
<path d="M10.1396 29.7387V26.8607C7.6214 27.2205 4.98329 27.2205 2.46509 26.8607V29.7387C5.1032 29.379 7.6214 29.379 10.1396 29.7387Z" fill="url(#paint4_linear)"/>
<path d="M13.3773 38.6124L11.9383 36.0942C9.89979 37.6531 7.62143 38.9722 5.22314 39.9315L6.66211 42.4497C8.70066 40.8908 10.979 39.5717 13.3773 38.6124Z" fill="url(#paint5_linear)"/>
<path d="M20.4521 44.6081L17.9339 43.1692C16.9746 45.5674 15.6556 47.7259 14.0967 49.8844L16.6149 51.3233C17.5742 48.9251 18.8933 46.7666 20.4521 44.6081Z" fill="url(#paint6_linear)"/>
<path d="M29.6856 46.2869H26.8076C27.1674 48.8051 27.1674 51.4432 26.8076 53.9614H29.6856C29.3258 51.4432 29.3258 48.925 29.6856 46.2869Z" fill="url(#paint7_linear)"/>
<path d="M38.5592 43.1692L36.041 44.6081C37.5999 46.6467 38.919 48.9251 39.8783 51.3233L42.3965 49.8844C40.8376 47.8458 39.5185 45.5674 38.5592 43.1692Z" fill="url(#paint8_linear)"/>
<path d="M44.555 36.0942L43.116 38.6124C45.5143 39.5717 47.6727 40.8908 49.8312 42.4497L51.2701 39.9315C48.8719 38.8522 46.7134 37.6531 44.555 36.0942Z" fill="url(#paint9_linear)"/>
<path d="M46.2336 26.8607V29.7387C48.7518 29.379 51.39 29.379 53.9082 29.7387V26.8607C51.39 27.1006 48.8718 27.1006 46.2336 26.8607Z" fill="url(#paint10_linear)"/>
<path d="M43.116 17.9871L44.555 20.5053C46.5935 18.9464 48.8719 17.6274 51.2701 16.6681L49.8312 14.1499C47.7926 15.7088 45.5143 17.0278 43.116 17.9871Z" fill="url(#paint11_linear)"/>
<path d="M36.041 11.8715L38.5592 13.3105C39.5185 10.9122 40.8376 8.75374 42.3965 6.59528L39.8783 5.15631C38.799 7.67451 37.5999 9.83297 36.041 11.8715Z" fill="url(#paint12_linear)"/>
<path d="M28.2466 48.8051C39.5714 48.8051 48.7519 39.6245 48.7519 28.2997C48.7519 16.9749 39.5714 7.79437 28.2466 7.79437C16.9218 7.79437 7.74121 16.9749 7.74121 28.2997C7.74121 39.6245 16.9218 48.8051 28.2466 48.8051Z" fill="url(#paint13_linear)"/>
<path d="M48.7519 28.2997C48.7519 30.8179 48.2722 33.0963 47.5527 35.2548C47.0731 36.6937 46.3536 38.0128 45.6341 39.2119C43.1159 43.1691 39.2786 46.2869 34.7219 47.7259C32.6833 48.3254 30.5249 48.6852 28.3664 48.6852C17.0945 48.6852 7.86108 39.5717 7.86108 28.1798C7.86108 25.9014 8.22082 23.8629 8.94031 21.8243C10.3793 17.2676 13.4971 13.4303 17.4542 10.9121C18.6534 10.0727 19.9724 9.47317 21.4114 8.99351C23.5699 8.15411 25.9682 7.79437 28.3664 7.79437C39.5185 7.79437 48.7519 17.0278 48.7519 28.2997Z" fill="url(#paint14_linear)"/>
<path opacity="0.4" d="M35.6812 41.3704C35.6812 43.6488 35.3215 45.6873 34.7219 47.7259C32.6833 48.3255 30.5249 48.6852 28.3664 48.6852C17.0945 48.6852 7.86108 39.5717 7.86108 28.1799C7.86108 25.9015 8.22082 23.8629 8.94031 21.8244C10.9788 21.2248 13.1373 20.8651 15.2958 20.8651C26.4478 20.8651 35.6812 30.0985 35.6812 41.3704Z" fill="url(#paint15_linear)"/>
<path opacity="0.3" d="M48.7519 28.2997C48.7519 30.8179 48.2722 33.0963 47.5527 35.2548C47.0731 36.6937 46.3536 38.0128 45.6341 39.2119C42.5163 41.2505 38.6791 42.3297 34.7219 42.3297C23.4499 42.3297 14.2166 33.2162 14.2166 21.8243C14.2166 17.7473 15.4157 14.0299 17.3343 10.9121C18.5335 10.0727 19.8525 9.47317 21.2915 8.99351C23.4499 8.15411 25.8482 7.79437 28.2465 7.79437C39.5185 7.79437 48.7519 17.0278 48.7519 28.2997Z" fill="url(#paint16_linear)"/>
<path opacity="0.3" d="M31.3643 18.1071C32.2253 18.1071 32.9232 17.4092 32.9232 16.5482C32.9232 15.6873 32.2253 14.9893 31.3643 14.9893C30.5034 14.9893 29.8054 15.6873 29.8054 16.5482C29.8054 17.4092 30.5034 18.1071 31.3643 18.1071Z" fill="url(#paint17_linear)"/>
<path d="M42.9962 33.3361C43.9234 33.3361 44.675 32.5845 44.675 31.6573C44.675 30.7301 43.9234 29.9785 42.9962 29.9785C42.069 29.9785 41.3174 30.7301 41.3174 31.6573C41.3174 32.5845 42.069 33.3361 42.9962 33.3361Z" fill="url(#paint18_linear)"/>
<path d="M14.5765 29.9786C16.2321 29.9786 17.5743 28.6364 17.5743 26.9807C17.5743 25.325 16.2321 23.9828 14.5765 23.9828C12.9208 23.9828 11.5786 25.325 11.5786 26.9807C11.5786 28.6364 12.9208 29.9786 14.5765 29.9786Z" fill="url(#paint19_linear)"/>
<path d="M32.5636 25.3019C33.8881 25.3019 34.9619 24.2281 34.9619 22.9036C34.9619 21.5791 33.8881 20.5053 32.5636 20.5053C31.239 20.5053 30.1653 21.5791 30.1653 22.9036C30.1653 24.2281 31.239 25.3019 32.5636 25.3019Z" fill="url(#paint20_linear)"/>
<path d="M36.8805 41.6103C37.5428 41.6103 38.0797 41.0734 38.0797 40.4111C38.0797 39.7488 37.5428 39.212 36.8805 39.212C36.2183 39.212 35.6814 39.7488 35.6814 40.4111C35.6814 41.0734 36.2183 41.6103 36.8805 41.6103Z" fill="url(#paint21_linear)"/>
<path opacity="0.3" d="M20.3322 20.3854C21.8555 20.3854 23.0903 19.1506 23.0903 17.6274C23.0903 16.1042 21.8555 14.8694 20.3322 14.8694C18.809 14.8694 17.5742 16.1042 17.5742 17.6274C17.5742 19.1506 18.809 20.3854 20.3322 20.3854Z" fill="url(#paint22_linear)"/>
<path d="M26.9276 13.7902C27.5237 13.7902 28.0069 13.307 28.0069 12.7109C28.0069 12.1149 27.5237 11.6317 26.9276 11.6317C26.3316 11.6317 25.8484 12.1149 25.8484 12.7109C25.8484 13.307 26.3316 13.7902 26.9276 13.7902Z" fill="url(#paint23_linear)"/>
<path d="M41.3173 19.9059C41.9796 19.9059 42.5165 19.369 42.5165 18.7067C42.5165 18.0444 41.9796 17.5076 41.3173 17.5076C40.655 17.5076 40.1182 18.0444 40.1182 18.7067C40.1182 19.369 40.655 19.9059 41.3173 19.9059Z" fill="url(#paint24_linear)"/>
<path opacity="0.3" d="M23.33 42.2098C24.8533 42.2098 26.0881 40.975 26.0881 39.4518C26.0881 37.9286 24.8533 36.6938 23.33 36.6938C21.8068 36.6938 20.572 37.9286 20.572 39.4518C20.572 40.975 21.8068 42.2098 23.33 42.2098Z" fill="url(#paint25_linear)"/>
<path opacity="0.3" d="M44.435 24.2227C45.1635 24.2227 45.7541 23.6322 45.7541 22.9037C45.7541 22.1752 45.1635 21.5846 44.435 21.5846C43.7065 21.5846 43.116 22.1752 43.116 22.9037C43.116 23.6322 43.7065 24.2227 44.435 24.2227Z" fill="url(#paint26_linear)"/>
<path d="M28.1268 3.83726C30.5772 3.83726 32.5636 2.97826 32.5636 1.91863C32.5636 0.859 30.5772 0 28.1268 0C25.6764 0 23.6899 0.859 23.6899 1.91863C23.6899 2.97826 25.6764 3.83726 28.1268 3.83726Z" fill="url(#paint27_linear)"/>
<path d="M28.1266 2.99788C29.5836 2.99788 30.7648 2.51469 30.7648 1.91865C30.7648 1.32261 29.5836 0.839417 28.1266 0.839417C26.6696 0.839417 25.4885 1.32261 25.4885 1.91865C25.4885 2.51469 26.6696 2.99788 28.1266 2.99788Z" fill="url(#paint28_linear)"/>
<path d="M28.1268 56C30.5772 56 32.5636 55.1409 32.5636 54.0813C32.5636 53.0217 30.5772 52.1627 28.1268 52.1627C25.6764 52.1627 23.6899 53.0217 23.6899 54.0813C23.6899 55.1409 25.6764 56 28.1268 56Z" fill="url(#paint29_linear)"/>
<path d="M28.1266 55.1606C29.5836 55.1606 30.7648 54.6774 30.7648 54.0814C30.7648 53.4853 29.5836 53.0021 28.1266 53.0021C26.6696 53.0021 25.4885 53.4853 25.4885 54.0814C25.4885 54.6774 26.6696 55.1606 28.1266 55.1606Z" fill="url(#paint30_linear)"/>
<path d="M45.1162 7.75883C45.6522 6.84468 44.373 5.09888 42.259 3.85947C40.1451 2.62006 37.9969 2.35639 37.4609 3.27053C36.925 4.18467 38.2042 5.93046 40.3181 7.16987C42.4321 8.40928 44.5803 8.67297 45.1162 7.75883Z" fill="url(#paint31_linear)"/>
<path d="M43.5625 6.84735C43.864 6.33315 43.0894 5.31888 41.8325 4.58193C40.5756 3.84499 39.3122 3.66443 39.0107 4.17864C38.7092 4.69284 39.4838 5.70709 40.7407 6.44404C41.9977 7.18099 43.261 7.36156 43.5625 6.84735Z" fill="url(#paint32_linear)"/>
<path d="M18.7405 52.7423C19.2765 51.8282 17.9972 50.0824 15.8833 48.843C13.7693 47.6035 11.6211 47.3399 11.0852 48.254C10.5492 49.1682 11.8284 50.9139 13.9424 52.1534C16.0564 53.3928 18.2045 53.6565 18.7405 52.7423Z" fill="url(#paint33_linear)"/>
<path d="M17.1883 51.8319C17.4897 51.3177 16.7152 50.3035 15.4582 49.5665C14.2013 48.8296 12.9379 48.649 12.6364 49.1632C12.335 49.6774 13.1095 50.6917 14.3665 51.4286C15.6234 52.1656 16.8868 52.3461 17.1883 51.8319Z" fill="url(#paint34_linear)"/>
<path d="M53.0867 19.1923C54.0113 18.6747 53.7907 16.5218 52.594 14.3836C51.3972 12.2454 49.6774 10.9316 48.7528 11.4491C47.8282 11.9666 48.0488 14.1195 49.2456 16.2577C50.4423 18.396 52.1621 19.7098 53.0867 19.1923Z" fill="url(#paint35_linear)"/>
<path d="M52.2071 17.6191C52.7272 17.328 52.572 16.0613 51.8604 14.79C51.1488 13.5186 50.1503 12.7239 49.6302 13.0151C49.1101 13.3062 49.2653 14.5728 49.9769 15.8442C50.6885 17.1155 51.687 17.9102 52.2071 17.6191Z" fill="url(#paint36_linear)"/>
<path d="M7.5115 44.6552C8.43613 44.1376 8.21553 41.9847 7.01875 39.8465C5.82198 37.7083 4.10224 36.3945 3.1776 36.912C2.25297 37.4295 2.47359 39.5824 3.67036 41.7206C4.86714 43.8588 6.58687 45.1727 7.5115 44.6552Z" fill="url(#paint37_linear)"/>
<path d="M6.63216 43.0814C7.15227 42.7903 6.99705 41.5236 6.28545 40.2522C5.57386 38.9809 4.57536 38.1862 4.05525 38.4773C3.53515 38.7684 3.69038 40.0351 4.40198 41.3064C5.11357 42.5778 6.11206 43.3725 6.63216 43.0814Z" fill="url(#paint38_linear)"/>
<path d="M56.0774 28.6279C56.1265 26.178 55.3075 24.1748 54.248 24.1536C53.1886 24.1323 52.29 26.1012 52.2409 28.5511C52.1919 31.001 53.0109 33.0042 54.0703 33.0254C55.1298 33.0467 56.0284 31.0778 56.0774 28.6279Z" fill="url(#paint39_linear)"/>
<path d="M55.2382 28.6112C55.2674 27.1545 54.8079 25.9639 54.212 25.952C53.6161 25.9401 53.1093 27.1113 53.0802 28.568C53.051 30.0247 53.5104 31.2152 54.1064 31.2272C54.7023 31.2391 55.209 30.0679 55.2382 28.6112Z" fill="url(#paint40_linear)"/>
<path d="M3.92533 27.5077C3.9744 25.0578 3.15535 23.0545 2.09593 23.0333C1.03651 23.0121 0.137908 24.9809 0.0888421 27.4309C0.0397759 29.8808 0.858826 31.884 1.91824 31.9052C2.97766 31.9264 3.87626 29.9576 3.92533 27.5077Z" fill="url(#paint41_linear)"/>
<path d="M3.08586 27.4908C3.11504 26.0341 2.6556 24.8435 2.05967 24.8316C1.46375 24.8196 0.957007 25.9908 0.92783 27.4475C0.898653 28.9042 1.35809 30.0948 1.95401 30.1067C2.54994 30.1187 3.05668 28.9475 3.08586 27.4908Z" fill="url(#paint42_linear)"/>
<path d="M52.4523 41.8964C53.6697 39.7698 53.911 37.619 52.9913 37.0926C52.0717 36.5661 50.3393 37.8634 49.1219 39.9901C47.9046 42.1168 47.6632 44.2676 48.5829 44.794C49.5026 45.3204 51.2349 44.0231 52.4523 41.8964Z" fill="url(#paint43_linear)"/>
<path d="M51.721 41.4766C52.4449 40.2121 52.6123 38.9469 52.095 38.6508C51.5777 38.3547 50.5716 39.1398 49.8477 40.4043C49.1239 41.6688 48.9565 42.934 49.4738 43.2301C49.9911 43.5262 50.9972 42.7411 51.721 41.4766Z" fill="url(#paint44_linear)"/>
<path d="M7.16372 16.0731C8.38108 13.9464 8.62242 11.7956 7.70276 11.2692C6.78311 10.7428 5.05072 12.0401 3.83337 14.1668C2.61601 16.2935 2.37468 18.4442 3.29433 18.9707C4.21398 19.4971 5.94637 18.1998 7.16372 16.0731Z" fill="url(#paint45_linear)"/>
<path d="M6.43589 15.6565C7.15973 14.392 7.32715 13.1269 6.80985 12.8308C6.29254 12.5347 5.2864 13.3197 4.56257 14.5842C3.83873 15.8487 3.67131 17.1139 4.18862 17.41C4.70592 17.7061 5.71206 16.9211 6.43589 15.6565Z" fill="url(#paint46_linear)"/>
<path d="M42.2915 52.1431C44.4033 50.9 45.6794 49.152 45.1419 48.2388C44.6043 47.3256 42.4566 47.5931 40.3449 48.8361C38.2331 50.0792 36.957 51.8272 37.4946 52.7404C38.0321 53.6536 40.1798 53.3862 42.2915 52.1431Z" fill="url(#paint47_linear)"/>
<path d="M41.8661 51.4208C43.1217 50.6817 43.8945 49.6661 43.5921 49.1524C43.2897 48.6387 42.0267 48.8215 40.7711 49.5606C39.5154 50.2998 38.7427 51.3154 39.045 51.829C39.3474 52.3427 40.6104 52.1599 41.8661 51.4208Z" fill="url(#paint48_linear)"/>
<path d="M15.8727 7.16969C17.9844 5.92685 19.2607 4.17904 18.7232 3.26585C18.1858 2.35266 16.0382 2.6199 13.9264 3.86274C11.8147 5.10558 10.5385 6.85338 11.0759 7.76657C11.6134 8.67976 13.7609 8.41253 15.8727 7.16969Z" fill="url(#paint49_linear)"/>
<path d="M15.4508 6.42398C16.7064 5.68485 17.4792 4.66924 17.1768 4.15557C16.8745 3.64191 15.6114 3.82468 14.3558 4.56382C13.1002 5.30295 12.3274 6.31854 12.6298 6.83221C12.9321 7.34588 14.1952 7.16311 15.4508 6.42398Z" fill="url(#paint50_linear)"/>
<path d="M18.93 27.2C18.93 25.9 19.16 24.62 19.62 23.36C20.1 22.1 20.79 20.96 21.69 19.94C22.59 18.92 23.69 18.11 24.99 17.51C26.29 16.89 27.77 16.58 29.43 16.58C31.37 16.58 33.06 17.01 34.5 17.87C35.94 18.73 37.01 19.85 37.71 21.23L34.53 23.42C34.17 22.62 33.7 21.99 33.12 21.53C32.54 21.07 31.91 20.74 31.23 20.54C30.57 20.34 29.93 20.24 29.31 20.24C28.27 20.24 27.36 20.45 26.58 20.87C25.82 21.29 25.18 21.84 24.66 22.52C24.14 23.2 23.75 23.96 23.49 24.8C23.25 25.64 23.13 26.48 23.13 27.32C23.13 28.58 23.39 29.76 23.91 30.86C24.43 31.94 25.16 32.82 26.1 33.5C27.04 34.18 28.13 34.52 29.37 34.52C30.01 34.52 30.67 34.41 31.35 34.19C32.05 33.97 32.69 33.62 33.27 33.14C33.85 32.66 34.3 32.04 34.62 31.28L38.01 33.23C37.57 34.29 36.88 35.19 35.94 35.93C35 36.65 33.94 37.21 32.76 37.61C31.58 37.99 30.41 38.18 29.25 38.18C27.73 38.18 26.34 37.87 25.08 37.25C23.84 36.61 22.76 35.77 21.84 34.73C20.92 33.67 20.2 32.49 19.68 31.19C19.18 29.87 18.93 28.54 18.93 27.2Z" fill="#F5F9FF"/>
<defs>
<linearGradient id="paint0_linear" x1="203.805" y1="54.1765" x2="48.8014" y2="-9.22448" gradientUnits="userSpaceOnUse">
<stop stop-color="#4B68B0"/>
<stop offset="0.9998" stop-color="#71ACF0" stop-opacity="0.972816"/>
</linearGradient>
<linearGradient id="paint1_linear" x1="30.149" y1="11.5471" x2="25.9235" y2="11.3626" gradientUnits="userSpaceOnUse">
<stop stop-color="#4B68B0"/>
<stop offset="0.9998" stop-color="#71ACF0" stop-opacity="0.972816"/>
</linearGradient>
<linearGradient id="paint2_linear" x1="21.4755" y1="14.8695" x2="12.2027" y2="14.0283" gradientUnits="userSpaceOnUse">
<stop stop-color="#4B68B0"/>
<stop offset="0.9998" stop-color="#71ACF0" stop-opacity="0.972816"/>
</linearGradient>
<linearGradient id="paint3_linear" x1="14.5702" y1="21.6269" x2="2.83679" y2="19.8747" gradientUnits="userSpaceOnUse">
<stop stop-color="#4B68B0"/>
<stop offset="0.9998" stop-color="#71ACF0" stop-opacity="0.972816"/>
</linearGradient>
<linearGradient id="paint4_linear" x1="11.3753" y1="30.2466" x2="1.07787" y2="27.0505" gradientUnits="userSpaceOnUse">
<stop stop-color="#4B68B0"/>
<stop offset="0.9998" stop-color="#71ACF0" stop-opacity="0.972816"/>
</linearGradient>
<linearGradient id="paint5_linear" x1="14.6903" y1="43.5712" x2="2.95691" y2="41.8191" gradientUnits="userSpaceOnUse">
<stop stop-color="#4B68B0"/>
<stop offset="0.9998" stop-color="#71ACF0" stop-opacity="0.972816"/>
</linearGradient>
<linearGradient id="paint6_linear" x1="21.4755" y1="52.7623" x2="12.2027" y2="51.9211" gradientUnits="userSpaceOnUse">
<stop stop-color="#4B68B0"/>
<stop offset="0.9998" stop-color="#71ACF0" stop-opacity="0.972816"/>
</linearGradient>
<linearGradient id="paint7_linear" x1="30.149" y1="55.3158" x2="25.9235" y2="55.1313" gradientUnits="userSpaceOnUse">
<stop stop-color="#4B68B0"/>
<stop offset="0.9998" stop-color="#71ACF0" stop-opacity="0.972816"/>
</linearGradient>
<linearGradient id="paint8_linear" x1="43.4198" y1="52.7623" x2="34.1471" y2="51.9211" gradientUnits="userSpaceOnUse">
<stop stop-color="#4B68B0"/>
<stop offset="0.9998" stop-color="#71ACF0" stop-opacity="0.972816"/>
</linearGradient>
<linearGradient id="paint9_linear" x1="52.5831" y1="43.5712" x2="40.8497" y2="41.8191" gradientUnits="userSpaceOnUse">
<stop stop-color="#4B68B0"/>
<stop offset="0.9998" stop-color="#71ACF0" stop-opacity="0.972816"/>
</linearGradient>
<linearGradient id="paint10_linear" x1="55.1439" y1="30.2466" x2="44.8464" y2="27.0505" gradientUnits="userSpaceOnUse">
<stop stop-color="#4B68B0"/>
<stop offset="0.9998" stop-color="#71ACF0" stop-opacity="0.972816"/>
</linearGradient>
<linearGradient id="paint11_linear" x1="52.5831" y1="21.6269" x2="40.8497" y2="19.8747" gradientUnits="userSpaceOnUse">
<stop stop-color="#4B68B0"/>
<stop offset="0.9998" stop-color="#71ACF0" stop-opacity="0.972816"/>
</linearGradient>
<linearGradient id="paint12_linear" x1="43.4198" y1="14.7495" x2="34.1471" y2="13.9083" gradientUnits="userSpaceOnUse">
<stop stop-color="#4B68B0"/>
<stop offset="0.9998" stop-color="#71ACF0" stop-opacity="0.972816"/>
</linearGradient>
<linearGradient id="paint13_linear" x1="55.3554" y1="56.0423" x2="-4.16626" y2="49.1145" gradientUnits="userSpaceOnUse">
<stop stop-color="#4B68B0"/>
<stop offset="0.9998" stop-color="#71ACF0" stop-opacity="0.972816"/>
</linearGradient>
<linearGradient id="paint14_linear" x1="55.336" y1="55.9012" x2="-4.01157" y2="48.9937" gradientUnits="userSpaceOnUse">
<stop stop-color="#4B68B0"/>
<stop offset="0.9998" stop-color="#71ACF0" stop-opacity="0.972816"/>
</linearGradient>
<linearGradient id="paint15_linear" x1="40.1607" y1="53.5946" x2="-0.216497" y2="48.8951" gradientUnits="userSpaceOnUse">
<stop stop-color="#4B68B0"/>
<stop offset="0.9998" stop-color="#71ACF0" stop-opacity="0.972816"/>
</linearGradient>
<linearGradient id="paint16_linear" x1="54.3127" y1="48.4242" x2="4.18921" y2="42.5903" gradientUnits="userSpaceOnUse">
<stop stop-color="#4B68B0"/>
<stop offset="0.9998" stop-color="#71ACF0" stop-opacity="0.972816"/>
</linearGradient>
<linearGradient id="paint17_linear" x1="33.4252" y1="18.6573" x2="28.9002" y2="18.1306" gradientUnits="userSpaceOnUse">
<stop stop-color="#4B68B0"/>
<stop offset="0.9998" stop-color="#71ACF0" stop-opacity="0.972816"/>
</linearGradient>
<linearGradient id="paint18_linear" x1="45.2156" y1="33.9286" x2="40.3425" y2="33.3614" gradientUnits="userSpaceOnUse">
<stop stop-color="#4B68B0"/>
<stop offset="0.9998" stop-color="#71ACF0" stop-opacity="0.972816"/>
</linearGradient>
<linearGradient id="paint19_linear" x1="18.5397" y1="31.0366" x2="9.83776" y2="30.0238" gradientUnits="userSpaceOnUse">
<stop stop-color="#4B68B0"/>
<stop offset="0.9998" stop-color="#71ACF0" stop-opacity="0.972816"/>
</linearGradient>
<linearGradient id="paint20_linear" x1="35.7342" y1="26.1483" x2="28.7726" y2="25.3381" gradientUnits="userSpaceOnUse">
<stop stop-color="#4B68B0"/>
<stop offset="0.9998" stop-color="#71ACF0" stop-opacity="0.972816"/>
</linearGradient>
<linearGradient id="paint21_linear" x1="38.4658" y1="42.0335" x2="34.9851" y2="41.6284" gradientUnits="userSpaceOnUse">
<stop stop-color="#4B68B0"/>
<stop offset="0.9998" stop-color="#71ACF0" stop-opacity="0.972816"/>
</linearGradient>
<linearGradient id="paint22_linear" x1="23.9784" y1="21.3588" x2="15.9726" y2="20.427" gradientUnits="userSpaceOnUse">
<stop stop-color="#4B68B0"/>
<stop offset="0.9998" stop-color="#71ACF0" stop-opacity="0.972816"/>
</linearGradient>
<linearGradient id="paint23_linear" x1="28.3544" y1="14.1711" x2="25.2217" y2="13.8065" gradientUnits="userSpaceOnUse">
<stop stop-color="#4B68B0"/>
<stop offset="0.9998" stop-color="#71ACF0" stop-opacity="0.972816"/>
</linearGradient>
<linearGradient id="paint24_linear" x1="42.9026" y1="20.3291" x2="39.4218" y2="19.924" gradientUnits="userSpaceOnUse">
<stop stop-color="#4B68B0"/>
<stop offset="0.9998" stop-color="#71ACF0" stop-opacity="0.972816"/>
</linearGradient>
<linearGradient id="paint25_linear" x1="26.9762" y1="43.1832" x2="18.9704" y2="42.2514" gradientUnits="userSpaceOnUse">
<stop stop-color="#4B68B0"/>
<stop offset="0.9998" stop-color="#71ACF0" stop-opacity="0.972816"/>
</linearGradient>
<linearGradient id="paint26_linear" x1="46.1789" y1="24.6883" x2="42.35" y2="24.2426" gradientUnits="userSpaceOnUse">
<stop stop-color="#4B68B0"/>
<stop offset="0.9998" stop-color="#71ACF0" stop-opacity="0.972816"/>
</linearGradient>
<linearGradient id="paint27_linear" x1="33.9924" y1="4.51442" x2="21.8208" y2="1.23838" gradientUnits="userSpaceOnUse">
<stop stop-color="#4B68B0"/>
<stop offset="0.9998" stop-color="#71ACF0" stop-opacity="0.972816"/>
</linearGradient>
<linearGradient id="paint28_linear" x1="31.6143" y1="3.37878" x2="24.434" y2="1.33592" gradientUnits="userSpaceOnUse">
<stop stop-color="#4B68B0"/>
<stop offset="0.9998" stop-color="#71ACF0" stop-opacity="0.972816"/>
</linearGradient>
<linearGradient id="paint29_linear" x1="33.9924" y1="56.6771" x2="21.8208" y2="53.4011" gradientUnits="userSpaceOnUse">
<stop stop-color="#4B68B0"/>
<stop offset="0.9998" stop-color="#71ACF0" stop-opacity="0.972816"/>
</linearGradient>
<linearGradient id="paint30_linear" x1="31.6143" y1="55.5415" x2="24.434" y2="53.4986" gradientUnits="userSpaceOnUse">
<stop stop-color="#4B68B0"/>
<stop offset="0.9998" stop-color="#71ACF0" stop-opacity="0.972816"/>
</linearGradient>
<linearGradient id="paint31_linear" x1="47.7501" y1="6.36264" x2="44.6578" y2="11.0767" gradientUnits="userSpaceOnUse">
<stop stop-color="#4B68B0"/>
<stop offset="0.9998" stop-color="#71ACF0" stop-opacity="0.972816"/>
</linearGradient>
<linearGradient id="paint32_linear" x1="45.0874" y1="6.08741" x2="43.355" y2="8.74413" gradientUnits="userSpaceOnUse">
<stop stop-color="#4B68B0"/>
<stop offset="0.9998" stop-color="#71ACF0" stop-opacity="0.972816"/>
</linearGradient>
<linearGradient id="paint33_linear" x1="21.3744" y1="51.3461" x2="18.282" y2="56.0602" gradientUnits="userSpaceOnUse">
<stop stop-color="#4B68B0"/>
<stop offset="0.9998" stop-color="#71ACF0" stop-opacity="0.972816"/>
</linearGradient>
<linearGradient id="paint34_linear" x1="18.7132" y1="51.072" x2="16.9807" y2="53.7287" gradientUnits="userSpaceOnUse">
<stop stop-color="#4B68B0"/>
<stop offset="0.9998" stop-color="#71ACF0" stop-opacity="0.972816"/>
</linearGradient>
<linearGradient id="paint35_linear" x1="56.0648" y1="19.3199" x2="51.0133" y2="21.8225" gradientUnits="userSpaceOnUse">
<stop stop-color="#4B68B0"/>
<stop offset="0.9998" stop-color="#71ACF0" stop-opacity="0.972816"/>
</linearGradient>
<linearGradient id="paint36_linear" x1="53.9069" y1="17.7347" x2="51.0688" y2="19.1503" gradientUnits="userSpaceOnUse">
<stop stop-color="#4B68B0"/>
<stop offset="0.9998" stop-color="#71ACF0" stop-opacity="0.972816"/>
</linearGradient>
<linearGradient id="paint37_linear" x1="10.4897" y1="44.7828" x2="5.43812" y2="47.2854" gradientUnits="userSpaceOnUse">
<stop stop-color="#4B68B0"/>
<stop offset="0.9998" stop-color="#71ACF0" stop-opacity="0.972816"/>
</linearGradient>
<linearGradient id="paint38_linear" x1="8.33193" y1="43.197" x2="5.49388" y2="44.6126" gradientUnits="userSpaceOnUse">
<stop stop-color="#4B68B0"/>
<stop offset="0.9998" stop-color="#71ACF0" stop-opacity="0.972816"/>
</linearGradient>
<linearGradient id="paint39_linear" x1="56.8719" y1="22.777" x2="53.3528" y2="34.8806" gradientUnits="userSpaceOnUse">
<stop stop-color="#4B68B0"/>
<stop offset="0.9998" stop-color="#71ACF0" stop-opacity="0.972816"/>
</linearGradient>
<linearGradient id="paint40_linear" x1="55.6889" y1="25.1318" x2="53.5026" y2="32.2698" gradientUnits="userSpaceOnUse">
<stop stop-color="#4B68B0"/>
<stop offset="0.9998" stop-color="#71ACF0" stop-opacity="0.972816"/>
</linearGradient>
<linearGradient id="paint41_linear" x1="4.71981" y1="21.6568" x2="1.20071" y2="33.7604" gradientUnits="userSpaceOnUse">
<stop stop-color="#4B68B0"/>
<stop offset="0.9998" stop-color="#71ACF0" stop-opacity="0.972816"/>
</linearGradient>
<linearGradient id="paint42_linear" x1="3.53653" y1="24.0114" x2="1.3503" y2="31.1493" gradientUnits="userSpaceOnUse">
<stop stop-color="#4B68B0"/>
<stop offset="0.9998" stop-color="#71ACF0" stop-opacity="0.972816"/>
</linearGradient>
<linearGradient id="paint43_linear" x1="55.9541" y1="37.1421" x2="47.0639" y2="46.0783" gradientUnits="userSpaceOnUse">
<stop stop-color="#4B68B0"/>
<stop offset="0.9998" stop-color="#71ACF0" stop-opacity="0.972816"/>
</linearGradient>
<linearGradient id="paint44_linear" x1="53.7843" y1="38.6389" x2="48.4442" y2="43.8558" gradientUnits="userSpaceOnUse">
<stop stop-color="#4B68B0"/>
<stop offset="0.9998" stop-color="#71ACF0" stop-opacity="0.972816"/>
</linearGradient>
<linearGradient id="paint45_linear" x1="10.6655" y1="11.3187" x2="1.77534" y2="20.255" gradientUnits="userSpaceOnUse">
<stop stop-color="#4B68B0"/>
<stop offset="0.9998" stop-color="#71ACF0" stop-opacity="0.972816"/>
</linearGradient>
<linearGradient id="paint46_linear" x1="8.49916" y1="12.8188" x2="3.15901" y2="18.0357" gradientUnits="userSpaceOnUse">
<stop stop-color="#4B68B0"/>
<stop offset="0.9998" stop-color="#71ACF0" stop-opacity="0.972816"/>
</linearGradient>
<linearGradient id="paint47_linear" x1="47.6901" y1="49.751" x2="35.5386" y2="53.1024" gradientUnits="userSpaceOnUse">
<stop stop-color="#4B68B0"/>
<stop offset="0.9998" stop-color="#71ACF0" stop-opacity="0.972816"/>
</linearGradient>
<linearGradient id="paint48_linear" x1="45.065" y1="49.9798" x2="37.8407" y2="51.8618" gradientUnits="userSpaceOnUse">
<stop stop-color="#4B68B0"/>
<stop offset="0.9998" stop-color="#71ACF0" stop-opacity="0.972816"/>
</linearGradient>
<linearGradient id="paint49_linear" x1="21.2712" y1="4.77821" x2="9.12003" y2="8.12838" gradientUnits="userSpaceOnUse">
<stop stop-color="#4B68B0"/>
<stop offset="0.9998" stop-color="#71ACF0" stop-opacity="0.972816"/>
</linearGradient>
<linearGradient id="paint50_linear" x1="18.6497" y1="4.98293" x2="11.4254" y2="6.86495" gradientUnits="userSpaceOnUse">
<stop stop-color="#4B68B0"/>
<stop offset="0.9998" stop-color="#71ACF0" stop-opacity="0.972816"/>
</linearGradient>
</defs>
</svg>
