<svg width="64" height="50" viewBox="0 0 64 50" fill="none" xmlns="http://www.w3.org/2000/svg">
<g clip-path="url(#clip0)">
<path d="M60.9062 29.6875C61.3698 29.6875 61.8229 29.55 62.2084 29.2925C62.5938 29.035 62.8942 28.6689 63.0716 28.2407C63.249 27.8124 63.2954 27.3412 63.205 26.8865C63.1145 26.4319 62.8913 26.0142 62.5635 25.6865C62.2358 25.3587 61.8181 25.1355 61.3635 25.045C60.9089 24.9546 60.4376 25.001 60.0093 25.1784C59.5811 25.3558 59.215 25.6562 58.9575 26.0416C58.7 26.4271 58.5625 26.8802 58.5625 27.3438C58.5625 27.9654 58.8094 28.5615 59.249 29.001C59.6885 29.4406 60.2846 29.6875 60.9062 29.6875ZM54.6562 40.625C54.1927 40.625 53.7396 40.7625 53.3541 41.02C52.9687 41.2775 52.6683 41.6436 52.4909 42.0718C52.3135 42.5001 52.2671 42.9713 52.3575 43.426C52.448 43.8806 52.6712 44.2983 52.999 44.626C53.3267 44.9538 53.7444 45.177 54.199 45.2675C54.6536 45.3579 55.1249 45.3115 55.5532 45.1341C55.9814 44.9567 56.3475 44.6563 56.605 44.2709C56.8625 43.8854 57 43.4323 57 42.9688C57 42.3471 56.7531 41.751 56.3135 41.3115C55.874 40.8719 55.2779 40.625 54.6562 40.625ZM48.4062 35.1562C47.9427 35.1562 47.4896 35.2937 47.1041 35.5512C46.7187 35.8088 46.4183 36.1748 46.2409 36.6031C46.0635 37.0314 46.0171 37.5026 46.1075 37.9572C46.198 38.4119 46.4212 38.8295 46.749 39.1573C47.0767 39.4851 47.4944 39.7083 47.949 39.7987C48.4037 39.8891 48.8749 39.8427 49.3032 39.6653C49.7314 39.4879 50.0975 39.1875 50.355 38.8021C50.6125 38.4167 50.75 37.9636 50.75 37.5C50.75 36.8784 50.5031 36.2823 50.0635 35.8427C49.624 35.4032 49.0279 35.1562 48.4062 35.1562ZM60.9062 45.3125C60.4427 45.3125 59.9896 45.45 59.6041 45.7075C59.2187 45.965 58.9183 46.3311 58.7409 46.7593C58.5635 47.1876 58.5171 47.6588 58.6075 48.1135C58.698 48.5681 58.9212 48.9858 59.249 49.3135C59.5767 49.6413 59.9944 49.8645 60.449 49.955C60.9036 50.0454 61.3749 49.999 61.8032 49.8216C62.2314 49.6442 62.5975 49.3438 62.855 48.9584C63.1125 48.5729 63.25 48.1198 63.25 47.6562C63.25 47.0346 63.0031 46.4385 62.5635 45.999C62.124 45.5594 61.5279 45.3125 60.9062 45.3125ZM60.9062 35.1562C60.4427 35.1562 59.9896 35.2937 59.6041 35.5512C59.2187 35.8088 58.9183 36.1748 58.7409 36.6031C58.5635 37.0314 58.5171 37.5026 58.6075 37.9572C58.698 38.4119 58.9212 38.8295 59.249 39.1573C59.5767 39.4851 59.9944 39.7083 60.449 39.7987C60.9036 39.8891 61.3749 39.8427 61.8032 39.6653C62.2314 39.4879 62.5975 39.1875 62.855 38.8021C63.1125 38.4167 63.25 37.9636 63.25 37.5C63.25 36.8784 63.0031 36.2823 62.5635 35.8427C62.124 35.4032 61.5279 35.1562 60.9062 35.1562ZM54.6562 31.25C54.1927 31.25 53.7396 31.3875 53.3541 31.645C52.9687 31.9025 52.6683 32.2686 52.4909 32.6968C52.3135 33.1251 52.2671 33.5963 52.3575 34.051C52.448 34.5056 52.6712 34.9233 52.999 35.251C53.3267 35.5788 53.7444 35.802 54.199 35.8925C54.6536 35.9829 55.1249 35.9365 55.5532 35.7591C55.9814 35.5817 56.3475 35.2813 56.605 34.8959C56.8625 34.5104 57 34.0573 57 33.5938C57 32.9721 56.7531 32.376 56.3135 31.9365C55.874 31.4969 55.2779 31.25 54.6562 31.25ZM47.3535 26.8555C45.3027 22.2539 42.6172 12.0361 40.2129 8.61816C38.338 5.95725 35.8514 3.78557 32.9624 2.28583C30.0734 0.786083 26.8664 0.00215619 23.6113 0L19.5 0C9.14844 0 0.75 8.39844 0.75 18.75C0.75 24.292 3.16699 29.2598 7 32.7031V50H28.875V46.875H35.125C36.7826 46.875 38.3723 46.2165 39.5444 45.0444C40.7165 43.8723 41.375 42.2826 41.375 40.625H32C31.1712 40.625 30.3763 40.2958 29.7903 39.7097C29.2042 39.1237 28.875 38.3288 28.875 37.5C28.875 36.6712 29.2042 35.8763 29.7903 35.2903C30.3763 34.7042 31.1712 34.375 32 34.375H41.375V31.25H44.5C45.0205 31.2497 45.5327 31.1193 45.9901 30.8708C46.4474 30.6223 46.8355 30.2634 47.1189 29.8269C47.4024 29.3903 47.5724 28.8898 47.6133 28.3709C47.6543 27.852 47.565 27.3311 47.3535 26.8555ZM28.875 21.875C28.2569 21.875 27.6527 21.6917 27.1388 21.3483C26.6249 21.005 26.2244 20.5169 25.9879 19.9459C25.7514 19.3749 25.6895 18.7465 25.81 18.1403C25.9306 17.5342 26.2283 16.9773 26.6653 16.5403C27.1023 16.1033 27.6592 15.8056 28.2653 15.685C28.8715 15.5645 29.4999 15.6264 30.0709 15.8629C30.6419 16.0994 31.13 16.4999 31.4733 17.0138C31.8167 17.5277 32 18.1319 32 18.75C31.9982 19.5782 31.6684 20.3721 31.0827 20.9577C30.4971 21.5434 29.7032 21.8732 28.875 21.875Z" fill="#71ACF0"/>
</g>
<defs>
<clipPath id="clip0">
<rect width="62.5" height="50" fill="white" transform="translate(0.75)"/>
</clipPath>
</defs>
</svg>
