<svg width="500" height="594" viewBox="0 0 500 594" fill="none" xmlns="http://www.w3.org/2000/svg">
<g filter="url(#filter0_d)">
<circle cx="249.928" cy="299.409" r="204.409" fill="#4B68B0" fill-opacity="0.2" shape-rendering="crispEdges"/>
<circle cx="249.928" cy="299.409" r="194.409" stroke="white" stroke-width="20" shape-rendering="crispEdges"/>
</g>
<path d="M138.119 264.874H150.522C149.181 253.969 149.181 243.064 150.522 232.159H138.119C139.46 243.064 139.46 253.969 138.119 264.874Z" fill="#71ACF0"/>
<path d="M100.575 278.296L111.302 272.088C104.598 263.364 99.2345 253.801 94.8768 243.735L84.1501 249.943C90.8543 258.667 96.2176 268.23 100.575 278.296Z" fill="#71ACF0"/>
<path d="M74.5968 308.83L80.7982 298.093C70.7419 293.899 61.1885 288.362 52.4731 281.651L46.2717 292.389C56.4956 296.583 65.8814 302.119 74.5968 308.83Z" fill="#71ACF0"/>
<path d="M67.5576 348.088V335.673C56.6634 337.016 45.7691 337.016 34.8748 335.673V348.088C45.6015 346.578 56.4958 346.578 67.5576 348.088Z" fill="#71ACF0"/>
<path d="M80.7982 385.669L74.5968 374.932C65.8814 381.643 56.328 387.011 46.2717 391.373L52.4731 402.111C61.3561 395.4 70.7419 389.863 80.7982 385.669Z" fill="#71ACF0"/>
<path d="M111.302 411.506L100.575 405.298C96.3852 415.364 90.8543 424.927 84.1501 433.651L94.8768 439.859C99.0669 429.793 104.598 420.23 111.302 411.506Z" fill="#71ACF0"/>
<path d="M150.522 418.72H138.119C139.46 429.625 139.46 440.53 138.119 451.435H150.522C149.181 440.53 149.181 429.625 150.522 418.72Z" fill="#71ACF0"/>
<path d="M188.065 405.298L177.338 411.506C184.043 420.23 189.406 429.793 193.764 439.859L204.49 433.651C197.786 424.927 192.255 415.364 188.065 405.298Z" fill="#71ACF0"/>
<path d="M213.876 374.932L207.675 385.669C217.731 389.863 227.284 395.4 236 402.111L242.201 391.373C232.145 387.011 222.592 381.475 213.876 374.932Z" fill="#71ACF0"/>
<path d="M221.083 335.673V348.088C231.977 346.746 242.872 346.746 253.766 348.088V335.673C242.872 337.016 231.977 337.016 221.083 335.673Z" fill="#71ACF0"/>
<path d="M207.675 298.093L213.876 308.83C222.592 302.119 232.145 296.751 242.201 292.389L236 281.651C227.284 288.362 217.899 293.731 207.675 298.093Z" fill="#71ACF0"/>
<path d="M177.338 272.088L188.065 278.296C192.255 268.23 197.786 258.667 204.49 249.943L193.764 243.735C189.406 253.969 183.875 263.364 177.338 272.088Z" fill="#71ACF0"/>
<path d="M144.32 429.122C192.455 429.122 231.475 390.063 231.475 341.881C231.475 293.699 192.455 254.64 144.32 254.64C96.1863 254.64 57.166 293.699 57.166 341.881C57.166 390.063 96.1863 429.122 144.32 429.122Z" fill="#71ACF0"/>
<path d="M231.475 341.881C231.475 352.283 229.631 362.349 226.279 371.744C224.1 377.616 221.418 383.32 218.066 388.521C207.34 405.466 190.914 418.552 171.472 424.927C162.924 427.779 153.874 429.289 144.32 429.289C96.2178 429.289 57.166 390.199 57.166 342.049C57.166 332.486 58.6744 323.426 61.5237 314.87C67.8927 295.408 80.7982 278.967 97.7262 268.23C102.922 264.874 108.62 262.19 114.487 260.009C123.705 256.653 133.761 254.808 144.32 254.808C192.423 254.64 231.475 293.731 231.475 341.881Z" fill="#71ACF0"/>
<path opacity="0.4" d="M175.83 397.581C175.83 407.144 174.321 416.203 171.472 424.76C162.924 427.612 153.874 429.122 144.32 429.122C96.2178 429.122 57.166 390.031 57.166 341.881C57.166 332.318 58.6744 323.258 61.5237 314.702C70.0715 311.85 79.1221 310.34 88.6756 310.34C136.778 310.34 175.83 349.431 175.83 397.581Z" fill="#4B68B0"/>
<path opacity="0.3" d="M231.475 341.881C231.475 352.283 229.631 362.349 226.279 371.744C224.1 377.616 221.418 383.32 218.066 388.521C204.658 397.077 188.735 401.943 171.64 401.943C123.537 401.943 84.4856 362.852 84.4856 314.702C84.4856 297.59 89.3461 281.651 97.8939 268.23C103.09 264.874 108.788 262.19 114.654 260.009C123.873 256.653 133.929 254.808 144.488 254.808C192.423 254.64 231.475 293.731 231.475 341.881Z" fill="white"/>
<path opacity="0.3" d="M157.393 298.596C161.096 298.596 164.098 295.592 164.098 291.885C164.098 288.179 161.096 285.174 157.393 285.174C153.691 285.174 150.689 288.179 150.689 291.885C150.689 295.592 153.691 298.596 157.393 298.596Z" fill="white"/>
<path d="M206.837 363.356C210.817 363.356 214.044 360.126 214.044 356.141C214.044 352.157 210.817 348.927 206.837 348.927C202.856 348.927 199.63 352.157 199.63 356.141C199.63 360.126 202.856 363.356 206.837 363.356Z" fill="#4B68B0"/>
<path d="M86.3289 348.927C93.4565 348.927 99.2344 343.144 99.2344 336.009C99.2344 328.874 93.4565 323.091 86.3289 323.091C79.2016 323.091 73.4236 328.874 73.4236 336.009C73.4236 343.144 79.2016 348.927 86.3289 348.927Z" fill="#4B68B0"/>
<path d="M162.589 328.795C168.143 328.795 172.645 324.289 172.645 318.729C172.645 313.169 168.143 308.662 162.589 308.662C157.035 308.662 152.533 313.169 152.533 318.729C152.533 324.289 157.035 328.795 162.589 328.795Z" fill="#4B68B0"/>
<path d="M180.858 398.923C183.727 398.923 186.053 396.594 186.053 393.722C186.053 390.85 183.727 388.521 180.858 388.521C177.988 388.521 175.662 390.85 175.662 393.722C175.662 396.594 177.988 398.923 180.858 398.923Z" fill="#4B68B0"/>
<path opacity="0.3" d="M110.799 307.823C117.186 307.823 122.364 302.641 122.364 296.247C122.364 289.854 117.186 284.671 110.799 284.671C104.412 284.671 99.2346 289.854 99.2346 296.247C99.2346 302.641 104.412 307.823 110.799 307.823Z" fill="white"/>
<path d="M138.622 280.477C141.213 280.477 143.315 278.374 143.315 275.779C143.315 273.185 141.213 271.082 138.622 271.082C136.03 271.082 133.929 273.185 133.929 275.779C133.929 278.374 136.03 280.477 138.622 280.477Z" fill="#4B68B0"/>
<path d="M199.965 305.81C202.742 305.81 204.993 303.557 204.993 300.777C204.993 297.997 202.742 295.744 199.965 295.744C197.188 295.744 194.937 297.997 194.937 300.777C194.937 303.557 197.188 305.81 199.965 305.81Z" fill="#4B68B0"/>
<path opacity="0.3" d="M123.37 400.936C129.757 400.936 134.934 395.754 134.934 389.36C134.934 382.966 129.757 377.784 123.37 377.784C116.983 377.784 111.805 382.966 111.805 389.36C111.805 395.754 116.983 400.936 123.37 400.936Z" fill="white"/>
<path opacity="0.3" d="M213.038 324.265C216.092 324.265 218.569 321.787 218.569 318.729C218.569 315.67 216.092 313.192 213.038 313.192C209.983 313.192 207.507 315.67 207.507 318.729C207.507 321.787 209.983 324.265 213.038 324.265Z" fill="white"/>
<path d="M143.817 238.031C154.277 238.031 162.757 234.35 162.757 229.81C162.757 225.27 154.277 221.589 143.817 221.589C133.357 221.589 124.878 225.27 124.878 229.81C124.878 234.35 133.357 238.031 143.817 238.031Z" fill="#4B68B0"/>
<path d="M143.817 234.172C150.019 234.172 155.047 232.219 155.047 229.81C155.047 227.401 150.019 225.448 143.817 225.448C137.616 225.448 132.588 227.401 132.588 229.81C132.588 232.219 137.616 234.172 143.817 234.172Z" fill="#4B68B0"/>
<path d="M143.817 459.991C154.277 459.991 162.757 456.311 162.757 451.771C162.757 447.231 154.277 443.55 143.817 443.55C133.357 443.55 124.878 447.231 124.878 451.771C124.878 456.311 133.357 459.991 143.817 459.991Z" fill="#4B68B0"/>
<path d="M143.817 456.133C150.019 456.133 155.047 454.18 155.047 451.771C155.047 449.361 150.019 447.409 143.817 447.409C137.616 447.409 132.588 449.361 132.588 451.771C132.588 454.18 137.616 456.133 143.817 456.133Z" fill="#4B68B0"/>
<path d="M216.216 254.683C218.51 250.766 213.055 243.297 204.031 238.001C195.007 232.706 185.833 231.588 183.539 235.504C181.245 239.421 186.7 246.89 195.723 252.186C204.747 257.481 213.923 258.599 216.216 254.683Z" fill="#4B68B0"/>
<path d="M209.565 250.779C210.782 248.701 207.432 244.471 202.082 241.331C196.732 238.191 191.407 237.33 190.19 239.409C188.973 241.487 192.324 245.717 197.674 248.857C203.024 251.997 208.348 252.858 209.565 250.779Z" fill="#4B68B0"/>
<path d="M104.06 446.125C106.354 442.209 100.899 434.74 91.8752 429.445C82.8514 424.149 73.6764 423.032 71.3822 426.947C69.088 430.865 74.5436 438.332 83.5672 443.629C92.591 448.925 101.766 450.043 104.06 446.125Z" fill="#4B68B0"/>
<path d="M97.4084 442.221C98.6257 440.142 95.2753 435.913 89.9249 432.772C84.5746 429.633 79.2505 428.773 78.0332 430.85C76.8159 432.928 80.1663 437.159 85.5167 440.298C90.867 443.439 96.1911 444.3 97.4084 442.221Z" fill="#4B68B0"/>
<path d="M249.743 303.054C253.701 300.836 252.769 291.633 247.66 282.496C242.552 273.36 235.2 267.751 231.243 269.968C227.286 272.186 228.218 281.39 233.327 290.526C238.435 299.663 245.785 305.272 249.743 303.054Z" fill="#4B68B0"/>
<path d="M245.977 296.323C248.077 295.146 247.325 289.801 244.296 284.384C241.266 278.967 237.109 275.529 235.009 276.706C232.909 277.882 233.662 283.228 236.69 288.645C239.719 294.062 243.877 297.5 245.977 296.323Z" fill="#4B68B0"/>
<path d="M56.3201 411.405C60.2779 409.187 59.345 399.983 54.2364 390.846C49.1279 381.711 41.7781 376.103 37.8202 378.319C33.8624 380.537 34.7952 389.741 39.9038 398.878C45.0123 408.014 52.3623 413.623 56.3201 411.405Z" fill="#4B68B0"/>
<path d="M52.5534 404.672C54.6535 403.496 53.9004 398.151 50.8713 392.734C47.8424 387.317 43.6845 383.879 41.5844 385.057C39.4843 386.233 40.2373 391.578 43.2663 396.995C46.2952 402.413 50.4533 405.85 52.5534 404.672Z" fill="#4B68B0"/>
<path d="M262.9 343.161C263.11 332.694 259.603 324.134 255.068 324.044C250.534 323.951 246.688 332.365 246.478 342.832C246.269 353.301 249.775 361.861 254.311 361.951C258.846 362.042 262.691 353.63 262.9 343.161Z" fill="#4B68B0"/>
<path d="M259.047 343.084C259.171 336.878 257.321 331.806 254.914 331.759C252.509 331.711 250.458 336.704 250.334 342.909C250.21 349.117 252.058 354.187 254.465 354.236C256.872 354.284 258.923 349.291 259.047 343.084Z" fill="#4B68B0"/>
<path d="M41.1423 338.784C41.3518 328.315 37.8454 319.755 33.3107 319.665C28.7759 319.574 24.9298 327.986 24.7203 338.455C24.5108 348.922 28.0172 357.482 32.552 357.574C37.0868 357.665 40.9328 349.251 41.1423 338.784Z" fill="#4B68B0"/>
<path d="M37.2879 338.707C37.4121 332.499 35.5622 327.429 33.156 327.381C30.7498 327.332 28.6985 332.325 28.5743 338.532C28.4501 344.738 30.3 349.81 32.7062 349.857C35.1124 349.905 37.1637 344.913 37.2879 338.707Z" fill="#4B68B0"/>
<path d="M247.154 399.935C252.35 390.848 253.37 381.653 249.435 379.396C245.498 377.141 238.095 382.679 232.897 391.766C227.702 400.854 226.679 410.05 230.616 412.304C234.553 414.559 241.957 409.021 247.154 399.935Z" fill="#4B68B0"/>
<path d="M243.807 398.017C246.889 392.628 247.692 387.291 245.604 386.094C243.515 384.897 239.323 388.295 236.243 393.682C233.162 399.071 232.358 404.409 234.446 405.605C236.535 406.801 240.726 403.404 243.807 398.017Z" fill="#4B68B0"/>
<path d="M54.7671 289.693C59.9635 280.606 60.9848 271.411 57.0483 269.155C53.1118 266.9 45.7081 272.438 40.5116 281.525C35.3152 290.612 34.2938 299.807 38.2303 302.062C42.1669 304.319 49.5707 298.78 54.7671 289.693Z" fill="#4B68B0"/>
<path d="M51.4216 287.777C54.5026 282.389 55.3071 277.051 53.2184 275.854C51.1296 274.657 46.9386 278.055 43.8576 283.443C40.7764 288.831 39.972 294.168 42.0607 295.365C44.1495 296.562 48.3405 293.165 51.4216 287.777Z" fill="#4B68B0"/>
<path d="M204.126 443.437C213.14 438.126 218.582 430.648 216.281 426.736C213.98 422.824 204.809 423.958 195.793 429.269C186.779 434.581 181.337 442.058 183.638 445.971C185.939 449.883 195.111 448.749 204.126 443.437Z" fill="#4B68B0"/>
<path d="M202.137 440.144C207.482 436.995 210.826 432.759 209.604 430.684C208.384 428.607 203.061 429.477 197.716 432.626C192.373 435.774 189.028 440.01 190.249 442.085C191.47 444.162 196.792 443.293 202.137 440.144Z" fill="#4B68B0"/>
<path d="M91.6569 252.181C100.671 246.87 106.113 239.392 103.813 235.479C101.511 231.567 92.3387 232.701 83.3243 238.012C74.31 243.324 68.8677 250.801 71.1688 254.714C73.4696 258.627 82.6426 257.493 91.6569 252.181Z" fill="#4B68B0"/>
<path d="M89.7012 248.856C95.0459 245.706 98.3889 241.47 97.1681 239.394C95.9471 237.318 90.6247 238.188 85.2798 241.337C79.9351 244.486 76.592 248.722 77.813 250.799C79.0338 252.875 84.3564 252.005 89.7012 248.856Z" fill="#4B68B0"/>
<path d="M381.648 164.715H391.034C390.028 156.494 390.028 148.274 391.034 140.053H381.648C382.654 148.274 382.654 156.494 381.648 164.715Z" fill="#71ACF0"/>
<path d="M353.323 174.949L361.368 170.252C356.34 163.709 352.317 156.494 348.965 148.777L340.92 153.475C345.948 160.185 350.138 167.232 353.323 174.949Z" fill="#71ACF0"/>
<path d="M333.713 197.766L338.406 189.713C330.696 186.525 323.657 182.331 316.953 177.298L312.26 185.351C319.97 188.706 327.177 192.901 333.713 197.766Z" fill="#71ACF0"/>
<path d="M328.35 227.461V218.066C320.137 219.073 311.925 219.073 303.712 218.066V227.461C311.925 226.455 320.137 226.455 328.35 227.461Z" fill="#71ACF0"/>
<path d="M338.406 255.815L333.713 247.762C327.177 252.795 319.97 256.821 312.26 260.177L316.953 268.23C323.657 263.197 330.864 259.17 338.406 255.815Z" fill="#71ACF0"/>
<path d="M361.368 275.444L353.323 270.746C350.138 278.464 345.948 285.51 340.92 292.221L348.965 296.918C352.317 289.201 356.34 281.987 361.368 275.444Z" fill="#71ACF0"/>
<path d="M391.034 280.812H381.648C382.654 289.033 382.654 297.254 381.648 305.475H391.034C390.028 297.254 390.028 289.033 391.034 280.812Z" fill="#71ACF0"/>
<path d="M419.359 270.746L411.314 275.444C416.342 281.987 420.364 289.201 423.716 296.918L431.761 292.221C426.733 285.51 422.543 278.296 419.359 270.746Z" fill="#71ACF0"/>
<path d="M438.801 247.762L434.108 255.815C441.818 259.002 448.857 263.197 455.561 268.23L460.254 260.177C452.544 256.821 445.505 252.795 438.801 247.762Z" fill="#71ACF0"/>
<path d="M444.332 218.066V227.461C452.544 226.455 460.757 226.455 468.969 227.461V218.066C460.757 219.241 452.544 219.241 444.332 218.066Z" fill="#71ACF0"/>
<path d="M434.108 189.713L438.801 197.766C445.337 192.733 452.544 188.706 460.254 185.351L455.561 177.298C449.025 182.331 441.818 186.525 434.108 189.713Z" fill="#71ACF0"/>
<path d="M411.314 170.252L419.359 174.949C422.543 167.232 426.733 160.185 431.761 153.475L423.716 148.777C420.364 156.494 416.174 163.541 411.314 170.252Z" fill="#71ACF0"/>
<path d="M386.341 288.53C422.625 288.53 452.041 259.085 452.041 222.764C452.041 186.442 422.625 156.998 386.341 156.998C350.054 156.998 320.64 186.442 320.64 222.764C320.64 259.085 350.054 288.53 386.341 288.53Z" fill="#71ACF0"/>
<path d="M452.041 222.764C452.041 230.649 450.701 238.199 448.187 245.245C446.511 249.775 444.499 253.969 441.985 257.828C433.94 270.578 421.538 280.477 406.788 285.342C400.419 287.523 393.38 288.53 386.341 288.53C349.971 288.53 320.64 259.002 320.64 222.764C320.64 215.55 321.813 208.671 323.992 202.296C328.852 187.7 338.574 175.285 351.311 167.232C355.166 164.715 359.524 162.702 363.882 161.024C370.921 158.508 378.463 157.166 386.341 157.166C422.543 156.998 452.041 186.525 452.041 222.764Z" fill="#71ACF0"/>
<path opacity="0.4" d="M410.141 264.874C410.141 272.088 408.967 278.967 406.956 285.342C400.587 287.523 393.548 288.53 386.508 288.53C350.138 288.53 320.808 259.002 320.808 222.764C320.808 215.55 321.981 208.671 324.16 202.296C330.529 200.115 337.568 199.108 344.607 199.108C380.642 198.94 410.141 228.468 410.141 264.874Z" fill="#4B68B0"/>
<path opacity="0.3" d="M452.041 222.764C452.041 230.649 450.701 238.199 448.187 245.245C446.51 249.775 444.499 253.969 441.985 257.828C431.761 264.203 419.861 268.062 406.956 268.062C370.586 268.062 341.255 238.534 341.255 202.296C341.255 189.378 344.942 177.298 351.311 167.232C355.166 164.715 359.524 162.702 363.882 161.024C370.921 158.508 378.463 157.166 386.341 157.166C422.543 156.998 452.041 186.525 452.041 222.764Z" fill="white"/>
<path opacity="0.3" d="M396.229 190.216C399.006 190.216 401.257 187.963 401.257 185.183C401.257 182.403 399.006 180.15 396.229 180.15C393.452 180.15 391.201 182.403 391.201 185.183C391.201 187.963 393.452 190.216 396.229 190.216Z" fill="white"/>
<path d="M433.438 239.038C436.399 239.038 438.801 236.634 438.801 233.669C438.801 230.704 436.399 228.3 433.438 228.3C430.476 228.3 428.074 230.704 428.074 233.669C428.074 236.634 430.476 239.038 433.438 239.038Z" fill="#4B68B0"/>
<path d="M342.596 228.132C347.964 228.132 352.317 223.776 352.317 218.402C352.317 213.028 347.964 208.671 342.596 208.671C337.228 208.671 332.875 213.028 332.875 218.402C332.875 223.776 337.228 228.132 342.596 228.132Z" fill="#4B68B0"/>
<path d="M400.252 212.865C404.417 212.865 407.794 209.485 407.794 205.316C407.794 201.146 404.417 197.766 400.252 197.766C396.087 197.766 392.71 201.146 392.71 205.316C392.71 209.485 396.087 212.865 400.252 212.865Z" fill="#4B68B0"/>
<path d="M413.995 265.881C416.216 265.881 418.018 264.078 418.018 261.854C418.018 259.631 416.216 257.828 413.995 257.828C411.773 257.828 409.973 259.631 409.973 261.854C409.973 264.078 411.773 265.881 413.995 265.881Z" fill="#4B68B0"/>
<path opacity="0.3" d="M361.033 197.095C365.846 197.095 369.748 193.189 369.748 188.371C369.748 183.553 365.846 179.647 361.033 179.647C356.219 179.647 352.317 183.553 352.317 188.371C352.317 193.189 356.219 197.095 361.033 197.095Z" fill="white"/>
<path d="M382.151 176.459C384.095 176.459 385.67 174.882 385.67 172.936C385.67 170.99 384.095 169.413 382.151 169.413C380.206 169.413 378.631 170.99 378.631 172.936C378.631 174.882 380.206 176.459 382.151 176.459Z" fill="#4B68B0"/>
<path d="M428.242 195.753C430.37 195.753 432.097 194.025 432.097 191.894C432.097 189.763 430.37 188.035 428.242 188.035C426.113 188.035 424.387 189.763 424.387 191.894C424.387 194.025 426.113 195.753 428.242 195.753Z" fill="#4B68B0"/>
<path opacity="0.3" d="M370.586 267.391C375.4 267.391 379.301 263.485 379.301 258.667C379.301 253.849 375.4 249.943 370.586 249.943C365.772 249.943 361.871 253.849 361.871 258.667C361.871 263.485 365.772 267.391 370.586 267.391Z" fill="white"/>
<path opacity="0.3" d="M438.13 209.51C440.445 209.51 442.32 207.632 442.32 205.316C442.32 202.999 440.445 201.121 438.13 201.121C435.816 201.121 433.94 202.999 433.94 205.316C433.94 207.632 435.816 209.51 438.13 209.51Z" fill="white"/>
<path d="M386.005 144.415C393.873 144.415 400.252 141.636 400.252 138.207C400.252 134.779 393.873 132 386.005 132C378.136 132 371.759 134.779 371.759 138.207C371.759 141.636 378.136 144.415 386.005 144.415Z" fill="#4B68B0"/>
<path d="M386.005 141.563C390.727 141.563 394.553 140.061 394.553 138.207C394.553 136.354 390.727 134.852 386.005 134.852C381.284 134.852 377.458 136.354 377.458 138.207C377.458 140.061 381.284 141.563 386.005 141.563Z" fill="#4B68B0"/>
<path d="M386.005 312.018C393.873 312.018 400.252 309.238 400.252 305.81C400.252 302.383 393.873 299.603 386.005 299.603C378.136 299.603 371.759 302.383 371.759 305.81C371.759 309.238 378.136 312.018 386.005 312.018Z" fill="#4B68B0"/>
<path d="M386.005 309.166C390.727 309.166 394.553 307.664 394.553 305.81C394.553 303.956 390.727 302.455 386.005 302.455C381.284 302.455 377.458 303.956 377.458 305.81C377.458 307.664 381.284 309.166 386.005 309.166Z" fill="#4B68B0"/>
<path d="M440.576 156.97C442.309 154.013 438.211 148.386 431.423 144.402C424.635 140.419 417.728 139.587 415.995 142.544C414.263 145.502 418.361 151.129 425.149 155.113C431.937 159.096 438.844 159.928 440.576 156.97Z" fill="#4B68B0"/>
<path d="M435.662 154.086C436.598 152.487 434.056 149.254 429.983 146.863C425.91 144.473 421.849 143.832 420.912 145.43C419.977 147.029 422.52 150.263 426.591 152.653C430.664 155.043 434.725 155.684 435.662 154.086Z" fill="#4B68B0"/>
<path d="M355.917 301.457C357.65 298.5 353.552 292.873 346.764 288.889C339.976 284.905 333.069 284.074 331.336 287.031C329.605 289.989 333.703 295.616 340.491 299.599C347.279 303.582 354.186 304.414 355.917 301.457Z" fill="#4B68B0"/>
<path d="M351 298.569C351.935 296.971 349.394 293.737 345.321 291.347C341.249 288.957 337.188 288.315 336.251 289.914C335.315 291.513 337.856 294.746 341.929 297.136C346.002 299.526 350.063 300.168 351 298.569Z" fill="#4B68B0"/>
<path d="M465.889 193.598C468.877 191.923 468.185 184.995 464.342 178.122C460.499 171.25 454.961 167.036 451.973 168.71C448.984 170.385 449.677 177.313 453.52 184.186C457.361 191.058 462.901 195.272 465.889 193.598Z" fill="#4B68B0"/>
<path d="M463.107 188.623C464.722 187.718 464.162 183.641 461.856 179.518C459.55 175.394 456.372 172.785 454.756 173.69C453.141 174.595 453.701 178.672 456.007 182.795C458.311 186.919 461.491 189.528 463.107 188.623Z" fill="#4B68B0"/>
<path d="M319.86 275.301C322.849 273.626 322.157 266.698 318.313 259.825C314.47 252.953 308.933 248.739 305.944 250.413C302.956 252.088 303.648 259.016 307.491 265.889C311.334 272.761 316.872 276.975 319.86 275.301Z" fill="#4B68B0"/>
<path d="M317.078 270.326C318.694 269.422 318.134 265.345 315.828 261.222C313.522 257.098 310.344 254.489 308.728 255.394C307.112 256.299 307.672 260.376 309.979 264.499C312.283 268.623 315.463 271.232 317.078 270.326Z" fill="#4B68B0"/>
<path d="M475.705 223.734C475.863 215.859 473.215 209.42 469.791 209.352C466.366 209.283 463.464 215.611 463.306 223.485C463.148 231.359 465.797 237.798 469.221 237.867C472.645 237.936 475.548 231.608 475.705 223.734Z" fill="#4B68B0"/>
<path d="M472.856 223.677C472.952 218.952 471.527 215.092 469.677 215.055C467.826 215.018 466.249 218.818 466.154 223.542C466.06 228.267 467.483 232.127 469.335 232.164C471.185 232.201 472.762 228.401 472.856 223.677Z" fill="#4B68B0"/>
<path d="M308.42 220.364C308.578 212.49 305.929 206.051 302.505 205.982C299.081 205.913 296.178 212.241 296.021 220.115C295.863 227.989 298.511 234.428 301.935 234.497C305.36 234.566 308.262 228.238 308.42 220.364Z" fill="#4B68B0"/>
<path d="M305.571 220.307C305.666 215.582 304.242 211.722 302.391 211.685C300.541 211.648 298.964 215.448 298.868 220.172C298.774 224.897 300.197 228.757 302.049 228.794C303.9 228.831 305.477 225.031 305.571 220.307Z" fill="#4B68B0"/>
<path d="M463.881 266.591C467.79 259.755 468.549 252.833 465.576 251.13C462.604 249.427 457.025 253.587 453.116 260.423C449.207 267.258 448.448 274.18 451.422 275.884C454.393 277.587 459.971 273.426 463.881 266.591Z" fill="#4B68B0"/>
<path d="M461.409 265.175C463.754 261.073 464.352 257.002 462.746 256.082C461.139 255.161 457.934 257.739 455.59 261.841C453.245 265.942 452.646 270.013 454.252 270.934C455.859 271.854 459.062 269.276 461.409 265.175Z" fill="#4B68B0"/>
<path d="M318.614 183.477C322.522 176.641 323.281 169.719 320.308 168.016C317.336 166.313 311.757 170.473 307.848 177.309C303.94 184.144 303.181 191.066 306.154 192.769C309.126 194.473 314.703 190.312 318.614 183.477Z" fill="#4B68B0"/>
<path d="M316.138 182.059C318.485 177.958 319.083 173.886 317.476 172.966C315.87 172.045 312.665 174.624 310.321 178.725C307.976 182.826 307.376 186.897 308.983 187.818C310.59 188.738 313.793 186.16 316.138 182.059Z" fill="#4B68B0"/>
<path d="M431.595 299.528C438.375 295.533 442.463 289.899 440.726 286.944C438.988 283.99 432.083 284.833 425.304 288.829C418.522 292.824 414.434 298.458 416.171 301.413C417.909 304.367 424.814 303.524 431.595 299.528Z" fill="#4B68B0"/>
<path d="M430.149 297.073C434.219 294.675 436.754 291.438 435.816 289.84C434.877 288.243 430.818 288.892 426.748 291.289C422.681 293.687 420.143 296.925 421.083 298.522C422.022 300.119 426.081 299.47 430.149 297.073Z" fill="#4B68B0"/>
<path d="M346.57 155.149C353.35 151.154 357.439 145.519 355.701 142.565C353.963 139.61 347.058 140.454 340.278 144.45C333.497 148.445 329.409 154.079 331.145 157.034C332.883 159.988 339.789 159.144 346.57 155.149Z" fill="#4B68B0"/>
<path d="M345.124 152.691C349.193 150.294 351.729 147.056 350.79 145.459C349.852 143.862 345.792 144.511 341.723 146.908C337.655 149.305 335.118 152.543 336.058 154.14C336.996 155.737 341.056 155.089 345.124 152.691Z" fill="#4B68B0"/>
<path d="M196.948 153.139H200.971C200.468 149.616 200.468 145.925 200.971 142.402H196.948C197.283 146.093 197.283 149.616 196.948 153.139Z" fill="#71ACF0"/>
<path d="M184.545 157.669L188.065 155.656C185.886 152.804 184.042 149.616 182.702 146.26L179.182 148.274C181.361 151.126 183.204 154.313 184.545 157.669Z" fill="#71ACF0"/>
<path d="M175.997 167.567L178.009 164.044C174.657 162.702 171.64 160.857 168.623 158.675L166.612 162.199C170.131 163.541 173.148 165.386 175.997 167.567Z" fill="#71ACF0"/>
<path d="M173.651 180.486V176.459C170.131 176.962 166.444 176.962 162.924 176.459V180.486C166.612 179.982 170.131 179.982 173.651 180.486Z" fill="#71ACF0"/>
<path d="M178.176 192.901L176.165 189.377C173.316 191.559 170.131 193.404 166.779 194.746L168.791 198.269C171.64 196.088 174.824 194.243 178.176 192.901Z" fill="#71ACF0"/>
<path d="M188.065 201.289L184.545 199.276C183.204 202.631 181.361 205.651 179.182 208.671L182.702 210.684C184.042 207.329 185.886 204.309 188.065 201.289Z" fill="#71ACF0"/>
<path d="M200.971 203.638H196.948C197.451 207.161 197.451 210.852 196.948 214.375H200.971C200.468 210.852 200.468 207.329 200.971 203.638Z" fill="#71ACF0"/>
<path d="M213.373 199.276L209.854 201.289C212.032 204.141 213.876 207.329 215.217 210.684L218.737 208.671C216.558 205.819 214.714 202.631 213.373 199.276Z" fill="#71ACF0"/>
<path d="M221.753 189.377L219.742 192.901C223.094 194.243 226.111 196.088 229.128 198.269L231.139 194.746C227.787 193.236 224.77 191.559 221.753 189.377Z" fill="#71ACF0"/>
<path d="M224.1 176.459V180.486C227.62 179.982 231.307 179.982 234.827 180.486V176.459C231.307 176.795 227.787 176.795 224.1 176.459Z" fill="#71ACF0"/>
<path d="M219.742 164.044L221.753 167.567C224.603 165.386 227.787 163.541 231.139 162.199L229.128 158.675C226.279 160.857 223.094 162.702 219.742 164.044Z" fill="#71ACF0"/>
<path d="M209.854 155.488L213.373 157.501C214.714 154.146 216.558 151.126 218.737 148.106L215.217 146.093C213.708 149.616 212.032 152.636 209.854 155.488Z" fill="#71ACF0"/>
<path d="M198.959 207.161C214.788 207.161 227.62 194.317 227.62 178.472C227.62 162.628 214.788 149.784 198.959 149.784C183.13 149.784 170.299 162.628 170.299 178.472C170.299 194.317 183.13 207.161 198.959 207.161Z" fill="#71ACF0"/>
<path d="M227.62 178.472C227.62 181.996 226.949 185.183 225.944 188.203C225.273 190.216 224.268 192.062 223.262 193.74C219.742 199.276 214.379 203.638 208.01 205.651C205.161 206.49 202.144 206.993 199.127 206.993C183.372 206.993 170.467 194.243 170.467 178.305C170.467 175.117 170.969 172.265 171.975 169.413C173.986 163.038 178.344 157.669 183.875 154.146C185.551 152.971 187.395 152.132 189.406 151.461C192.423 150.287 195.775 149.784 199.127 149.784C214.714 149.784 227.62 162.702 227.62 178.472Z" fill="#71ACF0"/>
<path opacity="0.4" d="M209.351 196.759C209.351 199.947 208.848 202.799 208.01 205.651C205.161 206.49 202.144 206.993 199.127 206.993C183.372 206.993 170.467 194.243 170.467 178.305C170.467 175.117 170.969 172.265 171.975 169.413C174.824 168.574 177.841 168.071 180.858 168.071C196.445 168.071 209.351 180.989 209.351 196.759Z" fill="#4B68B0"/>
<path opacity="0.3" d="M227.62 178.472C227.62 181.996 226.949 185.183 225.944 188.203C225.273 190.216 224.268 192.062 223.262 193.74C218.904 196.592 213.541 198.102 208.01 198.102C192.255 198.102 179.35 185.351 179.35 169.413C179.35 163.709 181.026 158.508 183.707 154.146C185.383 152.971 187.227 152.132 189.238 151.461C192.255 150.287 195.607 149.784 198.959 149.784C214.714 149.784 227.62 162.702 227.62 178.472Z" fill="white"/>
<path opacity="0.3" d="M203.317 164.212C204.52 164.212 205.496 163.235 205.496 162.031C205.496 160.826 204.52 159.85 203.317 159.85C202.114 159.85 201.138 160.826 201.138 162.031C201.138 163.235 202.114 164.212 203.317 164.212Z" fill="white"/>
<path d="M219.575 185.519C220.87 185.519 221.921 184.467 221.921 183.17C221.921 181.873 220.87 180.821 219.575 180.821C218.279 180.821 217.228 181.873 217.228 183.17C217.228 184.467 218.279 185.519 219.575 185.519Z" fill="#4B68B0"/>
<path d="M179.852 180.821C182.166 180.821 184.042 178.943 184.042 176.627C184.042 174.311 182.166 172.433 179.852 172.433C177.538 172.433 175.662 174.311 175.662 176.627C175.662 178.943 177.538 180.821 179.852 180.821Z" fill="#4B68B0"/>
<path d="M204.993 174.278C206.843 174.278 208.345 172.776 208.345 170.923C208.345 169.07 206.843 167.567 204.993 167.567C203.141 167.567 201.641 169.07 201.641 170.923C201.641 172.776 203.141 174.278 204.993 174.278Z" fill="#4B68B0"/>
<path d="M211.027 197.095C211.952 197.095 212.703 196.344 212.703 195.417C212.703 194.491 211.952 193.74 211.027 193.74C210.102 193.74 209.351 194.491 209.351 195.417C209.351 196.344 210.102 197.095 211.027 197.095Z" fill="#4B68B0"/>
<path opacity="0.3" d="M187.897 167.4C190.026 167.4 191.752 165.672 191.752 163.541C191.752 161.41 190.026 159.682 187.897 159.682C185.768 159.682 184.042 161.41 184.042 163.541C184.042 165.672 185.768 167.4 187.897 167.4Z" fill="white"/>
<path d="M197.116 158.172C197.949 158.172 198.624 157.496 198.624 156.662C198.624 155.828 197.949 155.152 197.116 155.152C196.283 155.152 195.607 155.828 195.607 156.662C195.607 157.496 196.283 158.172 197.116 158.172Z" fill="#4B68B0"/>
<path d="M217.228 166.728C218.153 166.728 218.904 165.977 218.904 165.051C218.904 164.124 218.153 163.373 217.228 163.373C216.303 163.373 215.552 164.124 215.552 165.051C215.552 165.977 216.303 166.728 217.228 166.728Z" fill="#4B68B0"/>
<path opacity="0.3" d="M192.087 197.934C194.216 197.934 195.942 196.206 195.942 194.075C195.942 191.944 194.216 190.216 192.087 190.216C189.958 190.216 188.232 191.944 188.232 194.075C188.232 196.206 189.958 197.934 192.087 197.934Z" fill="white"/>
<path opacity="0.3" d="M221.586 172.768C222.603 172.768 223.429 171.942 223.429 170.923C223.429 169.904 222.603 169.077 221.586 169.077C220.567 169.077 219.742 169.904 219.742 170.923C219.742 171.942 220.567 172.768 221.586 172.768Z" fill="white"/>
<path d="M198.792 144.247C202.216 144.247 204.993 143.045 204.993 141.563C204.993 140.08 202.216 138.879 198.792 138.879C195.366 138.879 192.59 140.08 192.59 141.563C192.59 143.045 195.366 144.247 198.792 144.247Z" fill="#4B68B0"/>
<path d="M198.792 143.073C200.828 143.073 202.479 142.397 202.479 141.563C202.479 140.729 200.828 140.053 198.792 140.053C196.755 140.053 195.104 140.729 195.104 141.563C195.104 142.397 196.755 143.073 198.792 143.073Z" fill="#4B68B0"/>
<path d="M198.792 217.227C202.216 217.227 204.993 216.026 204.993 214.543C204.993 213.06 202.216 211.859 198.792 211.859C195.366 211.859 192.59 213.06 192.59 214.543C192.59 216.026 195.366 217.227 198.792 217.227Z" fill="#4B68B0"/>
<path d="M198.792 216.053C200.828 216.053 202.479 215.377 202.479 214.543C202.479 213.709 200.828 213.033 198.792 213.033C196.755 213.033 195.104 213.709 195.104 214.543C195.104 215.377 196.755 216.053 198.792 216.053Z" fill="#4B68B0"/>
<path d="M222.538 149.734C223.287 148.455 221.499 146.012 218.544 144.278C215.589 142.544 212.587 142.175 211.838 143.454C211.089 144.733 212.877 147.176 215.832 148.91C218.787 150.644 221.789 151.013 222.538 149.734Z" fill="#4B68B0"/>
<path d="M220.366 148.459C220.788 147.739 219.705 146.32 217.949 145.289C216.191 144.258 214.426 144.006 214.004 144.725C213.583 145.444 214.666 146.863 216.422 147.894C218.179 148.925 219.945 149.178 220.366 148.459Z" fill="#4B68B0"/>
<path d="M185.672 212.67C186.421 211.391 184.633 208.948 181.679 207.214C178.724 205.48 175.722 205.112 174.973 206.39C174.223 207.669 176.011 210.112 178.966 211.846C181.921 213.58 184.923 213.949 185.672 212.67Z" fill="#4B68B0"/>
<path d="M183.503 211.396C183.924 210.677 182.842 209.258 181.085 208.227C179.328 207.196 177.562 206.943 177.141 207.662C176.719 208.382 177.802 209.801 179.559 210.832C181.316 211.863 183.081 212.116 183.503 211.396Z" fill="#4B68B0"/>
<path d="M233.679 165.73C234.971 165.006 234.662 161.994 232.99 159.003C231.317 156.011 228.914 154.173 227.621 154.897C226.327 155.621 226.636 158.633 228.309 161.625C229.983 164.616 232.386 166.454 233.679 165.73Z" fill="#4B68B0"/>
<path d="M232.448 163.529C233.176 163.122 232.958 161.35 231.964 159.571C230.97 157.792 229.574 156.681 228.846 157.088C228.119 157.495 228.337 159.267 229.331 161.046C230.326 162.825 231.721 163.937 232.448 163.529Z" fill="#4B68B0"/>
<path d="M169.978 201.355C171.27 200.631 170.962 197.619 169.289 194.627C167.616 191.636 165.212 189.798 163.92 190.522C162.628 191.246 162.936 194.258 164.609 197.249C166.282 200.241 168.685 202.079 169.978 201.355Z" fill="#4B68B0"/>
<path d="M168.748 199.153C169.475 198.746 169.258 196.974 168.264 195.195C167.269 193.416 165.874 192.304 165.147 192.712C164.42 193.119 164.637 194.891 165.631 196.67C166.626 198.449 168.022 199.561 168.748 199.153Z" fill="#4B68B0"/>
<path d="M237.859 178.931C237.927 175.504 236.783 172.701 235.301 172.671C233.821 172.642 232.564 175.396 232.495 178.824C232.428 182.252 233.573 185.054 235.053 185.084C236.534 185.114 237.79 182.359 237.859 178.931Z" fill="#4B68B0"/>
<path d="M236.685 178.908C236.726 176.87 236.084 175.204 235.251 175.188C234.418 175.171 233.71 176.809 233.669 178.848C233.628 180.886 234.27 182.551 235.103 182.568C235.936 182.585 236.645 180.946 236.685 178.908Z" fill="#4B68B0"/>
<path d="M164.965 177.364C165.034 173.937 163.889 171.134 162.408 171.104C160.928 171.074 159.672 173.829 159.603 177.257C159.534 180.684 160.679 183.487 162.16 183.517C163.641 183.546 164.897 180.792 164.965 177.364Z" fill="#4B68B0"/>
<path d="M163.792 177.34C163.833 175.302 163.191 173.637 162.358 173.62C161.525 173.603 160.817 175.242 160.776 177.28C160.735 179.318 161.377 180.984 162.21 181C163.043 181.017 163.751 179.379 163.792 177.34Z" fill="#4B68B0"/>
<path d="M232.792 197.496C234.493 194.52 234.83 191.511 233.544 190.775C232.259 190.038 229.837 191.853 228.136 194.829C226.435 197.804 226.098 200.813 227.383 201.55C228.669 202.286 231.089 200.471 232.792 197.496Z" fill="#4B68B0"/>
<path d="M231.77 196.908C232.78 195.139 233.015 193.369 232.293 192.955C231.568 192.54 230.162 193.639 229.152 195.408C228.139 197.177 227.905 198.947 228.629 199.361C229.351 199.776 230.757 198.677 231.77 196.908Z" fill="#4B68B0"/>
<path d="M169.492 161.366C171.193 158.391 171.53 155.382 170.245 154.645C168.96 153.909 166.538 155.724 164.837 158.699C163.135 161.675 162.798 164.684 164.083 165.42C165.369 166.157 167.79 164.342 169.492 161.366Z" fill="#4B68B0"/>
<path d="M168.474 160.784C169.486 159.015 169.72 157.244 168.997 156.83C168.274 156.416 166.867 157.514 165.856 159.283C164.844 161.053 164.61 162.823 165.333 163.237C166.056 163.651 167.462 162.553 168.474 160.784Z" fill="#4B68B0"/>
<path d="M218.589 211.831C221.541 210.092 223.324 207.647 222.573 206.369C221.822 205.091 218.82 205.466 215.869 207.205C212.917 208.944 211.134 211.39 211.885 212.667C212.636 213.945 215.638 213.571 218.589 211.831Z" fill="#4B68B0"/>
<path d="M217.994 210.821C219.749 209.787 220.83 208.366 220.408 207.647C219.983 206.928 218.219 207.184 216.464 208.218C214.709 209.252 213.63 210.673 214.052 211.392C214.474 212.111 216.239 211.855 217.994 210.821Z" fill="#4B68B0"/>
<path d="M181.664 148.91C184.616 147.171 186.399 144.725 185.648 143.448C184.897 142.17 181.895 142.544 178.944 144.283C175.992 146.022 174.208 148.467 174.96 149.745C175.711 151.022 178.712 150.648 181.664 148.91Z" fill="#4B68B0"/>
<path d="M181.074 147.866C182.829 146.832 183.909 145.411 183.487 144.693C183.064 143.974 181.299 144.23 179.544 145.264C177.789 146.298 176.709 147.719 177.131 148.437C177.554 149.156 179.319 148.9 181.074 147.866Z" fill="#4B68B0"/>
<path d="M350.473 337.016H358.183C357.345 330.137 357.345 323.426 358.183 316.548H350.473C351.479 323.258 351.479 330.137 350.473 337.016Z" fill="#71ACF0"/>
<path d="M327.176 345.404L333.881 341.545C329.691 336.009 326.338 330.137 323.657 323.762L316.953 327.62C320.975 333.157 324.495 339.029 327.176 345.404Z" fill="#71ACF0"/>
<path d="M310.919 364.362L314.774 357.651C308.405 354.967 302.539 351.612 297.008 347.417L293.153 354.128C299.522 356.812 305.556 360.168 310.919 364.362Z" fill="#71ACF0"/>
<path d="M306.393 388.857V381.139C299.522 381.978 292.818 381.978 285.946 381.139V388.857C292.818 388.018 299.689 388.018 306.393 388.857Z" fill="#71ACF0"/>
<path d="M314.774 412.345L310.919 405.634C305.388 409.828 299.522 413.183 293.153 415.868L297.008 422.579C302.539 418.384 308.572 415.029 314.774 412.345Z" fill="#71ACF0"/>
<path d="M333.713 428.451L327.009 424.592C324.327 430.967 320.975 436.839 316.785 442.375L323.489 446.234C326.171 439.859 329.69 433.987 333.713 428.451Z" fill="#71ACF0"/>
<path d="M358.351 432.98H350.641C351.479 439.859 351.479 446.57 350.641 453.448H358.351C357.513 446.57 357.513 439.691 358.351 432.98Z" fill="#71ACF0"/>
<path d="M381.815 424.592L375.111 428.451C379.301 433.987 382.653 439.859 385.335 446.234L392.039 442.375C387.849 436.839 384.33 430.967 381.815 424.592Z" fill="#71ACF0"/>
<path d="M397.905 405.634L394.051 412.345C400.419 415.029 406.286 418.384 411.817 422.579L415.671 415.868C409.303 413.183 403.269 409.828 397.905 405.634Z" fill="#71ACF0"/>
<path d="M402.431 381.139V388.857C409.302 388.018 416.007 388.018 422.878 388.857V381.139C416.007 381.978 409.135 381.978 402.431 381.139Z" fill="#71ACF0"/>
<path d="M394.051 357.651L397.905 364.362C403.436 360.168 409.303 356.812 415.671 354.128L411.817 347.417C406.286 351.444 400.252 354.967 394.051 357.651Z" fill="#71ACF0"/>
<path d="M375.111 341.378L381.815 345.236C384.497 338.861 387.849 332.989 392.039 327.453L385.335 323.594C382.653 330.137 379.134 336.009 375.111 341.378Z" fill="#71ACF0"/>
<path d="M354.496 439.523C384.579 439.523 408.967 415.111 408.967 384.998C408.967 354.885 384.579 330.473 354.496 330.473C324.413 330.473 300.025 354.885 300.025 384.998C300.025 415.111 324.413 439.523 354.496 439.523Z" fill="#71ACF0"/>
<path d="M408.8 384.998C408.8 391.541 407.626 397.748 405.615 403.62C404.274 407.311 402.598 410.835 400.419 414.022C393.715 424.592 383.491 432.813 371.424 436.671C366.061 438.349 360.362 439.356 354.496 439.356C324.495 439.356 300.025 415.029 300.025 384.83C300.025 378.958 301.03 373.254 302.706 367.885C306.729 355.806 314.774 345.572 325.333 338.861C328.517 336.848 332.037 335.002 335.724 333.66C341.59 331.479 347.792 330.473 354.328 330.473C384.497 330.473 408.8 354.799 408.8 384.998Z" fill="#71ACF0"/>
<path opacity="0.4" d="M374.106 419.726C374.106 425.598 373.1 431.303 371.424 436.671C366.061 438.349 360.362 439.356 354.496 439.356C324.495 439.356 300.025 415.029 300.025 384.83C300.025 378.958 301.03 373.254 302.706 367.885C308.07 366.208 313.768 365.201 319.634 365.201C349.635 365.201 374.106 389.696 374.106 419.726Z" fill="#4B68B0"/>
<path opacity="0.3" d="M408.8 384.998C408.8 391.541 407.626 397.748 405.615 403.62C404.274 407.311 402.598 410.835 400.419 414.022C392.039 419.391 382.151 422.411 371.424 422.411C341.423 422.411 316.953 398.084 316.953 367.885C316.953 357.148 319.97 347.25 325.333 338.861C328.517 336.848 332.037 335.002 335.724 333.66C341.59 331.479 347.792 330.473 354.328 330.473C384.497 330.473 408.8 354.799 408.8 384.998Z" fill="white"/>
<path opacity="0.3" d="M362.541 357.987C364.856 357.987 366.731 356.11 366.731 353.793C366.731 351.476 364.856 349.598 362.541 349.598C360.226 349.598 358.351 351.476 358.351 353.793C358.351 356.11 360.226 357.987 362.541 357.987Z" fill="white"/>
<path d="M393.38 398.42C395.879 398.42 397.905 396.391 397.905 393.89C397.905 391.388 395.879 389.36 393.38 389.36C390.881 389.36 388.855 391.388 388.855 393.89C388.855 396.391 390.881 398.42 393.38 398.42Z" fill="#4B68B0"/>
<path d="M318.293 389.36C322.736 389.36 326.338 385.755 326.338 381.307C326.338 376.859 322.736 373.254 318.293 373.254C313.85 373.254 310.248 376.859 310.248 381.307C310.248 385.755 313.85 389.36 318.293 389.36Z" fill="#4B68B0"/>
<path d="M365.893 376.945C369.411 376.945 372.262 374.091 372.262 370.57C372.262 367.048 369.411 364.194 365.893 364.194C362.375 364.194 359.524 367.048 359.524 370.57C359.524 374.091 362.375 376.945 365.893 376.945Z" fill="#4B68B0"/>
<path d="M377.29 420.733C379.14 420.733 380.642 419.232 380.642 417.378C380.642 415.524 379.14 414.022 377.29 414.022C375.438 414.022 373.938 415.524 373.938 417.378C373.938 419.232 375.438 420.733 377.29 420.733Z" fill="#4B68B0"/>
<path opacity="0.3" d="M333.545 363.691C337.526 363.691 340.752 360.461 340.752 356.477C340.752 352.492 337.526 349.263 333.545 349.263C329.565 349.263 326.338 352.492 326.338 356.477C326.338 360.461 329.565 363.691 333.545 363.691Z" fill="white"/>
<path d="M350.976 346.579C352.55 346.579 353.826 345.302 353.826 343.726C353.826 342.151 352.55 340.874 350.976 340.874C349.402 340.874 348.127 342.151 348.127 343.726C348.127 345.302 349.402 346.579 350.976 346.579Z" fill="#4B68B0"/>
<path d="M389.19 362.517C390.948 362.517 392.374 361.089 392.374 359.329C392.374 357.569 390.948 356.141 389.19 356.141C387.432 356.141 386.005 357.569 386.005 359.329C386.005 361.089 387.432 362.517 389.19 362.517Z" fill="#4B68B0"/>
<path opacity="0.3" d="M341.423 421.907C345.403 421.907 348.63 418.678 348.63 414.693C348.63 410.709 345.403 407.479 341.423 407.479C337.442 407.479 334.216 410.709 334.216 414.693C334.216 418.678 337.442 421.907 341.423 421.907Z" fill="white"/>
<path opacity="0.3" d="M397.403 373.925C399.253 373.925 400.755 372.424 400.755 370.57C400.755 368.716 399.253 367.214 397.403 367.214C395.551 367.214 394.051 368.716 394.051 370.57C394.051 372.424 395.551 373.925 397.403 373.925Z" fill="white"/>
<path d="M354.161 320.239C360.64 320.239 365.893 317.91 365.893 315.038C365.893 312.165 360.64 309.837 354.161 309.837C347.681 309.837 342.428 312.165 342.428 315.038C342.428 317.91 347.681 320.239 354.161 320.239Z" fill="#4B68B0"/>
<path d="M354.161 317.89C358.047 317.89 361.2 316.613 361.2 315.038C361.2 313.462 358.047 312.186 354.161 312.186C350.272 312.186 347.121 313.462 347.121 315.038C347.121 316.613 350.272 317.89 354.161 317.89Z" fill="#4B68B0"/>
<path d="M354.161 458.817C360.64 458.817 365.893 456.488 365.893 453.616C365.893 450.744 360.64 448.415 354.161 448.415C347.681 448.415 342.428 450.744 342.428 453.616C342.428 456.488 347.681 458.817 354.161 458.817Z" fill="#4B68B0"/>
<path d="M354.161 456.468C358.047 456.468 361.2 455.191 361.2 453.616C361.2 452.041 358.047 450.764 354.161 450.764C350.272 450.764 347.121 452.041 347.121 453.616C347.121 455.191 350.272 456.468 354.161 456.468Z" fill="#4B68B0"/>
<path d="M399.365 330.426C400.817 327.948 397.461 323.28 391.872 319.999C386.28 316.719 380.573 316.068 379.122 318.546C377.67 321.024 381.024 325.693 386.616 328.973C392.205 332.253 397.914 332.904 399.365 330.426Z" fill="#4B68B0"/>
<path d="M395.313 328.047C396.109 326.688 394.035 323.99 390.682 322.022C387.328 320.052 383.964 319.559 383.168 320.918C382.372 322.277 384.445 324.975 387.799 326.943C391.153 328.911 394.516 329.406 395.313 328.047Z" fill="#4B68B0"/>
<path d="M329.266 449.965C330.718 447.487 327.362 442.818 321.773 439.538C316.183 436.259 310.475 435.608 309.023 438.086C307.572 440.564 310.927 445.231 316.517 448.513C322.106 451.792 327.815 452.443 329.266 449.965Z" fill="#4B68B0"/>
<path d="M325.216 447.585C326.012 446.226 323.938 443.528 320.583 441.56C317.229 439.592 313.865 439.097 313.069 440.456C312.273 441.815 314.348 444.513 317.702 446.481C321.056 448.449 324.419 448.944 325.216 447.585Z" fill="#4B68B0"/>
<path d="M420.21 360.68C422.714 359.277 422.179 353.551 419.013 347.892C415.849 342.232 411.253 338.78 408.751 340.183C406.247 341.587 406.782 347.312 409.946 352.972C413.11 358.631 417.706 362.082 420.21 360.68Z" fill="#4B68B0"/>
<path d="M417.917 356.574C419.292 355.804 418.864 352.429 416.965 349.033C415.068 345.637 412.415 343.507 411.042 344.277C409.668 345.047 410.095 348.422 411.994 351.818C413.891 355.214 416.545 357.343 417.917 356.574Z" fill="#4B68B0"/>
<path d="M299.349 428.321C301.853 426.919 301.317 421.194 298.152 415.534C294.988 409.875 290.392 406.424 287.888 407.827C285.386 409.229 285.921 414.955 289.085 420.614C292.249 426.275 296.845 429.726 299.349 428.321Z" fill="#4B68B0"/>
<path d="M297.056 424.224C298.431 423.456 298.003 420.079 296.106 416.683C294.207 413.287 291.554 411.158 290.181 411.927C288.808 412.697 289.234 416.074 291.133 419.47C293.032 422.865 295.684 424.994 297.056 424.224Z" fill="#4B68B0"/>
<path d="M428.495 385.701C428.626 379.217 426.405 373.913 423.535 373.855C420.668 373.798 418.236 379.009 418.107 385.493C417.976 391.977 420.197 397.28 423.066 397.339C425.936 397.396 428.366 392.185 428.495 385.701Z" fill="#4B68B0"/>
<path d="M426.15 385.654C426.227 381.763 425.015 378.582 423.442 378.552C421.869 378.52 420.53 381.649 420.451 385.54C420.374 389.43 421.586 392.61 423.16 392.642C424.734 392.673 426.071 389.545 426.15 385.654Z" fill="#4B68B0"/>
<path d="M290.025 382.973C290.154 376.489 287.934 371.185 285.066 371.127C282.196 371.07 279.765 376.281 279.635 382.765C279.506 389.249 281.727 394.553 284.595 394.611C287.464 394.668 289.894 389.457 290.025 382.973Z" fill="#4B68B0"/>
<path d="M287.679 382.926C287.758 379.035 286.544 375.856 284.972 375.824C283.398 375.792 282.059 378.921 281.982 382.812C281.903 386.702 283.117 389.882 284.689 389.914C286.263 389.945 287.602 386.817 287.679 382.926Z" fill="#4B68B0"/>
<path d="M418.698 421.28C421.918 415.651 422.508 409.93 420.017 408.504C417.527 407.077 412.899 410.484 409.68 416.113C406.46 421.741 405.87 427.462 408.36 428.888C410.851 430.316 415.479 426.91 418.698 421.28Z" fill="#4B68B0"/>
<path d="M416.657 420.106C418.589 416.728 419.047 413.356 417.683 412.574C416.317 411.791 413.643 413.895 411.713 417.272C409.78 420.649 409.323 424.021 410.687 424.805C412.053 425.587 414.726 423.485 416.657 420.106Z" fill="#4B68B0"/>
<path d="M298.588 352.509C301.808 346.879 302.398 341.16 299.907 339.732C297.417 338.306 292.789 341.711 289.569 347.34C286.351 352.971 285.76 358.69 288.25 360.118C290.741 361.544 295.37 358.138 298.588 352.509Z" fill="#4B68B0"/>
<path d="M296.555 351.347C298.486 347.968 298.944 344.595 297.579 343.814C296.213 343.03 293.54 345.134 291.609 348.511C289.677 351.89 289.219 355.262 290.585 356.044C291.949 356.828 294.623 354.724 296.555 351.347Z" fill="#4B68B0"/>
<path d="M391.878 448.516C397.463 445.226 400.808 440.552 399.353 438.077C397.897 435.601 392.19 436.262 386.607 439.552C381.023 442.842 377.676 447.516 379.132 449.992C380.587 452.467 386.294 451.808 391.878 448.516Z" fill="#4B68B0"/>
<path d="M390.688 446.491C394.039 444.516 396.107 441.815 395.309 440.458C394.511 439.101 391.147 439.601 387.797 441.574C384.447 443.548 382.378 446.249 383.176 447.607C383.974 448.964 387.338 448.464 390.688 446.491Z" fill="#4B68B0"/>
<path d="M321.626 329.078C327.21 325.788 330.557 321.114 329.101 318.64C327.646 316.163 321.939 316.824 316.354 320.114C310.77 323.404 307.423 328.078 308.879 330.555C310.336 333.029 316.043 332.368 321.626 329.078Z" fill="#4B68B0"/>
<path d="M320.436 327.053C323.786 325.079 325.854 322.378 325.056 321.02C324.259 319.663 320.895 320.163 317.544 322.138C314.194 324.111 312.126 326.812 312.924 328.169C313.721 329.526 317.085 329.026 320.436 327.053Z" fill="#4B68B0"/>
<g opacity="0.3">
<path opacity="0.3" d="M196.445 189.042C152.533 200.618 137.281 205.316 137.281 205.316C137.281 205.316 135.102 251.788 154.879 335.841C170.969 403.621 230.804 441.201 264.325 462.508V172.433C264.157 172.433 242.872 176.795 196.445 189.042Z" fill="white"/>
</g>
<g filter="url(#filter1_d)">
<path d="M277.624 180.707C277.624 180.707 298.398 184.926 343.353 196.934C385.875 208.131 400.643 212.674 400.643 212.674C400.643 212.674 402.753 257.623 383.602 338.921C368.022 404.478 310.083 440.827 277.624 461.435C245.165 440.827 187.225 404.478 171.645 338.921C152.332 257.623 154.604 212.674 154.604 212.674C154.604 212.674 169.535 208.131 211.894 196.934C257.012 184.926 277.624 180.707 277.624 180.707Z" fill="#F5F9FF"/>
</g>
<path d="M276.125 465.863L273.833 464.388C241.913 444.054 182.493 406.176 166.615 339.437C147.3 257.776 149.264 211.534 149.264 211.206L149.428 209.238L151.392 208.746C151.556 208.746 166.943 203.991 209.339 192.841C254.19 180.87 275.47 176.443 275.797 176.443L276.289 176.279L276.78 176.443C276.943 176.443 298.223 180.87 343.238 192.841C385.634 203.991 401.021 208.746 401.185 208.746L403.149 209.238L403.313 211.206C403.313 211.698 405.277 257.94 385.962 339.437C370.084 406.34 310.664 444.054 278.744 464.388L276.125 465.863ZM154.83 213.338C154.666 222.849 155.157 266.795 172.017 338.125C187.24 402.404 242.568 437.987 276.125 459.304C309.682 437.987 365.009 402.404 380.232 338.125C397.093 266.631 397.584 222.849 397.42 213.338C392.182 211.862 375.649 207.107 341.601 198.088C300.842 187.265 279.726 182.674 276.125 181.854C272.524 182.674 251.244 187.265 210.648 198.088C176.764 207.107 160.068 211.698 154.83 213.338Z" fill="#C0C0C0"/>
<path d="M327.774 285.759H290.063V248.011H263.079V285.759H225.368V312.603H263.079V350.351H290.063V312.603H327.774V285.759Z" fill="#94C9FF"/>
<g filter="url(#filter2_d)">
<circle cx="58" cy="118" r="25" fill="white"/>
<path d="M56.8826 108.278H58.3729C58.1866 106.974 58.1866 105.608 58.3729 104.304H56.8826C57.0068 105.67 57.0068 106.974 56.8826 108.278Z" fill="#71ACF0"/>
<path d="M52.2872 109.955L53.5913 109.21C52.784 108.154 52.1009 106.974 51.6041 105.732L50.3 106.477C51.1073 107.533 51.7904 108.713 52.2872 109.955Z" fill="#71ACF0"/>
<path d="M49.1201 113.619L49.8653 112.315C48.6233 111.818 47.5055 111.135 46.3878 110.328L45.6426 111.632C46.9466 112.128 48.0644 112.812 49.1201 113.619Z" fill="#71ACF0"/>
<path d="M48.2509 118.4V116.91C46.9468 117.096 45.5807 117.096 44.2766 116.91V118.4C45.6428 118.214 46.9468 118.214 48.2509 118.4Z" fill="#71ACF0"/>
<path d="M49.9275 122.996L49.1823 121.692C48.1267 122.499 46.9468 123.182 45.7048 123.679L46.45 124.983C47.5057 124.176 48.6856 123.492 49.9275 122.996Z" fill="#71ACF0"/>
<path d="M53.5913 126.101L52.2872 125.355C51.7904 126.597 51.1073 127.715 50.3 128.833L51.6041 129.578C52.1009 128.336 52.784 127.218 53.5913 126.101Z" fill="#71ACF0"/>
<path d="M58.3729 126.97H56.8826C57.0689 128.274 57.0689 129.64 56.8826 130.944H58.3729C58.1866 129.64 58.1866 128.336 58.3729 126.97Z" fill="#71ACF0"/>
<path d="M62.9681 125.355L61.6641 126.101C62.4713 127.156 63.1544 128.336 63.6512 129.578L64.9553 128.833C64.148 127.777 63.4649 126.597 62.9681 125.355Z" fill="#71ACF0"/>
<path d="M66.0731 121.692L65.3279 122.996C66.5699 123.492 67.6876 124.176 68.8054 124.983L69.5506 123.679C68.3086 123.12 67.1908 122.499 66.0731 121.692Z" fill="#71ACF0"/>
<path d="M66.9424 116.91V118.4C68.2465 118.214 69.6126 118.214 70.9167 118.4V116.91C69.6126 117.034 68.3085 117.034 66.9424 116.91Z" fill="#71ACF0"/>
<path d="M65.3279 112.315L66.0731 113.619C67.1287 112.812 68.3086 112.128 69.5506 111.632L68.8054 110.328C67.7497 111.135 66.5699 111.818 65.3279 112.315Z" fill="#71ACF0"/>
<path d="M61.6641 109.148L62.9681 109.893C63.4649 108.651 64.148 107.533 64.9553 106.415L63.6512 105.67C63.0923 106.974 62.4713 108.092 61.6641 109.148Z" fill="#71ACF0"/>
<path d="M57.6276 128.274C63.4923 128.274 68.2465 123.52 68.2465 117.655C68.2465 111.791 63.4923 107.036 57.6276 107.036C51.763 107.036 47.0088 111.791 47.0088 117.655C47.0088 123.52 51.763 128.274 57.6276 128.274Z" fill="#71ACF0"/>
<path d="M68.2466 117.655C68.2466 118.959 67.9982 120.139 67.6257 121.257C67.3773 122.002 67.0047 122.685 66.6321 123.306C65.328 125.355 63.3408 126.97 60.9811 127.715C59.9254 128.026 58.8077 128.212 57.6899 128.212C51.8526 128.212 47.071 123.492 47.071 117.593C47.071 116.413 47.2573 115.358 47.6299 114.302C48.3751 111.942 49.9897 109.955 52.0389 108.651C52.6599 108.216 53.343 107.906 54.0882 107.657C55.2059 107.223 56.4479 107.036 57.6899 107.036C63.4651 107.036 68.2466 111.818 68.2466 117.655Z" fill="#71ACF0"/>
<path opacity="0.4" d="M61.4779 124.424C61.4779 125.604 61.2916 126.66 60.9811 127.715C59.9254 128.026 58.8077 128.212 57.6899 128.212C51.8526 128.212 47.071 123.492 47.071 117.593C47.071 116.413 47.2573 115.358 47.6299 114.302C48.6856 113.991 49.8034 113.805 50.9211 113.805C56.6963 113.805 61.4779 118.587 61.4779 124.424Z" fill="#4B68B0"/>
<path opacity="0.3" d="M68.2464 117.655C68.2464 118.959 67.998 120.139 67.6254 121.257C67.3771 122.002 67.0045 122.685 66.6319 123.306C65.0173 124.362 63.0301 124.921 60.9809 124.921C55.1436 124.921 50.3621 120.201 50.3621 114.302C50.3621 112.191 50.983 110.265 51.9766 108.651C52.5976 108.216 53.2807 107.906 54.0259 107.657C55.1436 107.223 56.3856 107.036 57.6276 107.036C63.4648 107.036 68.2464 111.818 68.2464 117.655Z" fill="white"/>
<path opacity="0.3" d="M59.2423 112.377C59.6882 112.377 60.0496 112.015 60.0496 111.57C60.0496 111.124 59.6882 110.762 59.2423 110.762C58.7965 110.762 58.4351 111.124 58.4351 111.57C58.4351 112.015 58.7965 112.377 59.2423 112.377Z" fill="white"/>
<path d="M65.2659 120.263C65.746 120.263 66.1352 119.874 66.1352 119.394C66.1352 118.914 65.746 118.525 65.2659 118.525C64.7857 118.525 64.3965 118.914 64.3965 119.394C64.3965 119.874 64.7857 120.263 65.2659 120.263Z" fill="#4B68B0"/>
<path d="M50.5486 118.525C51.406 118.525 52.101 117.83 52.101 116.972C52.101 116.115 51.406 115.42 50.5486 115.42C49.6912 115.42 48.9961 116.115 48.9961 116.972C48.9961 117.83 49.6912 118.525 50.5486 118.525Z" fill="#4B68B0"/>
<path d="M59.8633 116.103C60.5492 116.103 61.1053 115.547 61.1053 114.861C61.1053 114.175 60.5492 113.619 59.8633 113.619C59.1774 113.619 58.6213 114.175 58.6213 114.861C58.6213 115.547 59.1774 116.103 59.8633 116.103Z" fill="#4B68B0"/>
<path d="M62.0988 124.548C62.4417 124.548 62.7198 124.27 62.7198 123.927C62.7198 123.584 62.4417 123.306 62.0988 123.306C61.7558 123.306 61.4778 123.584 61.4778 123.927C61.4778 124.27 61.7558 124.548 62.0988 124.548Z" fill="#4B68B0"/>
<path opacity="0.3" d="M53.5291 113.557C54.3179 113.557 54.9574 112.917 54.9574 112.128C54.9574 111.34 54.3179 110.7 53.5291 110.7C52.7403 110.7 52.1008 111.34 52.1008 112.128C52.1008 112.917 52.7403 113.557 53.5291 113.557Z" fill="white"/>
<path d="M56.9446 110.141C57.2533 110.141 57.5035 109.891 57.5035 109.582C57.5035 109.274 57.2533 109.024 56.9446 109.024C56.636 109.024 56.3857 109.274 56.3857 109.582C56.3857 109.891 56.636 110.141 56.9446 110.141Z" fill="#4B68B0"/>
<path d="M64.3964 113.308C64.7393 113.308 65.0174 113.03 65.0174 112.687C65.0174 112.344 64.7393 112.066 64.3964 112.066C64.0534 112.066 63.7754 112.344 63.7754 112.687C63.7754 113.03 64.0534 113.308 64.3964 113.308Z" fill="#4B68B0"/>
<path opacity="0.3" d="M55.0816 124.859C55.8704 124.859 56.5098 124.219 56.5098 123.43C56.5098 122.642 55.8704 122.002 55.0816 122.002C54.2928 122.002 53.6533 122.642 53.6533 123.43C53.6533 124.219 54.2928 124.859 55.0816 124.859Z" fill="white"/>
<path opacity="0.3" d="M66.011 115.544C66.3882 115.544 66.6941 115.238 66.6941 114.861C66.6941 114.484 66.3882 114.178 66.011 114.178C65.6337 114.178 65.3279 114.484 65.3279 114.861C65.3279 115.238 65.6337 115.544 66.011 115.544Z" fill="white"/>
<path d="M57.5657 104.987C58.8347 104.987 59.8634 104.542 59.8634 103.994C59.8634 103.445 58.8347 103 57.5657 103C56.2968 103 55.2681 103.445 55.2681 103.994C55.2681 104.542 56.2968 104.987 57.5657 104.987Z" fill="#4B68B0"/>
<path d="M57.5656 104.552C58.3201 104.552 58.9318 104.302 58.9318 103.994C58.9318 103.685 58.3201 103.435 57.5656 103.435C56.8111 103.435 56.1995 103.685 56.1995 103.994C56.1995 104.302 56.8111 104.552 57.5656 104.552Z" fill="#4B68B0"/>
<path d="M57.5657 132C58.8347 132 59.8634 131.555 59.8634 131.006C59.8634 130.458 58.8347 130.013 57.5657 130.013C56.2968 130.013 55.2681 130.458 55.2681 131.006C55.2681 131.555 56.2968 132 57.5657 132Z" fill="#4B68B0"/>
<path d="M57.5656 131.565C58.3201 131.565 58.9318 131.315 58.9318 131.006C58.9318 130.698 58.3201 130.448 57.5656 130.448C56.8111 130.448 56.1995 130.698 56.1995 131.006C56.1995 131.315 56.8111 131.565 57.5656 131.565Z" fill="#4B68B0"/>
<path d="M66.3639 107.018C66.6414 106.545 65.979 105.641 64.8843 104.999C63.7895 104.357 62.6771 104.22 62.3995 104.694C62.122 105.167 62.7844 106.071 63.8792 106.713C64.9739 107.355 66.0863 107.491 66.3639 107.018Z" fill="#4B68B0"/>
<path d="M65.5593 106.546C65.7154 106.28 65.3143 105.754 64.6634 105.373C64.0125 104.991 63.3582 104.898 63.2021 105.164C63.046 105.43 63.4471 105.955 64.098 106.337C64.7489 106.719 65.4032 106.812 65.5593 106.546Z" fill="#4B68B0"/>
<path d="M52.7049 130.313C52.9825 129.84 52.32 128.936 51.2253 128.294C50.1306 127.652 49.0181 127.515 48.7406 127.989C48.463 128.462 49.1255 129.366 50.2202 130.008C51.3149 130.65 52.4274 130.786 52.7049 130.313Z" fill="#4B68B0"/>
<path d="M51.9011 129.842C52.0572 129.575 51.6561 129.05 51.0052 128.668C50.3543 128.287 49.7 128.193 49.5439 128.46C49.3878 128.726 49.7889 129.251 50.4398 129.633C51.0907 130.014 51.745 130.108 51.9011 129.842Z" fill="#4B68B0"/>
<path d="M70.4915 112.939C70.9703 112.671 70.856 111.556 70.2363 110.449C69.6165 109.341 68.7259 108.661 68.2471 108.929C67.7683 109.197 67.8825 110.312 68.5023 111.419C69.1221 112.526 70.0126 113.207 70.4915 112.939Z" fill="#4B68B0"/>
<path d="M70.036 112.124C70.3054 111.973 70.225 111.317 69.8565 110.659C69.488 110.001 68.9709 109.589 68.7015 109.74C68.4322 109.891 68.5126 110.547 68.8811 111.205C69.2496 111.863 69.7667 112.275 70.036 112.124Z" fill="#4B68B0"/>
<path d="M46.8899 126.125C47.3687 125.857 47.2545 124.742 46.6347 123.635C46.015 122.527 45.1244 121.847 44.6456 122.115C44.1667 122.383 44.281 123.498 44.9007 124.605C45.5205 125.713 46.4111 126.393 46.8899 126.125Z" fill="#4B68B0"/>
<path d="M46.4345 125.31C46.7038 125.159 46.6234 124.503 46.2549 123.845C45.8864 123.187 45.3693 122.775 45.1 122.926C44.8306 123.076 44.911 123.732 45.2795 124.391C45.648 125.049 46.1651 125.461 46.4345 125.31Z" fill="#4B68B0"/>
<path d="M72.0401 117.825C72.0655 116.556 71.6413 115.519 71.0927 115.508C70.5441 115.497 70.0787 116.517 70.0533 117.785C70.0279 119.054 70.4521 120.091 71.0007 120.102C71.5493 120.113 72.0147 119.094 72.0401 117.825Z" fill="#4B68B0"/>
<path d="M71.6054 117.816C71.6205 117.062 71.3825 116.446 71.0739 116.439C70.7653 116.433 70.5029 117.04 70.4878 117.794C70.4727 118.548 70.7106 119.165 71.0192 119.171C71.3278 119.177 71.5902 118.571 71.6054 117.816Z" fill="#4B68B0"/>
<path d="M45.0328 117.245C45.0582 115.976 44.634 114.939 44.0854 114.928C43.5368 114.917 43.0714 115.936 43.046 117.205C43.0206 118.474 43.4447 119.511 43.9934 119.522C44.542 119.533 45.0074 118.514 45.0328 117.245Z" fill="#4B68B0"/>
<path d="M44.598 117.236C44.6131 116.482 44.3752 115.865 44.0666 115.859C43.758 115.853 43.4956 116.459 43.4805 117.214C43.4654 117.968 43.7033 118.585 44.0119 118.591C44.3205 118.597 44.5829 117.991 44.598 117.236Z" fill="#4B68B0"/>
<path d="M70.1627 124.696C70.7932 123.595 70.9181 122.481 70.4419 122.209C69.9656 121.936 69.0685 122.608 68.4381 123.709C67.8077 124.811 67.6827 125.924 68.159 126.197C68.6352 126.47 69.5323 125.798 70.1627 124.696Z" fill="#4B68B0"/>
<path d="M69.7841 124.479C70.1589 123.824 70.2456 123.169 69.9777 123.016C69.7098 122.862 69.1888 123.269 68.814 123.924C68.4391 124.579 68.3524 125.234 68.6203 125.387C68.8882 125.54 69.4092 125.134 69.7841 124.479Z" fill="#4B68B0"/>
<path d="M46.7099 111.324C47.3403 110.222 47.4653 109.108 46.989 108.836C46.5128 108.563 45.6156 109.235 44.9852 110.336C44.3548 111.438 44.2298 112.552 44.7061 112.824C45.1823 113.097 46.0795 112.425 46.7099 111.324Z" fill="#4B68B0"/>
<path d="M46.3329 111.108C46.7077 110.453 46.7945 109.798 46.5266 109.645C46.2587 109.491 45.7376 109.898 45.3628 110.553C44.988 111.207 44.9013 111.863 45.1691 112.016C45.437 112.169 45.9581 111.763 46.3329 111.108Z" fill="#4B68B0"/>
<path d="M64.9008 130.003C65.9944 129.359 66.6552 128.454 66.3769 127.981C66.0985 127.508 64.9863 127.646 63.8927 128.29C62.7991 128.934 62.1383 129.839 62.4166 130.312C62.695 130.785 63.8072 130.646 64.9008 130.003Z" fill="#4B68B0"/>
<path d="M64.6804 129.629C65.3307 129.246 65.7309 128.72 65.5743 128.454C65.4177 128.188 64.7636 128.283 64.1134 128.665C63.4632 129.048 63.063 129.574 63.2196 129.84C63.3761 130.106 64.0302 130.011 64.6804 129.629Z" fill="#4B68B0"/>
<path d="M51.2197 106.713C52.3133 106.069 52.9742 105.164 52.6959 104.691C52.4175 104.218 51.3054 104.357 50.2118 105C49.1182 105.644 48.4573 106.549 48.7356 107.022C49.014 107.495 50.1261 107.356 51.2197 106.713Z" fill="#4B68B0"/>
<path d="M51.0012 106.327C51.6515 105.944 52.0517 105.418 51.8951 105.152C51.7385 104.886 51.0844 104.981 50.4342 105.363C49.784 105.746 49.3838 106.272 49.5404 106.538C49.6969 106.804 50.351 106.709 51.0012 106.327Z" fill="#4B68B0"/>
</g>
<g filter="url(#filter3_d)">
<circle cx="242" cy="36" r="36" fill="white"/>
<path d="M240.391 22.0009H242.537C242.269 20.123 242.269 18.1558 242.537 16.2779H240.391C240.57 18.2452 240.57 20.123 240.391 22.0009Z" fill="#71ACF0"/>
<path d="M233.774 24.4153L235.651 23.3422C234.489 21.822 233.505 20.123 232.79 18.3346L230.912 19.4077C232.075 20.9278 233.058 22.6268 233.774 24.4153Z" fill="#71ACF0"/>
<path d="M229.213 29.6912L230.286 27.8133C228.498 27.0979 226.888 26.1143 225.278 24.9518L224.205 26.8297C226.083 27.545 227.693 28.5287 229.213 29.6912Z" fill="#71ACF0"/>
<path d="M227.961 36.5766V34.4305C226.083 34.6988 224.116 34.6988 222.238 34.4305V36.5766C224.205 36.3084 226.083 36.3084 227.961 36.5766Z" fill="#71ACF0"/>
<path d="M230.376 43.1939L229.303 41.316C227.782 42.4785 226.083 43.4621 224.295 44.1775L225.368 46.0554C226.888 44.8929 228.587 43.9092 230.376 43.1939Z" fill="#71ACF0"/>
<path d="M235.651 47.665L233.774 46.5919C233.058 48.3803 232.075 49.9899 230.912 51.5995L232.79 52.6726C233.505 50.8841 234.489 49.2745 235.651 47.665Z" fill="#71ACF0"/>
<path d="M242.537 48.9169H240.391C240.659 50.7947 240.659 52.762 240.391 54.6399H242.537C242.269 52.762 242.269 50.8842 242.537 48.9169Z" fill="#71ACF0"/>
<path d="M249.154 46.5919L247.276 47.665C248.439 49.1851 249.422 50.8841 250.138 52.6726L252.015 51.5995C250.853 50.0793 249.869 48.3803 249.154 46.5919Z" fill="#71ACF0"/>
<path d="M253.625 41.316L252.552 43.1939C254.34 43.9092 255.95 44.8929 257.56 46.0554L258.633 44.1775C256.844 43.3727 255.235 42.4785 253.625 41.316Z" fill="#71ACF0"/>
<path d="M254.877 34.4305V36.5766C256.755 36.3084 258.722 36.3084 260.6 36.5766V34.4305C258.722 34.6094 256.844 34.6094 254.877 34.4305Z" fill="#71ACF0"/>
<path d="M252.552 27.8133L253.625 29.6912C255.145 28.5287 256.844 27.545 258.633 26.8297L257.56 24.9518C256.039 26.1143 254.34 27.0979 252.552 27.8133Z" fill="#71ACF0"/>
<path d="M247.276 23.2528L249.154 24.3258C249.869 22.5374 250.853 20.9278 252.015 19.3182L250.138 18.2451C249.333 20.123 248.439 21.7326 247.276 23.2528Z" fill="#71ACF0"/>
<path d="M241.464 50.7947C249.909 50.7947 256.755 43.9487 256.755 35.5036C256.755 27.0585 249.909 20.2125 241.464 20.2125C233.019 20.2125 226.173 27.0585 226.173 35.5036C226.173 43.9487 233.019 50.7947 241.464 50.7947Z" fill="#71ACF0"/>
<path d="M256.755 35.5036C256.755 37.3815 256.397 39.0805 255.861 40.6901C255.503 41.7631 254.966 42.7468 254.43 43.641C252.552 46.5919 249.69 48.9169 246.292 49.9899C244.772 50.437 243.163 50.7053 241.553 50.7053C233.147 50.7053 226.262 43.9092 226.262 35.4142C226.262 33.7152 226.53 32.195 227.067 30.6748C228.14 27.2768 230.465 24.4153 233.416 22.5374C234.31 21.9115 235.294 21.4644 236.367 21.1067C237.976 20.4807 239.765 20.2125 241.553 20.2125C249.869 20.2125 256.755 27.0979 256.755 35.5036Z" fill="#71ACF0"/>
<path opacity="0.4" d="M247.008 45.2506C247.008 46.9496 246.74 48.4698 246.292 49.9899C244.772 50.437 243.163 50.7053 241.553 50.7053C233.147 50.7053 226.262 43.9092 226.262 35.4142C226.262 33.7152 226.53 32.195 227.067 30.6748C228.587 30.2277 230.197 29.9594 231.806 29.9594C240.122 29.9594 247.008 36.8449 247.008 45.2506Z" fill="#4B68B0"/>
<path opacity="0.3" d="M256.755 35.5036C256.755 37.3815 256.397 39.0805 255.861 40.6901C255.503 41.7631 254.967 42.7468 254.43 43.641C252.105 45.1612 249.244 45.966 246.293 45.966C237.887 45.966 231.001 39.1699 231.001 30.6748C231.001 27.6345 231.896 24.8624 233.326 22.5374C234.221 21.9115 235.204 21.4644 236.277 21.1067C237.887 20.4807 239.675 20.2125 241.464 20.2125C249.869 20.2125 256.755 27.0979 256.755 35.5036Z" fill="white"/>
<path opacity="0.3" d="M243.789 27.9027C244.431 27.9027 244.951 27.3823 244.951 26.7402C244.951 26.0982 244.431 25.5778 243.789 25.5778C243.147 25.5778 242.626 26.0982 242.626 26.7402C242.626 27.3823 243.147 27.9027 243.789 27.9027Z" fill="white"/>
<path d="M252.463 39.2593C253.154 39.2593 253.715 38.6988 253.715 38.0074C253.715 37.316 253.154 36.7555 252.463 36.7555C251.771 36.7555 251.211 37.316 251.211 38.0074C251.211 38.6988 251.771 39.2593 252.463 39.2593Z" fill="#4B68B0"/>
<path d="M231.27 36.7555C232.504 36.7555 233.505 35.7546 233.505 34.5199C233.505 33.2853 232.504 32.2844 231.27 32.2844C230.035 32.2844 229.034 33.2853 229.034 34.5199C229.034 35.7546 230.035 36.7555 231.27 36.7555Z" fill="#4B68B0"/>
<path d="M244.683 33.268C245.671 33.268 246.471 32.4673 246.471 31.4796C246.471 30.4919 245.671 29.6912 244.683 29.6912C243.695 29.6912 242.895 30.4919 242.895 31.4796C242.895 32.4673 243.695 33.268 244.683 33.268Z" fill="#4B68B0"/>
<path d="M247.902 45.4294C248.396 45.4294 248.796 45.0291 248.796 44.5352C248.796 44.0413 248.396 43.641 247.902 43.641C247.408 43.641 247.008 44.0413 247.008 44.5352C247.008 45.0291 247.408 45.4294 247.902 45.4294Z" fill="#4B68B0"/>
<path opacity="0.3" d="M235.562 29.6017C236.698 29.6017 237.619 28.6809 237.619 27.545C237.619 26.4092 236.698 25.4883 235.562 25.4883C234.426 25.4883 233.505 26.4092 233.505 27.545C233.505 28.6809 234.426 29.6017 235.562 29.6017Z" fill="white"/>
<path d="M240.48 24.6835C240.925 24.6835 241.285 24.3232 241.285 23.8787C241.285 23.4343 240.925 23.0739 240.48 23.0739C240.036 23.0739 239.675 23.4343 239.675 23.8787C239.675 24.3232 240.036 24.6835 240.48 24.6835Z" fill="#4B68B0"/>
<path d="M251.211 29.244C251.705 29.244 252.105 28.8437 252.105 28.3498C252.105 27.856 251.705 27.4556 251.211 27.4556C250.717 27.4556 250.317 27.856 250.317 28.3498C250.317 28.8437 250.717 29.244 251.211 29.244Z" fill="#4B68B0"/>
<path opacity="0.3" d="M237.797 45.8765C238.933 45.8765 239.854 44.9557 239.854 43.8198C239.854 42.6839 238.933 41.7631 237.797 41.7631C236.662 41.7631 235.741 42.6839 235.741 43.8198C235.741 44.9557 236.662 45.8765 237.797 45.8765Z" fill="white"/>
<path opacity="0.3" d="M253.536 32.4633C254.079 32.4633 254.519 32.0229 254.519 31.4796C254.519 30.9364 254.079 30.496 253.536 30.496C252.992 30.496 252.552 30.9364 252.552 31.4796C252.552 32.0229 252.992 32.4633 253.536 32.4633Z" fill="white"/>
<path d="M241.374 17.2615C243.202 17.2615 244.683 16.621 244.683 15.8308C244.683 15.0406 243.202 14.4 241.374 14.4C239.547 14.4 238.066 15.0406 238.066 15.8308C238.066 16.621 239.547 17.2615 241.374 17.2615Z" fill="#4B68B0"/>
<path d="M241.374 16.6356C242.461 16.6356 243.342 16.2753 243.342 15.8308C243.342 15.3863 242.461 15.026 241.374 15.026C240.288 15.026 239.407 15.3863 239.407 15.8308C239.407 16.2753 240.288 16.6356 241.374 16.6356Z" fill="#4B68B0"/>
<path d="M241.374 56.16C243.202 56.16 244.683 55.5195 244.683 54.7293C244.683 53.9391 243.202 53.2985 241.374 53.2985C239.547 53.2985 238.066 53.9391 238.066 54.7293C238.066 55.5195 239.547 56.16 241.374 56.16Z" fill="#4B68B0"/>
<path d="M241.374 55.5341C242.461 55.5341 243.342 55.1738 243.342 54.7293C243.342 54.2848 242.461 53.9245 241.374 53.9245C240.288 53.9245 239.407 54.2848 239.407 54.7293C239.407 55.1738 240.288 55.5341 241.374 55.5341Z" fill="#4B68B0"/>
<path d="M254.044 20.186C254.444 19.5043 253.49 18.2024 251.913 17.2782C250.337 16.3539 248.735 16.1573 248.335 16.839C247.936 17.5207 248.89 18.8225 250.466 19.7468C252.042 20.671 253.644 20.8676 254.044 20.186Z" fill="#4B68B0"/>
<path d="M252.885 19.5063C253.11 19.1228 252.533 18.3665 251.595 17.8169C250.658 17.2674 249.716 17.1327 249.491 17.5162C249.266 17.8996 249.844 18.6559 250.781 19.2055C251.718 19.7551 252.661 19.8897 252.885 19.5063Z" fill="#4B68B0"/>
<path d="M234.375 53.7309C234.775 53.0492 233.821 51.7473 232.244 50.823C230.668 49.8988 229.066 49.7022 228.666 50.3839C228.267 51.0656 229.221 52.3674 230.797 53.2917C232.373 54.2159 233.975 54.4125 234.375 53.7309Z" fill="#4B68B0"/>
<path d="M233.217 53.052C233.442 52.6685 232.865 51.9122 231.927 51.3626C230.99 50.8131 230.048 50.6784 229.823 51.0619C229.598 51.4453 230.176 52.2017 231.113 52.7512C232.051 53.3008 232.993 53.4354 233.217 53.052Z" fill="#4B68B0"/>
<path d="M259.987 28.712C260.677 28.3261 260.512 26.7206 259.62 25.1261C258.727 23.5316 257.445 22.5519 256.756 22.9378C256.066 23.3237 256.231 24.9292 257.123 26.5237C258.015 28.1182 259.298 29.0979 259.987 28.712Z" fill="#4B68B0"/>
<path d="M259.331 27.5389C259.719 27.3218 259.604 26.3772 259.073 25.4291C258.542 24.4811 257.798 23.8885 257.41 24.1056C257.022 24.3226 257.138 25.2672 257.668 26.2153C258.199 27.1634 258.944 27.7559 259.331 27.5389Z" fill="#4B68B0"/>
<path d="M226.001 47.7C226.691 47.3141 226.526 45.7086 225.634 44.1141C224.741 42.5196 223.459 41.5399 222.769 41.9258C222.08 42.3118 222.244 43.9172 223.137 45.5117C224.029 47.1062 225.312 48.0859 226.001 47.7Z" fill="#4B68B0"/>
<path d="M225.346 46.5264C225.733 46.3093 225.618 45.3648 225.087 44.4167C224.556 43.4686 223.812 42.876 223.424 43.0931C223.036 43.3102 223.152 44.2547 223.682 45.2028C224.213 46.1509 224.958 46.7435 225.346 46.5264Z" fill="#4B68B0"/>
<path d="M262.218 35.7482C262.254 33.9213 261.644 32.4274 260.853 32.4116C260.063 32.3958 259.393 33.864 259.357 35.6909C259.32 37.5178 259.931 39.0117 260.721 39.0275C261.511 39.0433 262.181 37.5751 262.218 35.7482Z" fill="#4B68B0"/>
<path d="M261.592 35.7357C261.614 34.6495 261.271 33.7616 260.827 33.7527C260.382 33.7438 260.004 34.6172 259.983 35.7035C259.961 36.7898 260.303 37.6776 260.748 37.6865C261.192 37.6954 261.57 36.822 261.592 35.7357Z" fill="#4B68B0"/>
<path d="M223.327 34.9128C223.364 33.0859 222.753 31.5921 221.963 31.5762C221.173 31.5604 220.503 33.0286 220.466 34.8555C220.43 36.6825 221.04 38.1763 221.83 38.1921C222.62 38.208 223.29 36.7398 223.327 34.9128Z" fill="#4B68B0"/>
<path d="M222.701 34.9002C222.723 33.8139 222.38 32.9261 221.936 32.9172C221.492 32.9083 221.114 33.7817 221.092 34.868C221.07 35.9542 221.413 36.8421 221.857 36.851C222.302 36.8599 222.679 35.9865 222.701 34.9002Z" fill="#4B68B0"/>
<path d="M259.514 45.6429C260.422 44.057 260.602 42.4532 259.916 42.0606C259.23 41.6681 257.938 42.6354 257.031 44.2214C256.123 45.8073 255.943 47.4111 256.629 47.8037C257.315 48.1963 258.606 47.2289 259.514 45.6429Z" fill="#4B68B0"/>
<path d="M258.969 45.3298C259.509 44.3869 259.633 43.4434 259.248 43.2226C258.862 43.0018 258.112 43.5872 257.572 44.5302C257.032 45.4732 256.907 46.4166 257.293 46.6374C257.679 46.8582 258.429 46.2728 258.969 45.3298Z" fill="#4B68B0"/>
<path d="M225.742 26.3861C226.65 24.8002 226.83 23.1963 226.144 22.8037C225.458 22.4112 224.166 23.3786 223.258 24.9645C222.351 26.5504 222.171 28.1543 222.856 28.5468C223.542 28.9394 224.834 27.972 225.742 26.3861Z" fill="#4B68B0"/>
<path d="M225.199 26.0755C225.739 25.1325 225.864 24.1891 225.478 23.9682C225.092 23.7474 224.342 24.3328 223.802 25.2758C223.262 26.2188 223.137 27.1622 223.523 27.383C223.909 27.6039 224.659 27.0184 225.199 26.0755Z" fill="#4B68B0"/>
<path d="M251.937 53.284C253.512 52.357 254.463 51.0534 254.063 50.3725C253.662 49.6915 252.06 49.8909 250.485 50.8179C248.911 51.7449 247.959 53.0484 248.36 53.7294C248.761 54.4104 250.362 54.2109 251.937 53.284Z" fill="#4B68B0"/>
<path d="M251.62 52.7453C252.556 52.1941 253.132 51.4368 252.907 51.0537C252.681 50.6707 251.739 50.807 250.803 51.3581C249.867 51.9093 249.29 52.6667 249.516 53.0497C249.741 53.4328 250.683 53.2965 251.62 52.7453Z" fill="#4B68B0"/>
<path d="M232.236 19.7465C233.811 18.8197 234.763 17.5164 234.362 16.8354C233.961 16.1544 232.36 16.3537 230.785 17.2805C229.21 18.2073 228.258 19.5107 228.659 20.1916C229.06 20.8726 230.662 20.6733 232.236 19.7465Z" fill="#4B68B0"/>
<path d="M231.922 19.1905C232.858 18.6393 233.434 17.8819 233.209 17.4989C232.983 17.1158 232.041 17.2521 231.105 17.8033C230.169 18.3545 229.592 19.1119 229.818 19.4949C230.043 19.878 230.985 19.7417 231.922 19.1905Z" fill="#4B68B0"/>
</g>
<defs>
<filter id="filter0_d" x="0.519043" y="95" width="498.817" height="498.817" filterUnits="userSpaceOnUse" color-interpolation-filters="sRGB">
<feFlood flood-opacity="0" result="BackgroundImageFix"/>
<feColorMatrix in="SourceAlpha" type="matrix" values="0 0 0 0 0 0 0 0 0 0 0 0 0 0 0 0 0 0 127 0" result="hardAlpha"/>
<feOffset dy="45"/>
<feGaussianBlur stdDeviation="22.5"/>
<feComposite in2="hardAlpha" operator="out"/>
<feColorMatrix type="matrix" values="0 0 0 0 0.580392 0 0 0 0 0.788235 0 0 0 0 1 0 0 0 0.4 0"/>
<feBlend mode="normal" in2="BackgroundImageFix" result="effect1_dropShadow"/>
<feBlend mode="normal" in="SourceGraphic" in2="effect1_dropShadow" result="shape"/>
</filter>
<filter id="filter1_d" x="138.521" y="168.707" width="278.191" height="312.729" filterUnits="userSpaceOnUse" color-interpolation-filters="sRGB">
<feFlood flood-opacity="0" result="BackgroundImageFix"/>
<feColorMatrix in="SourceAlpha" type="matrix" values="0 0 0 0 0 0 0 0 0 0 0 0 0 0 0 0 0 0 127 0" result="hardAlpha"/>
<feOffset dy="4"/>
<feGaussianBlur stdDeviation="8"/>
<feComposite in2="hardAlpha" operator="out"/>
<feColorMatrix type="matrix" values="0 0 0 0 0.113725 0 0 0 0 0.141176 0 0 0 0 0.305882 0 0 0 1 0"/>
<feBlend mode="normal" in2="BackgroundImageFix" result="effect1_dropShadow"/>
<feBlend mode="normal" in="SourceGraphic" in2="effect1_dropShadow" result="shape"/>
</filter>
<filter id="filter2_d" x="29" y="93" width="58" height="58" filterUnits="userSpaceOnUse" color-interpolation-filters="sRGB">
<feFlood flood-opacity="0" result="BackgroundImageFix"/>
<feColorMatrix in="SourceAlpha" type="matrix" values="0 0 0 0 0 0 0 0 0 0 0 0 0 0 0 0 0 0 127 0" result="hardAlpha"/>
<feOffset dy="4"/>
<feGaussianBlur stdDeviation="2"/>
<feComposite in2="hardAlpha" operator="out"/>
<feColorMatrix type="matrix" values="0 0 0 0 0.580392 0 0 0 0 0.788235 0 0 0 0 1 0 0 0 0.25 0"/>
<feBlend mode="normal" in2="BackgroundImageFix" result="effect1_dropShadow"/>
<feBlend mode="normal" in="SourceGraphic" in2="effect1_dropShadow" result="shape"/>
</filter>
<filter id="filter3_d" x="202" y="0" width="80" height="80" filterUnits="userSpaceOnUse" color-interpolation-filters="sRGB">
<feFlood flood-opacity="0" result="BackgroundImageFix"/>
<feColorMatrix in="SourceAlpha" type="matrix" values="0 0 0 0 0 0 0 0 0 0 0 0 0 0 0 0 0 0 127 0" result="hardAlpha"/>
<feOffset dy="4"/>
<feGaussianBlur stdDeviation="2"/>
<feComposite in2="hardAlpha" operator="out"/>
<feColorMatrix type="matrix" values="0 0 0 0 0.580392 0 0 0 0 0.788235 0 0 0 0 1 0 0 0 0.25 0"/>
<feBlend mode="normal" in2="BackgroundImageFix" result="effect1_dropShadow"/>
<feBlend mode="normal" in="SourceGraphic" in2="effect1_dropShadow" result="shape"/>
</filter>
</defs>
</svg>
