<svg width="586" height="585" viewBox="0 0 586 585" fill="none" xmlns="http://www.w3.org/2000/svg">
<g filter="url(#filter0_d)">
<circle cx="293.179" cy="247.737" r="209.263" fill="#C1D1ED"/>
<circle cx="293.179" cy="247.737" r="199.263" stroke="white" stroke-width="20"/>
</g>
<path d="M231.355 80.135H249.159C247.234 64.4809 247.234 48.8267 249.159 33.1725H231.355C233.28 48.8267 233.28 64.4809 231.355 80.135Z" fill="#71ACF0"/>
<path d="M177.462 99.4018L192.86 90.4909C183.236 77.9676 175.537 64.2401 169.282 49.79L153.884 58.7009C163.508 71.2242 171.207 84.9518 177.462 99.4018Z" fill="#71ACF0"/>
<path d="M140.17 143.233L149.072 127.82C134.637 121.799 120.923 113.852 108.412 104.218L99.5098 119.632C114.186 125.653 127.659 133.6 140.17 143.233Z" fill="#71ACF0"/>
<path d="M130.065 199.589V181.767C114.426 183.694 98.7877 183.694 83.1489 181.767V199.589C98.5471 197.421 114.186 197.421 130.065 199.589Z" fill="#71ACF0"/>
<path d="M149.072 253.535L140.17 238.122C127.659 247.755 113.945 255.462 99.5098 261.724L108.412 277.137C121.163 267.504 134.637 259.556 149.072 253.535Z" fill="#71ACF0"/>
<path d="M192.86 290.624L177.462 281.713C171.447 296.163 163.508 309.89 153.884 322.414L169.282 331.325C175.297 316.875 183.236 303.147 192.86 290.624Z" fill="#71ACF0"/>
<path d="M249.159 300.98H231.355C233.28 316.634 233.28 332.288 231.355 347.942H249.159C247.234 332.288 247.234 316.634 249.159 300.98Z" fill="#71ACF0"/>
<path d="M303.053 281.713L287.655 290.624C297.279 303.147 304.977 316.875 311.233 331.325L326.631 322.414C317.008 309.89 309.068 296.163 303.053 281.713Z" fill="#71ACF0"/>
<path d="M340.105 238.122L331.203 253.535C345.638 259.556 359.352 267.504 371.863 277.137L380.765 261.724C366.329 255.462 352.616 247.515 340.105 238.122Z" fill="#71ACF0"/>
<path d="M350.45 181.767V199.589C366.088 197.662 381.727 197.662 397.366 199.589V181.767C381.727 183.694 366.088 183.694 350.45 181.767Z" fill="#71ACF0"/>
<path d="M331.203 127.82L340.105 143.233C352.616 133.6 366.329 125.893 380.765 119.632L371.863 104.218C359.352 113.852 345.879 121.558 331.203 127.82Z" fill="#71ACF0"/>
<path d="M287.655 90.4909L303.053 99.4018C309.068 84.9518 317.008 71.2242 326.631 58.7009L311.233 49.79C304.977 64.4809 297.038 77.9676 287.655 90.4909Z" fill="#71ACF0"/>
<path d="M240.257 315.911C309.354 315.911 365.367 259.843 365.367 190.678C365.367 121.513 309.354 65.4442 240.257 65.4442C171.161 65.4442 115.148 121.513 115.148 190.678C115.148 259.843 171.161 315.911 240.257 315.911Z" fill="#71ACF0"/>
<path d="M365.367 190.678C365.367 205.609 362.72 220.059 357.909 233.546C354.781 241.975 350.931 250.164 346.119 257.63C330.721 281.954 307.143 300.739 279.234 309.89C266.963 313.985 253.971 316.152 240.257 316.152C171.207 316.152 115.148 260.038 115.148 190.919C115.148 177.191 117.313 164.186 121.403 151.904C130.546 123.967 149.072 100.365 173.372 84.9517C180.83 80.1351 189.011 76.2817 197.431 73.1509C210.664 68.3342 225.1 65.685 240.257 65.685C309.308 65.4442 365.367 121.558 365.367 190.678Z" fill="#71ACF0"/>
<path opacity="0.4" d="M285.489 270.635C285.489 284.362 283.324 297.367 279.234 309.65C266.963 313.744 253.971 315.911 240.257 315.911C171.207 315.911 115.148 259.797 115.148 190.678C115.148 176.95 117.313 163.945 121.403 151.663C133.674 147.569 146.666 145.401 160.38 145.401C229.43 145.401 285.489 201.515 285.489 270.635Z" fill="#4B68B0"/>
<path opacity="0.3" d="M365.367 190.678C365.367 205.609 362.721 220.059 357.909 233.546C354.781 241.975 350.931 250.164 346.12 257.629C326.872 269.912 304.015 276.896 279.475 276.896C210.424 276.896 154.365 220.782 154.365 151.663C154.365 127.098 161.342 104.218 173.613 84.9517C181.071 80.1351 189.251 76.2817 197.672 73.1509C210.905 68.3342 225.341 65.685 240.498 65.685C309.309 65.4442 365.367 121.558 365.367 190.678Z" fill="#F5F9FF"/>
<path opacity="0.3" d="M259.023 128.543C264.338 128.543 268.647 124.23 268.647 118.909C268.647 113.589 264.338 109.276 259.023 109.276C253.708 109.276 249.399 113.589 249.399 118.909C249.399 124.23 253.708 128.543 259.023 128.543Z" fill="#F5F9FF"/>
<path d="M329.999 221.504C335.714 221.504 340.345 216.868 340.345 211.149C340.345 205.429 335.714 200.793 329.999 200.793C324.285 200.793 319.654 205.429 319.654 211.149C319.654 216.868 324.285 221.504 329.999 221.504Z" fill="#4B68B0"/>
<path d="M157.011 200.793C167.242 200.793 175.537 192.491 175.537 182.249C175.537 172.006 167.242 163.704 157.011 163.704C146.78 163.704 138.485 172.006 138.485 182.249C138.485 192.491 146.78 200.793 157.011 200.793Z" fill="#4B68B0"/>
<path d="M266.483 171.893C274.455 171.893 280.918 165.424 280.918 157.443C280.918 149.461 274.455 142.993 266.483 142.993C258.51 142.993 252.047 149.461 252.047 157.443C252.047 165.424 258.51 171.893 266.483 171.893Z" fill="#4B68B0"/>
<path d="M292.707 272.561C296.826 272.561 300.166 269.218 300.166 265.095C300.166 260.972 296.826 257.629 292.707 257.629C288.588 257.629 285.249 260.972 285.249 265.095C285.249 269.218 288.588 272.561 292.707 272.561Z" fill="#4B68B0"/>
<path opacity="0.3" d="M192.138 141.788C201.307 141.788 208.739 134.349 208.739 125.171C208.739 115.993 201.307 108.553 192.138 108.553C182.97 108.553 175.537 115.993 175.537 125.171C175.537 134.349 182.97 141.788 192.138 141.788Z" fill="#F5F9FF"/>
<path d="M232.077 102.533C235.798 102.533 238.814 99.5135 238.814 95.7892C238.814 92.065 235.798 89.0459 232.077 89.0459C228.357 89.0459 225.341 92.065 225.341 95.7892C225.341 99.5135 228.357 102.533 232.077 102.533Z" fill="#4B68B0"/>
<path d="M320.135 138.898C324.122 138.898 327.353 135.664 327.353 131.673C327.353 127.683 324.122 124.448 320.135 124.448C316.149 124.448 312.917 127.683 312.917 131.673C312.917 135.664 316.149 138.898 320.135 138.898Z" fill="#4B68B0"/>
<path opacity="0.3" d="M210.183 275.451C219.351 275.451 226.784 268.012 226.784 258.834C226.784 249.655 219.351 242.216 210.183 242.216C201.014 242.216 193.582 249.655 193.582 258.834C193.582 268.012 201.014 275.451 210.183 275.451Z" fill="#F5F9FF"/>
<path opacity="0.3" d="M338.902 165.39C343.285 165.39 346.841 161.833 346.841 157.443C346.841 153.052 343.285 149.495 338.902 149.495C334.515 149.495 330.962 153.052 330.962 157.443C330.962 161.833 334.515 165.39 338.902 165.39Z" fill="#F5F9FF"/>
<path d="M239.536 41.6017C254.551 41.6017 266.723 36.3183 266.723 29.8008C266.723 23.2834 254.551 18 239.536 18C224.521 18 212.349 23.2834 212.349 29.8008C212.349 36.3183 224.521 41.6017 239.536 41.6017Z" fill="#4B68B0"/>
<path d="M239.536 36.0625C248.439 36.0625 255.656 33.2589 255.656 29.8008C255.656 26.3424 248.439 23.5391 239.536 23.5391C230.633 23.5391 223.416 26.3424 223.416 29.8008C223.416 33.2589 230.633 36.0625 239.536 36.0625Z" fill="#4B68B0"/>
<path d="M239.536 360.225C254.551 360.225 266.723 354.941 266.723 348.424C266.723 341.907 254.551 336.623 239.536 336.623C224.521 336.623 212.349 341.907 212.349 348.424C212.349 354.941 224.521 360.225 239.536 360.225Z" fill="#4B68B0"/>
<path d="M239.536 354.685C248.439 354.685 255.656 351.882 255.656 348.424C255.656 344.965 248.439 342.162 239.536 342.162C230.633 342.162 223.416 344.965 223.416 348.424C223.416 351.882 230.633 354.685 239.536 354.685Z" fill="#4B68B0"/>
<path d="M343.463 65.5049C346.757 59.8824 338.926 49.1614 325.972 41.5593C313.019 33.9571 299.849 32.3524 296.556 37.9749C293.262 43.5977 301.094 54.3184 314.046 61.9206C327 69.5227 340.172 71.1274 343.463 65.5049Z" fill="#4B68B0"/>
<path d="M333.916 59.9021C335.663 56.9187 330.854 50.8461 323.174 46.3386C315.494 41.8312 307.851 40.5957 306.104 43.5792C304.356 46.5626 309.166 52.6352 316.846 57.1427C324.526 61.6501 332.17 62.8856 333.916 59.9021Z" fill="#4B68B0"/>
<path d="M182.464 340.32C185.757 334.699 177.926 323.977 164.973 316.376C152.019 308.773 138.848 307.169 135.555 312.79C132.262 318.413 140.093 329.133 153.047 336.736C166 344.339 179.171 345.943 182.464 340.32Z" fill="#4B68B0"/>
<path d="M172.916 334.716C174.664 331.732 169.854 325.66 162.174 321.152C154.493 316.646 146.851 315.41 145.103 318.392C143.356 321.376 148.165 327.45 155.846 331.956C163.526 336.464 171.169 337.699 172.916 334.716Z" fill="#4B68B0"/>
<path d="M391.592 134.942C397.272 131.758 395.934 118.547 388.601 105.431C381.268 92.3162 370.715 84.2646 365.035 87.4477C359.354 90.6308 360.692 103.843 368.025 116.958C375.359 130.074 385.909 138.125 391.592 134.942Z" fill="#4B68B0"/>
<path d="M386.186 125.279C389.2 123.59 388.12 115.917 383.773 108.141C379.423 100.365 373.456 95.4302 370.441 97.1191C367.427 98.8081 368.507 106.481 372.854 114.258C377.202 122.034 383.171 126.969 386.186 125.279Z" fill="#4B68B0"/>
<path d="M113.934 290.479C119.615 287.295 118.276 274.083 110.943 260.968C103.61 247.854 93.059 239.803 87.3774 242.984C81.696 246.168 83.0351 259.38 90.3685 272.496C97.7017 285.612 108.253 293.663 113.934 290.479Z" fill="#4B68B0"/>
<path d="M108.526 280.815C111.541 279.126 110.46 271.454 106.112 263.677C101.764 255.9 95.795 250.966 92.7803 252.656C89.7657 254.345 90.8466 262.018 95.1947 269.794C99.5427 277.571 105.512 282.505 108.526 280.815Z" fill="#4B68B0"/>
<path d="M410.478 192.515C410.779 177.49 405.745 165.202 399.235 165.072C392.727 164.94 387.205 177.018 386.904 192.043C386.604 207.071 391.637 219.359 398.147 219.489C404.658 219.619 410.177 207.543 410.478 192.515Z" fill="#4B68B0"/>
<path d="M404.947 192.405C405.125 183.496 402.469 176.216 399.014 176.148C395.562 176.078 392.617 183.246 392.439 192.154C392.261 201.065 394.914 208.343 398.369 208.413C401.824 208.483 404.769 201.315 404.947 192.405Z" fill="#4B68B0"/>
<path d="M92.146 186.232C92.4468 171.204 87.4134 158.917 80.9037 158.787C74.394 158.657 68.8731 170.732 68.5724 185.76C68.2716 200.786 73.305 213.073 79.8146 213.205C86.3243 213.335 91.8452 201.258 92.146 186.232Z" fill="#4B68B0"/>
<path d="M86.6131 186.121C86.7914 177.21 84.1358 169.932 80.6817 169.863C77.2276 169.793 74.283 176.96 74.1047 185.871C73.9264 194.779 76.582 202.06 80.0361 202.127C83.4902 202.197 86.4348 195.03 86.6131 186.121Z" fill="#4B68B0"/>
<path d="M387.874 274.014C395.333 260.97 396.798 247.77 391.149 244.531C385.497 241.294 374.87 249.244 367.409 262.287C359.951 275.333 358.483 288.533 364.135 291.77C369.786 295.007 380.413 287.057 387.874 274.014Z" fill="#4B68B0"/>
<path d="M383.07 271.261C387.494 263.525 388.647 255.864 385.649 254.145C382.651 252.428 376.634 257.304 372.212 265.038C367.79 272.773 366.635 280.436 369.633 282.154C372.63 283.871 378.648 278.994 383.07 271.261Z" fill="#4B68B0"/>
<path d="M111.704 115.763C119.163 102.718 120.629 89.5185 114.978 86.2807C109.328 83.0427 98.6995 90.9927 91.2401 104.037C83.7806 117.082 82.3144 130.282 87.9653 133.518C93.6162 136.758 104.244 128.807 111.704 115.763Z" fill="#4B68B0"/>
<path d="M106.902 113.011C111.324 105.277 112.479 97.6143 109.481 95.8962C106.482 94.1781 100.466 99.0554 96.0435 106.79C91.6205 114.524 90.4658 122.187 93.4641 123.905C96.4626 125.623 102.479 120.746 106.902 113.011Z" fill="#4B68B0"/>
<path d="M326.11 336.462C339.049 328.837 346.861 318.103 343.557 312.487C340.254 306.87 327.089 308.498 314.147 316.123C301.208 323.748 293.395 334.482 296.699 340.098C300.001 345.714 313.168 344.086 326.11 336.462Z" fill="#4B68B0"/>
<path d="M323.253 331.734C330.926 327.214 335.726 321.133 333.972 318.154C332.22 315.172 324.579 316.422 316.906 320.942C309.236 325.46 304.436 331.541 306.188 334.521C307.94 337.502 315.581 336.255 323.253 331.734Z" fill="#4B68B0"/>
<path d="M164.659 61.9145C177.599 54.2897 185.412 43.5555 182.109 37.9388C178.806 32.3221 165.638 33.9499 152.698 41.5745C139.758 49.1992 131.946 59.9337 135.249 65.5504C138.552 71.1671 151.719 69.5393 164.659 61.9145Z" fill="#4B68B0"/>
<path d="M161.852 57.1403C169.524 52.6194 174.323 46.5386 172.57 43.5583C170.818 40.5779 163.177 41.8267 155.505 46.3476C147.832 50.8685 143.034 56.9494 144.786 59.9297C146.539 62.91 154.179 61.661 161.852 57.1403Z" fill="#4B68B0"/>
<defs>
<filter id="filter0_d" x="0.916016" y="0.474915" width="584.525" height="584.525" filterUnits="userSpaceOnUse" color-interpolation-filters="sRGB">
<feFlood flood-opacity="0" result="BackgroundImageFix"/>
<feColorMatrix in="SourceAlpha" type="matrix" values="0 0 0 0 0 0 0 0 0 0 0 0 0 0 0 0 0 0 127 0" result="hardAlpha"/>
<feOffset dy="45"/>
<feGaussianBlur stdDeviation="41.5"/>
<feComposite in2="hardAlpha" operator="out"/>
<feColorMatrix type="matrix" values="0 0 0 0 0.580392 0 0 0 0 0.788235 0 0 0 0 1 0 0 0 0.6 0"/>
<feBlend mode="normal" in2="BackgroundImageFix" result="effect1_dropShadow"/>
<feBlend mode="normal" in="SourceGraphic" in2="effect1_dropShadow" result="shape"/>
</filter>
</defs>
</svg>
