<svg width="31" height="30" viewBox="0 0 31 30" fill="none" xmlns="http://www.w3.org/2000/svg">
<path d="M28.5271 2.01141C28.3991 1.9962 28.2702 1.9962 28.1423 2.01141H1.86746C1.69906 2.0144 1.53178 2.04354 1.37012 2.09804L14.9298 17.6804L28.5271 2.01141Z" fill="#C0C0C0"/>
<path d="M29.9158 3.5166L16.2529 19.2181C15.9012 19.6214 15.4256 19.8478 14.9297 19.8478C14.4339 19.8478 13.9583 19.6214 13.6066 19.2181L0.0656872 3.63572C0.0240597 3.81227 0.00198815 3.99419 0 4.17715V25.8343C0 26.4087 0.197731 26.9596 0.549695 27.3657C0.901658 27.7719 1.37902 28.0001 1.87678 28.0001H28.1516C28.6494 28.0001 29.1267 27.7719 29.4787 27.3657C29.8307 26.9596 30.0284 26.4087 30.0284 25.8343V4.17715C30.0209 3.95154 29.9829 3.72866 29.9158 3.5166ZM3.16237 25.8343H1.85801V24.2859L8.68009 16.4784L10.0032 18.0053L3.16237 25.8343ZM28.1329 25.8343H26.8191L19.9783 18.0053L21.3014 16.4784L28.1235 24.2859L28.1329 25.8343Z" fill="#C0C0C0"/>
</svg>
