<svg width="51" height="50" viewBox="0 0 51 50" fill="none" xmlns="http://www.w3.org/2000/svg">
<path d="M27.3695 18.1251C27.3695 17.6278 27.172 17.1509 26.8203 16.7992C26.4687 16.4476 25.9918 16.2501 25.4945 16.2501C24.9972 16.2501 24.5203 16.4476 24.1687 16.7992C23.8171 17.1509 23.6195 17.6278 23.6195 18.1251L23.6245 30.3626C22.5489 30.7977 21.658 31.5934 21.1047 32.6133C20.5513 33.6332 20.3699 34.8138 20.5916 35.9528C20.8132 37.0917 21.4241 38.1182 22.3195 38.8561C23.215 39.5941 24.3392 39.9977 25.4995 39.9977C26.6599 39.9977 27.7841 39.5941 28.6795 38.8561C29.5749 38.1182 30.1858 37.0917 30.4075 35.9528C30.6291 34.8138 30.4477 33.6332 29.8944 32.6133C29.341 31.5934 28.4502 30.7977 27.3745 30.3626L27.3695 18.1251Z" fill="#71ACF0"/>
<path d="M16.7498 13.75V13.745C16.7886 11.4517 17.7268 9.26531 19.3624 7.65718C20.9979 6.04905 23.1998 5.14789 25.4935 5.14789C27.7873 5.14789 29.9891 6.04905 31.6247 7.65718C33.2602 9.26531 34.1985 11.4517 34.2373 13.745V27.915C35.5758 29.566 36.4192 31.5623 36.67 33.6728C36.9207 35.7833 36.5685 37.9217 35.654 39.8403C34.7396 41.7589 33.3004 43.3792 31.5031 44.5136C29.7058 45.6479 27.6239 46.25 25.4985 46.25C23.3732 46.25 21.2913 45.6479 19.494 44.5136C17.6967 43.3792 16.2575 41.7589 15.343 39.8403C14.4286 37.9217 14.0764 35.7833 14.3271 33.6728C14.5778 31.5623 15.4213 29.566 16.7598 27.915C16.7598 23.5725 16.7398 17.965 16.7398 13.75H16.7498ZM20.4998 13.745C20.4873 18.945 20.5098 24.15 20.5098 29.3525L20.0098 29.8925C19.0151 30.9617 18.3543 32.298 18.1082 33.7375C17.8622 35.1769 18.0418 36.6568 18.6249 37.9957C19.208 39.3345 20.1692 40.474 21.3907 41.2743C22.6122 42.0747 24.0407 42.501 25.501 42.501C26.9613 42.501 28.3899 42.0747 29.6114 41.2743C30.8328 40.474 31.7941 39.3345 32.3772 37.9957C32.9603 36.6568 33.1399 35.1769 32.8938 33.7375C32.6478 32.298 31.9869 30.9617 30.9923 29.8925L30.4898 29.3525V13.745C30.4898 12.4203 29.9635 11.1498 29.0268 10.213C28.09 9.27629 26.8195 8.75003 25.4948 8.75003C24.17 8.75003 22.8995 9.27629 21.9628 10.213C21.026 11.1498 20.4998 12.4203 20.4998 13.745Z" fill="#71ACF0"/>
</svg>
