<svg width="50" height="50" viewBox="0 0 50 50" fill="none" xmlns="http://www.w3.org/2000/svg">
<path d="M37.599 26.6365C37.1118 25.3059 35.3126 20.31 32.7607 12.2799C29.7634 2.84734 27.2106 2.11432 26.4998 2.11432C25.7889 2.11432 23.2362 2.84734 20.2389 12.2799C17.6883 20.3058 15.888 25.3052 15.4006 26.6365C13.6006 27.4133 6.10723 30.9842 6.00113 36.6204C5.97394 38.0623 6.43768 39.2805 7.37886 40.2408C9.34522 42.2473 12.9066 42.5467 14.8544 42.5467C15.5115 42.5467 15.9355 42.512 15.9532 42.5104C16.3731 42.4753 16.7096 42.1484 16.7577 41.7292C16.8059 41.31 16.5515 40.9149 16.1503 40.7855C14.9114 40.3853 12.8007 39.3639 12.4117 38.3263C12.3451 38.1488 12.2974 37.8976 12.5198 37.5265C12.705 37.2175 13.0503 36.8067 13.9068 36.8067C15.58 36.8067 17.7747 38.3049 18.381 39.2765C18.6304 39.6757 18.8435 40.0639 19.0497 40.4391C19.7376 41.6911 20.3874 42.8736 22.0472 43.9008C23.8173 44.9961 25.6441 45.1143 26.3475 45.1143C26.4147 45.1143 26.466 45.1132 26.5 45.1121C26.5338 45.1132 26.5853 45.1143 26.6525 45.1143C27.3559 45.1143 29.1827 44.9961 30.9528 43.9008C32.6126 42.8739 33.2624 41.6911 33.9503 40.4391C34.1565 40.0639 34.3696 39.6757 34.619 39.2765C35.2253 38.3049 37.4197 36.8067 39.0932 36.8067C39.9497 36.8067 40.295 37.2175 40.48 37.5265C40.7026 37.8976 40.6546 38.1491 40.5881 38.3266C40.1991 39.3641 38.0884 40.3855 36.8501 40.7852C36.4487 40.9143 36.1939 41.3091 36.2418 41.7287C36.2898 42.1484 36.6266 42.4757 37.0468 42.5107C37.0647 42.512 37.4889 42.547 38.1456 42.547C38.1454 42.547 38.1458 42.547 38.1456 42.547C40.0936 42.547 43.6548 42.2473 45.6211 40.241C46.5625 39.2805 47.0261 38.0623 46.9989 36.6204C46.8923 30.9842 39.3989 27.4133 37.599 26.6365Z" fill="#71ACF0"/>
<rect x="3.70613" y="46.862" width="60.7467" height="2.23011" rx="1.11506" transform="rotate(-48.0173 3.70613 46.862)" fill="#71ACF0" stroke="#F5F9FF"/>
</svg>
