<svg width="585" height="585" viewBox="0 0 585 585" fill="none" xmlns="http://www.w3.org/2000/svg">
<g filter="url(#filter0_d)">
<circle cx="292.263" cy="247.263" r="209.263" fill="#C1D1ED"/>
<circle cx="292.263" cy="247.263" r="199.263" stroke="white" stroke-width="20"/>
</g>
<g filter="url(#filter1_d)">
<circle cx="90" cy="159" r="37" fill="#FF6C6C"/>
<path d="M88.3462 144.612H90.5519C90.2762 142.682 90.2762 140.66 90.5519 138.73H88.3462C88.53 140.752 88.53 142.682 88.3462 144.612Z" fill="white"/>
<path d="M81.5455 147.093L83.4755 145.99C82.2807 144.428 81.2698 142.682 80.5345 140.844L78.6045 141.947C79.7993 143.509 80.8102 145.255 81.5455 147.093Z" fill="white"/>
<path d="M76.8582 152.516L77.961 150.586C76.1229 149.851 74.4686 148.84 72.8143 147.645L71.7114 149.575C73.6414 150.31 75.2958 151.321 76.8582 152.516Z" fill="white"/>
<path d="M75.5714 159.593V157.387C73.6414 157.663 71.6195 157.663 69.6895 157.387V159.593C71.7114 159.317 73.6414 159.317 75.5714 159.593Z" fill="white"/>
<path d="M78.0528 166.394L76.9499 164.464C75.3875 165.658 73.6413 166.669 71.8032 167.404L72.9061 169.335C74.4685 168.14 76.2147 167.129 78.0528 166.394Z" fill="white"/>
<path d="M83.4755 170.989L81.5455 169.886C80.8102 171.724 79.7993 173.378 78.6045 175.033L80.5345 176.136C81.2698 174.297 82.2807 172.643 83.4755 170.989Z" fill="white"/>
<path d="M90.5519 172.276H88.3462C88.6219 174.206 88.6219 176.227 88.3462 178.157H90.5519C90.2762 176.227 90.2762 174.297 90.5519 172.276Z" fill="white"/>
<path d="M97.3534 169.886L95.4233 170.989C96.6181 172.551 97.6291 174.297 98.3643 176.136L100.294 175.033C99.0996 173.47 98.0886 171.724 97.3534 169.886Z" fill="white"/>
<path d="M101.949 164.464L100.846 166.394C102.684 167.129 104.338 168.14 105.992 169.335L107.095 167.404C105.257 166.577 103.603 165.658 101.949 164.464Z" fill="white"/>
<path d="M103.235 157.387V159.593C105.165 159.317 107.187 159.317 109.117 159.593V157.387C107.187 157.571 105.257 157.571 103.235 157.387Z" fill="white"/>
<path d="M100.846 150.586L101.949 152.516C103.511 151.321 105.257 150.31 107.095 149.575L105.992 147.645C104.43 148.84 102.684 149.851 100.846 150.586Z" fill="white"/>
<path d="M95.4233 145.899L97.3534 147.002C98.0886 145.163 99.0996 143.509 100.294 141.855L98.3643 140.752C97.5372 142.682 96.6181 144.336 95.4233 145.899Z" fill="white"/>
<path d="M89.4493 174.206C98.1289 174.206 105.165 167.169 105.165 158.49C105.165 149.81 98.1289 142.774 89.4493 142.774C80.7696 142.774 73.7334 149.81 73.7334 158.49C73.7334 167.169 80.7696 174.206 89.4493 174.206Z" fill="white"/>
<path d="M105.165 158.49C105.165 160.42 104.797 162.166 104.246 163.82C103.878 164.923 103.327 165.934 102.776 166.853C100.845 169.886 97.9045 172.276 94.4121 173.378C92.8497 173.838 91.1954 174.114 89.5411 174.114C80.9019 174.114 73.8252 167.129 73.8252 158.398C73.8252 156.652 74.1009 155.089 74.6523 153.527C75.7552 150.034 78.1448 147.093 81.1777 145.163C82.0967 144.52 83.1077 144.06 84.2106 143.693C85.8649 143.05 87.703 142.774 89.5411 142.774C98.0883 142.774 105.165 149.851 105.165 158.49Z" fill="white"/>
<path opacity="0.4" d="M95.1473 168.508C95.1473 170.254 94.8716 171.816 94.4121 173.379C92.8497 173.838 91.1954 174.114 89.5411 174.114C80.9019 174.114 73.8252 167.129 73.8252 158.398C73.8252 156.652 74.1009 155.089 74.6523 153.527C76.2147 153.067 77.869 152.792 79.5234 152.792C88.0706 152.792 95.1473 159.868 95.1473 168.508Z" fill="#F5F9FF"/>
<path opacity="0.3" d="M105.165 158.49C105.165 160.42 104.798 162.166 104.246 163.82C103.878 164.923 103.327 165.934 102.776 166.853C100.386 168.416 97.4451 169.243 94.4122 169.243C85.773 169.243 78.6963 162.258 78.6963 153.527C78.6963 150.402 79.6153 147.553 81.0858 145.163C82.0049 144.52 83.0159 144.06 84.1187 143.693C85.773 143.05 87.6111 142.774 89.4493 142.774C98.0884 142.774 105.165 149.851 105.165 158.49Z" fill="white"/>
<path opacity="0.3" d="M91.8388 150.678C92.4987 150.678 93.0336 150.143 93.0336 149.483C93.0336 148.823 92.4987 148.288 91.8388 148.288C91.179 148.288 90.644 148.823 90.644 149.483C90.644 150.143 91.179 150.678 91.8388 150.678Z" fill="white"/>
<path d="M100.754 162.35C101.465 162.35 102.041 161.774 102.041 161.063C102.041 160.352 101.465 159.776 100.754 159.776C100.043 159.776 99.4673 160.352 99.4673 161.063C99.4673 161.774 100.043 162.35 100.754 162.35Z" fill="#F5F9FF"/>
<path d="M78.972 159.776C80.2409 159.776 81.2696 158.748 81.2696 157.479C81.2696 156.21 80.2409 155.181 78.972 155.181C77.703 155.181 76.6743 156.21 76.6743 157.479C76.6743 158.748 77.703 159.776 78.972 159.776Z" fill="#F5F9FF"/>
<path d="M92.758 156.192C93.7732 156.192 94.5962 155.369 94.5962 154.354C94.5962 153.339 93.7732 152.516 92.758 152.516C91.7429 152.516 90.9199 153.339 90.9199 154.354C90.9199 155.369 91.7429 156.192 92.758 156.192Z" fill="#F5F9FF"/>
<path d="M96.0665 168.691C96.5741 168.691 96.9856 168.28 96.9856 167.772C96.9856 167.265 96.5741 166.853 96.0665 166.853C95.5589 166.853 95.1475 167.265 95.1475 167.772C95.1475 168.28 95.5589 168.691 96.0665 168.691Z" fill="#F5F9FF"/>
<path opacity="0.3" d="M83.3834 152.424C84.5508 152.424 85.4972 151.478 85.4972 150.31C85.4972 149.143 84.5508 148.196 83.3834 148.196C82.2159 148.196 81.2695 149.143 81.2695 150.31C81.2695 151.478 82.2159 152.424 83.3834 152.424Z" fill="white"/>
<path d="M88.438 147.369C88.8948 147.369 89.2651 146.999 89.2651 146.542C89.2651 146.085 88.8948 145.715 88.438 145.715C87.9812 145.715 87.6108 146.085 87.6108 146.542C87.6108 146.999 87.9812 147.369 88.438 147.369Z" fill="#F5F9FF"/>
<path d="M99.4669 152.056C99.9745 152.056 100.386 151.645 100.386 151.137C100.386 150.63 99.9745 150.218 99.4669 150.218C98.9593 150.218 98.5479 150.63 98.5479 151.137C98.5479 151.645 98.9593 152.056 99.4669 152.056Z" fill="#F5F9FF"/>
<path opacity="0.3" d="M85.6812 169.151C86.8486 169.151 87.795 168.204 87.795 167.037C87.795 165.87 86.8486 164.923 85.6812 164.923C84.5138 164.923 83.5674 165.87 83.5674 167.037C83.5674 168.204 84.5138 169.151 85.6812 169.151Z" fill="white"/>
<path opacity="0.3" d="M101.857 155.365C102.415 155.365 102.868 154.912 102.868 154.354C102.868 153.796 102.415 153.343 101.857 153.343C101.298 153.343 100.846 153.796 100.846 154.354C100.846 154.912 101.298 155.365 101.857 155.365Z" fill="white"/>
<path d="M89.3575 139.741C91.2356 139.741 92.7581 139.083 92.7581 138.27C92.7581 137.458 91.2356 136.8 89.3575 136.8C87.4795 136.8 85.957 137.458 85.957 138.27C85.957 139.083 87.4795 139.741 89.3575 139.741Z" fill="#F5F9FF"/>
<path d="M89.3579 139.098C90.4745 139.098 91.3798 138.727 91.3798 138.27C91.3798 137.814 90.4745 137.443 89.3579 137.443C88.2412 137.443 87.3359 137.814 87.3359 138.27C87.3359 138.727 88.2412 139.098 89.3579 139.098Z" fill="#F5F9FF"/>
<path d="M89.3575 179.72C91.2356 179.72 92.7581 179.062 92.7581 178.25C92.7581 177.437 91.2356 176.779 89.3575 176.779C87.4795 176.779 85.957 177.437 85.957 178.25C85.957 179.062 87.4795 179.72 89.3575 179.72Z" fill="#F5F9FF"/>
<path d="M89.3579 179.077C90.4745 179.077 91.3798 178.706 91.3798 178.25C91.3798 177.793 90.4745 177.422 89.3579 177.422C88.2412 177.422 87.3359 177.793 87.3359 178.25C87.3359 178.706 88.2412 179.077 89.3579 179.077Z" fill="#F5F9FF"/>
<path d="M102.379 142.747C102.789 142.046 101.809 140.708 100.189 139.758C98.5685 138.808 96.9221 138.606 96.5113 139.307C96.1006 140.007 97.081 141.346 98.7012 142.295C100.321 143.245 101.968 143.447 102.379 142.747Z" fill="#F5F9FF"/>
<path d="M101.188 142.048C101.419 141.654 100.826 140.876 99.8623 140.312C98.899 139.747 97.9307 139.608 97.6996 140.002C97.4686 140.397 98.0622 141.174 99.0256 141.739C99.9889 142.304 100.957 142.442 101.188 142.048Z" fill="#F5F9FF"/>
<path d="M82.1634 177.223C82.5742 176.523 81.5938 175.185 79.9735 174.235C78.3533 173.285 76.7069 173.083 76.2961 173.784C75.8853 174.484 76.8657 175.822 78.4859 176.772C80.1061 177.722 81.7526 177.924 82.1634 177.223Z" fill="#F5F9FF"/>
<path d="M80.9739 176.526C81.205 176.132 80.6113 175.354 79.648 174.789C78.6846 174.225 77.7163 174.086 77.4853 174.48C77.2542 174.874 77.8479 175.652 78.8112 176.217C79.7746 176.781 80.7428 176.92 80.9739 176.526Z" fill="#F5F9FF"/>
<path d="M108.487 151.509C109.196 151.113 109.027 149.463 108.109 147.824C107.192 146.185 105.874 145.178 105.165 145.575C104.457 145.971 104.626 147.621 105.543 149.26C106.46 150.899 107.779 151.906 108.487 151.509Z" fill="#F5F9FF"/>
<path d="M107.812 150.304C108.211 150.081 108.092 149.11 107.547 148.135C107.001 147.161 106.236 146.552 105.837 146.775C105.439 146.998 105.558 147.969 106.103 148.943C106.649 149.918 107.414 150.527 107.812 150.304Z" fill="#F5F9FF"/>
<path d="M73.557 171.025C74.2657 170.628 74.0966 168.978 73.1793 167.34C72.2621 165.701 70.944 164.694 70.2353 165.09C69.5266 165.487 69.6957 167.137 70.613 168.776C71.5303 170.415 72.8483 171.422 73.557 171.025Z" fill="#F5F9FF"/>
<path d="M72.8828 169.819C73.2814 169.596 73.1625 168.625 72.6171 167.65C72.0717 166.676 71.3064 166.067 70.9078 166.29C70.5092 166.513 70.6282 167.484 71.1735 168.458C71.7189 169.433 72.4842 170.042 72.8828 169.819Z" fill="#F5F9FF"/>
<path d="M110.779 158.741C110.817 156.863 110.189 155.328 109.377 155.312C108.565 155.296 107.877 156.805 107.839 158.682C107.801 160.56 108.429 162.095 109.241 162.111C110.053 162.128 110.742 160.619 110.779 158.741Z" fill="#F5F9FF"/>
<path d="M110.136 158.728C110.159 157.612 109.807 156.699 109.35 156.69C108.893 156.681 108.505 157.579 108.482 158.695C108.46 159.812 108.812 160.724 109.269 160.733C109.726 160.743 110.114 159.845 110.136 158.728Z" fill="#F5F9FF"/>
<path d="M70.8088 157.882C70.8464 156.005 70.2186 154.469 69.4067 154.453C68.5947 154.437 67.906 155.946 67.8684 157.824C67.8308 159.701 68.4585 161.237 69.2705 161.253C70.0825 161.269 70.7712 159.76 70.8088 157.882Z" fill="#F5F9FF"/>
<path d="M70.1657 157.87C70.188 156.753 69.8359 155.841 69.3792 155.832C68.9224 155.823 68.534 156.72 68.5117 157.837C68.4893 158.953 68.8414 159.866 69.2982 159.875C69.7549 159.884 70.1433 158.986 70.1657 157.87Z" fill="#F5F9FF"/>
<path d="M108.001 168.911C108.934 167.281 109.119 165.633 108.414 165.229C107.709 164.826 106.381 165.82 105.448 167.45C104.515 169.08 104.33 170.728 105.035 171.132C105.74 171.535 107.068 170.541 108.001 168.911Z" fill="#F5F9FF"/>
<path d="M107.44 168.589C107.995 167.62 108.123 166.65 107.727 166.423C107.33 166.196 106.559 166.798 106.004 167.767C105.45 168.736 105.321 169.706 105.718 169.933C106.114 170.16 106.885 169.558 107.44 168.589Z" fill="#F5F9FF"/>
<path d="M73.2908 149.119C74.2238 147.489 74.4088 145.841 73.704 145.437C72.9991 145.034 71.6713 146.028 70.7383 147.658C69.8052 149.288 69.6202 150.936 70.3251 151.34C71.0299 151.743 72.3577 150.749 73.2908 149.119Z" fill="#F5F9FF"/>
<path d="M72.7327 148.8C73.2874 147.831 73.4157 146.861 73.0193 146.634C72.6228 146.407 71.8517 147.009 71.2969 147.978C70.7422 148.947 70.6139 149.917 71.0104 150.144C71.4068 150.371 72.1779 149.769 72.7327 148.8Z" fill="#F5F9FF"/>
<path d="M100.213 176.764C101.832 175.811 102.81 174.472 102.398 173.772C101.986 173.072 100.34 173.277 98.7211 174.23C97.1026 175.182 96.1245 176.522 96.5365 177.222C96.9485 177.922 98.5945 177.717 100.213 176.764Z" fill="#F5F9FF"/>
<path d="M99.8869 176.21C100.849 175.644 101.442 174.865 101.21 174.472C100.978 174.078 100.01 174.218 99.0477 174.785C98.0853 175.351 97.493 176.129 97.7248 176.523C97.9566 176.917 98.9246 176.777 99.8869 176.21Z" fill="#F5F9FF"/>
<path d="M79.9653 142.295C81.5838 141.342 82.5619 140.003 82.15 139.303C81.7381 138.603 80.0921 138.808 78.4736 139.76C76.855 140.713 75.8769 142.052 76.2888 142.752C76.7008 143.452 78.3468 143.247 79.9653 142.295Z" fill="#F5F9FF"/>
<path d="M79.6417 141.724C80.604 141.157 81.1963 140.379 80.9646 139.985C80.7328 139.591 79.7648 139.731 78.8025 140.298C77.8402 140.864 77.2479 141.643 77.4796 142.036C77.7114 142.43 78.6794 142.29 79.6417 141.724Z" fill="#F5F9FF"/>
</g>
<g filter="url(#filter2_d)">
<circle cx="126" cy="50" r="20" fill="#FF6C6C"/>
<path d="M125.105 42.2227H126.298C126.149 41.1794 126.149 40.0865 126.298 39.0432H125.105C125.205 40.1361 125.205 41.1794 125.105 42.2227Z" fill="white"/>
<path d="M121.43 43.5639L122.473 42.9678C121.827 42.1233 121.281 41.1794 120.883 40.1858L119.84 40.7819C120.486 41.6265 121.032 42.5704 121.43 43.5639Z" fill="white"/>
<path d="M118.896 46.4952L119.492 45.4519C118.499 45.0545 117.605 44.508 116.71 43.8622L116.114 44.9054C117.158 45.3029 118.052 45.8493 118.896 46.4952Z" fill="white"/>
<path d="M118.2 50.3202V49.1279C117.157 49.277 116.064 49.277 115.021 49.1279V50.3202C116.114 50.1712 117.157 50.1712 118.2 50.3202Z" fill="white"/>
<path d="M119.542 53.9965L118.946 52.9532C118.101 53.5991 117.157 54.1455 116.164 54.543L116.76 55.5862C117.604 54.9404 118.548 54.3939 119.542 53.9965Z" fill="white"/>
<path d="M122.473 56.4804L121.43 55.8843C121.032 56.8779 120.486 57.7721 119.84 58.6663L120.883 59.2624C121.281 58.2689 121.827 57.3746 122.473 56.4804Z" fill="white"/>
<path d="M126.298 57.1759H125.105C125.255 58.2192 125.255 59.3121 125.105 60.3553H126.298C126.149 59.3121 126.149 58.2688 126.298 57.1759Z" fill="white"/>
<path d="M129.974 55.8843L128.931 56.4804C129.577 57.325 130.123 58.2689 130.521 59.2624L131.564 58.6663C130.918 57.8217 130.372 56.8779 129.974 55.8843Z" fill="white"/>
<path d="M132.458 52.9532L131.862 53.9965C132.855 54.3939 133.75 54.9404 134.644 55.5862L135.24 54.543C134.246 54.0959 133.352 53.5991 132.458 52.9532Z" fill="white"/>
<path d="M133.154 49.1279V50.3202C134.197 50.1712 135.29 50.1712 136.333 50.3202V49.1279C135.29 49.2273 134.247 49.2273 133.154 49.1279Z" fill="white"/>
<path d="M131.862 45.4519L132.458 46.4952C133.303 45.8493 134.246 45.3029 135.24 44.9054L134.644 43.8622C133.799 44.508 132.855 45.0545 131.862 45.4519Z" fill="white"/>
<path d="M128.931 42.9181L129.974 43.5143C130.372 42.5207 130.918 41.6265 131.564 40.7323L130.521 40.1361C130.074 41.1794 129.577 42.0736 128.931 42.9181Z" fill="white"/>
<path d="M125.702 58.2192C130.394 58.2192 134.197 54.4158 134.197 49.7241C134.197 45.0324 130.394 41.229 125.702 41.229C121.01 41.229 117.207 45.0324 117.207 49.7241C117.207 54.4158 121.01 58.2192 125.702 58.2192Z" fill="white"/>
<path d="M134.197 49.7241C134.197 50.7673 133.999 51.7112 133.701 52.6054C133.502 53.2016 133.204 53.7481 132.906 54.2448C131.862 55.8842 130.273 57.1759 128.385 57.772C127.54 58.0204 126.646 58.1695 125.752 58.1695C121.082 58.1695 117.257 54.3939 117.257 49.6744C117.257 48.7305 117.406 47.886 117.704 47.0414C118.3 45.1536 119.592 43.5639 121.231 42.5207C121.728 42.1729 122.274 41.9245 122.871 41.7258C123.765 41.378 124.758 41.229 125.752 41.229C130.372 41.229 134.197 45.0543 134.197 49.7241Z" fill="white"/>
<path opacity="0.4" d="M128.782 55.1391C128.782 56.083 128.633 56.9276 128.385 57.7721C127.54 58.0205 126.646 58.1695 125.752 58.1695C121.082 58.1695 117.257 54.3939 117.257 49.6744C117.257 48.7306 117.406 47.886 117.704 47.0415C118.548 46.7931 119.443 46.644 120.337 46.644C124.957 46.644 128.782 50.4693 128.782 55.1391Z" fill="#F5F9FF"/>
<path opacity="0.3" d="M134.197 49.7241C134.197 50.7673 133.998 51.7112 133.7 52.6054C133.501 53.2016 133.203 53.7481 132.905 54.2448C131.613 55.0894 130.024 55.5365 128.384 55.5365C123.714 55.5365 119.889 51.7609 119.889 47.0414C119.889 45.3523 120.386 43.8123 121.181 42.5207C121.678 42.1729 122.224 41.9245 122.82 41.7258C123.714 41.378 124.708 41.229 125.702 41.229C130.371 41.229 134.197 45.0543 134.197 49.7241Z" fill="white"/>
<path opacity="0.3" d="M126.993 45.5014C127.35 45.5014 127.639 45.2122 127.639 44.8555C127.639 44.4989 127.35 44.2097 126.993 44.2097C126.637 44.2097 126.348 44.4989 126.348 44.8555C126.348 45.2122 126.637 45.5014 126.993 45.5014Z" fill="white"/>
<path d="M131.812 51.8107C132.196 51.8107 132.508 51.4993 132.508 51.1152C132.508 50.7311 132.196 50.4197 131.812 50.4197C131.428 50.4197 131.117 50.7311 131.117 51.1152C131.117 51.4993 131.428 51.8107 131.812 51.8107Z" fill="#F5F9FF"/>
<path d="M120.038 50.4196C120.724 50.4196 121.28 49.8636 121.28 49.1776C121.28 48.4917 120.724 47.9357 120.038 47.9357C119.352 47.9357 118.796 48.4917 118.796 49.1776C118.796 49.8636 119.352 50.4196 120.038 50.4196Z" fill="#F5F9FF"/>
<path d="M127.49 48.4821C128.039 48.4821 128.484 48.0373 128.484 47.4886C128.484 46.9398 128.039 46.495 127.49 46.495C126.941 46.495 126.497 46.9398 126.497 47.4886C126.497 48.0373 126.941 48.4821 127.49 48.4821Z" fill="#F5F9FF"/>
<path d="M129.279 55.2384C129.553 55.2384 129.775 55.016 129.775 54.7417C129.775 54.4673 129.553 54.2449 129.279 54.2449C129.004 54.2449 128.782 54.4673 128.782 54.7417C128.782 55.016 129.004 55.2384 129.279 55.2384Z" fill="#F5F9FF"/>
<path opacity="0.3" d="M122.423 46.4454C123.054 46.4454 123.565 45.9338 123.565 45.3028C123.565 44.6717 123.054 44.1602 122.423 44.1602C121.792 44.1602 121.28 44.6717 121.28 45.3028C121.28 45.9338 121.792 46.4454 122.423 46.4454Z" fill="white"/>
<path d="M125.155 43.7131C125.402 43.7131 125.602 43.5129 125.602 43.266C125.602 43.019 125.402 42.8188 125.155 42.8188C124.908 42.8188 124.708 43.019 124.708 43.266C124.708 43.5129 124.908 43.7131 125.155 43.7131Z" fill="#F5F9FF"/>
<path d="M131.117 46.2466C131.391 46.2466 131.614 46.0242 131.614 45.7498C131.614 45.4755 131.391 45.2531 131.117 45.2531C130.843 45.2531 130.62 45.4755 130.62 45.7498C130.62 46.0242 130.843 46.2466 131.117 46.2466Z" fill="#F5F9FF"/>
<path opacity="0.3" d="M123.665 55.4869C124.296 55.4869 124.808 54.9753 124.808 54.3443C124.808 53.7132 124.296 53.2017 123.665 53.2017C123.034 53.2017 122.522 53.7132 122.522 54.3443C122.522 54.9753 123.034 55.4869 123.665 55.4869Z" fill="white"/>
<path opacity="0.3" d="M132.408 48.0351C132.71 48.0351 132.955 47.7904 132.955 47.4886C132.955 47.1868 132.71 46.9421 132.408 46.9421C132.106 46.9421 131.862 47.1868 131.862 47.4886C131.862 47.7904 132.106 48.0351 132.408 48.0351Z" fill="white"/>
<path d="M125.653 39.5896C126.668 39.5896 127.491 39.2337 127.491 38.7947C127.491 38.3557 126.668 37.9999 125.653 37.9999C124.637 37.9999 123.814 38.3557 123.814 38.7947C123.814 39.2337 124.637 39.5896 125.653 39.5896Z" fill="#F5F9FF"/>
<path d="M125.653 39.2419C126.256 39.2419 126.745 39.0417 126.745 38.7948C126.745 38.5478 126.256 38.3477 125.653 38.3477C125.049 38.3477 124.56 38.5478 124.56 38.7948C124.56 39.0417 125.049 39.2419 125.653 39.2419Z" fill="#F5F9FF"/>
<path d="M125.652 61.2C126.667 61.2 127.49 60.8441 127.49 60.4051C127.49 59.9661 126.667 59.6102 125.652 59.6102C124.637 59.6102 123.814 59.9661 123.814 60.4051C123.814 60.8441 124.637 61.2 125.652 61.2Z" fill="#F5F9FF"/>
<path d="M125.652 60.8522C126.256 60.8522 126.745 60.652 126.745 60.4051C126.745 60.1582 126.256 59.958 125.652 59.958C125.048 59.958 124.559 60.1582 124.559 60.4051C124.559 60.652 125.048 60.8522 125.652 60.8522Z" fill="#F5F9FF"/>
<path d="M132.691 41.2145C132.913 40.8357 132.383 40.1125 131.507 39.599C130.631 39.0856 129.741 38.9763 129.519 39.3551C129.297 39.7338 129.827 40.457 130.703 40.9705C131.579 41.4839 132.469 41.5932 132.691 41.2145Z" fill="#F5F9FF"/>
<path d="M132.047 40.8367C132.172 40.6237 131.851 40.2035 131.331 39.8982C130.81 39.5929 130.287 39.5181 130.162 39.7311C130.037 39.9441 130.358 40.3643 130.878 40.6696C131.399 40.9749 131.923 41.0497 132.047 40.8367Z" fill="#F5F9FF"/>
<path d="M121.764 59.8504C121.986 59.4717 121.456 58.7485 120.58 58.235C119.704 57.7216 118.814 57.6123 118.592 57.991C118.37 58.3698 118.9 59.093 119.776 59.6064C120.651 60.1199 121.541 60.2291 121.764 59.8504Z" fill="#F5F9FF"/>
<path d="M121.121 59.4732C121.246 59.2602 120.925 58.84 120.404 58.5348C119.883 58.2295 119.36 58.1547 119.235 58.3677C119.11 58.5807 119.431 59.0009 119.952 59.3062C120.472 59.6115 120.996 59.6863 121.121 59.4732Z" fill="#F5F9FF"/>
<path d="M135.993 45.9509C136.376 45.7365 136.285 44.8446 135.789 43.9588C135.293 43.0729 134.581 42.5286 134.198 42.743C133.814 42.9574 133.906 43.8493 134.402 44.7352C134.897 45.621 135.61 46.1653 135.993 45.9509Z" fill="#F5F9FF"/>
<path d="M135.628 45.2994C135.844 45.1788 135.779 44.654 135.484 44.1273C135.19 43.6006 134.776 43.2714 134.561 43.392C134.345 43.5126 134.409 44.0373 134.704 44.564C134.999 45.0908 135.413 45.42 135.628 45.2994Z" fill="#F5F9FF"/>
<path d="M117.112 56.4998C117.495 56.2854 117.404 55.3935 116.908 54.5077C116.412 53.6219 115.7 53.0776 115.317 53.292C114.934 53.5064 115.025 54.3983 115.521 55.2841C116.017 56.1699 116.729 56.7142 117.112 56.4998Z" fill="#F5F9FF"/>
<path d="M116.748 55.848C116.963 55.7274 116.899 55.2026 116.604 54.6759C116.309 54.1492 115.896 53.82 115.68 53.9406C115.465 54.0612 115.529 54.5859 115.824 55.1126C116.119 55.6393 116.532 55.9686 116.748 55.848Z" fill="#F5F9FF"/>
<path d="M137.232 49.8601C137.252 48.8451 136.913 48.0152 136.474 48.0064C136.035 47.9976 135.663 48.8133 135.642 49.8283C135.622 50.8432 135.961 51.6731 136.4 51.6819C136.839 51.6907 137.211 50.8751 137.232 49.8601Z" fill="#F5F9FF"/>
<path d="M136.884 49.8533C136.896 49.2498 136.706 48.7566 136.459 48.7516C136.212 48.7467 136.002 49.2319 135.99 49.8354C135.978 50.4389 136.168 50.9321 136.415 50.9371C136.662 50.942 136.872 50.4568 136.884 49.8533Z" fill="#F5F9FF"/>
<path d="M115.626 49.396C115.646 48.381 115.307 47.5511 114.868 47.5423C114.429 47.5335 114.057 48.3492 114.036 49.3642C114.016 50.3791 114.355 51.209 114.794 51.2178C115.233 51.2266 115.605 50.4109 115.626 49.396Z" fill="#F5F9FF"/>
<path d="M115.278 49.3892C115.29 48.7857 115.1 48.2925 114.853 48.2875C114.606 48.2826 114.396 48.7678 114.384 49.3713C114.372 49.9748 114.562 50.468 114.809 50.4729C115.056 50.4779 115.266 49.9927 115.278 49.3892Z" fill="#F5F9FF"/>
<path d="M135.73 55.3572C136.234 54.4761 136.334 53.5851 135.953 53.367C135.572 53.1489 134.855 53.6864 134.35 54.5674C133.846 55.4485 133.746 56.3395 134.127 56.5576C134.508 56.7757 135.226 56.2382 135.73 55.3572Z" fill="#F5F9FF"/>
<path d="M135.427 55.1833C135.727 54.6594 135.796 54.1353 135.582 54.0126C135.368 53.8899 134.951 54.2152 134.651 54.7391C134.351 55.2629 134.282 55.7871 134.496 55.9098C134.71 56.0324 135.127 55.7072 135.427 55.1833Z" fill="#F5F9FF"/>
<path d="M116.968 44.6589C117.472 43.7779 117.572 42.8869 117.191 42.6688C116.81 42.4507 116.092 42.9881 115.588 43.8692C115.084 44.7502 114.984 45.6413 115.365 45.8594C115.746 46.0774 116.463 45.54 116.968 44.6589Z" fill="#F5F9FF"/>
<path d="M116.666 44.4864C116.966 43.9625 117.035 43.4384 116.821 43.3157C116.607 43.193 116.19 43.5183 115.89 44.0421C115.59 44.566 115.521 45.0902 115.735 45.2129C115.95 45.3355 116.366 45.0103 116.666 44.4864Z" fill="#F5F9FF"/>
<path d="M131.52 59.6023C132.395 59.0874 132.924 58.3632 132.701 57.9849C132.479 57.6065 131.589 57.7173 130.714 58.2323C129.839 58.7473 129.31 59.4715 129.533 59.8498C129.756 60.2281 130.646 60.1173 131.52 59.6023Z" fill="#F5F9FF"/>
<path d="M131.344 59.303C131.864 58.9968 132.185 58.576 132.059 58.3632C131.934 58.1504 131.411 58.2262 130.891 58.5324C130.37 58.8386 130.05 59.2593 130.176 59.4721C130.301 59.6849 130.824 59.6092 131.344 59.303Z" fill="#F5F9FF"/>
<path d="M120.575 40.9703C121.45 40.4554 121.979 39.7313 121.756 39.353C121.534 38.9747 120.644 39.0854 119.769 39.6003C118.894 40.1152 118.366 40.8393 118.588 41.2176C118.811 41.5959 119.701 41.4852 120.575 40.9703Z" fill="#F5F9FF"/>
<path d="M120.4 40.6614C120.921 40.3551 121.241 39.9344 121.115 39.7215C120.99 39.5087 120.467 39.5845 119.947 39.8907C119.427 40.1969 119.106 40.6177 119.232 40.8305C119.357 41.0433 119.88 40.9676 120.4 40.6614Z" fill="#F5F9FF"/>
</g>
<g filter="url(#filter3_d)">
<circle cx="232" cy="43" r="12" fill="#FF6C6C"/>
<path d="M231.463 38.3336H232.179C232.089 37.7076 232.089 37.0519 232.179 36.4259H231.463C231.523 37.0817 231.523 37.7076 231.463 38.3336Z" fill="white"/>
<path d="M229.258 39.1383L229.884 38.7807C229.496 38.2739 229.169 37.7076 228.93 37.1115L228.304 37.4691C228.692 37.9759 229.02 38.5422 229.258 39.1383Z" fill="white"/>
<path d="M227.738 40.897L228.095 40.2711C227.499 40.0326 226.963 39.7048 226.426 39.3173L226.068 39.9432C226.694 40.1817 227.231 40.5096 227.738 40.897Z" fill="white"/>
<path d="M227.32 43.1922V42.4768C226.694 42.5662 226.039 42.5662 225.413 42.4768V43.1922C226.068 43.1028 226.694 43.1028 227.32 43.1922Z" fill="white"/>
<path d="M228.125 45.3979L227.767 44.772C227.261 45.1595 226.694 45.4873 226.098 45.7258L226.456 46.3518C226.963 45.9643 227.529 45.6364 228.125 45.3979Z" fill="white"/>
<path d="M229.884 46.8882L229.258 46.5305C229.02 47.1267 228.692 47.6632 228.304 48.1997L228.93 48.5574C229.169 47.9613 229.496 47.4247 229.884 46.8882Z" fill="white"/>
<path d="M232.179 47.3055H231.463C231.553 47.9315 231.553 48.5873 231.463 49.2132H232.179C232.089 48.5873 232.089 47.9613 232.179 47.3055Z" fill="white"/>
<path d="M234.385 46.5305L233.759 46.8882C234.146 47.3949 234.474 47.9613 234.713 48.5574L235.339 48.1997C234.951 47.693 234.623 47.1267 234.385 46.5305Z" fill="white"/>
<path d="M235.875 44.772L235.517 45.3979C236.113 45.6364 236.65 45.9643 237.186 46.3518L237.544 45.7258C236.948 45.4575 236.411 45.1595 235.875 44.772Z" fill="white"/>
<path d="M236.292 42.4768V43.1922C236.918 43.1028 237.574 43.1028 238.2 43.1922V42.4768C237.574 42.5364 236.948 42.5364 236.292 42.4768Z" fill="white"/>
<path d="M235.517 40.2711L235.875 40.897C236.382 40.5096 236.948 40.1817 237.544 39.9432L237.186 39.3173C236.68 39.7048 236.113 40.0326 235.517 40.2711Z" fill="white"/>
<path d="M233.759 38.7509L234.385 39.1086C234.623 38.5124 234.951 37.9759 235.339 37.4394L234.713 37.0817C234.444 37.7076 234.146 38.2441 233.759 38.7509Z" fill="white"/>
<path d="M231.822 47.9315C234.637 47.9315 236.919 45.6495 236.919 42.8345C236.919 40.0195 234.637 37.7374 231.822 37.7374C229.007 37.7374 226.725 40.0195 226.725 42.8345C226.725 45.6495 229.007 47.9315 231.822 47.9315Z" fill="white"/>
<path d="M236.918 42.8345C236.918 43.4604 236.799 44.0268 236.62 44.5633C236.501 44.921 236.322 45.2489 236.143 45.5469C235.517 46.5306 234.563 47.3056 233.431 47.6633C232.924 47.8123 232.387 47.9017 231.851 47.9017C229.049 47.9017 226.754 45.6364 226.754 42.8047C226.754 42.2383 226.843 41.7316 227.022 41.2249C227.38 40.0922 228.155 39.1384 229.138 38.5124C229.437 38.3038 229.764 38.1547 230.122 38.0355C230.659 37.8268 231.255 37.7374 231.851 37.7374C234.623 37.7374 236.918 40.0326 236.918 42.8345Z" fill="white"/>
<path opacity="0.4" d="M233.669 46.0835C233.669 46.6498 233.58 47.1566 233.431 47.6633C232.924 47.8123 232.387 47.9017 231.851 47.9017C229.049 47.9017 226.754 45.6364 226.754 42.8047C226.754 42.2384 226.843 41.7316 227.022 41.2249C227.529 41.0759 228.065 40.9865 228.602 40.9865C231.374 40.9865 233.669 43.2816 233.669 46.0835Z" fill="#F5F9FF"/>
<path opacity="0.3" d="M236.918 42.8345C236.918 43.4604 236.799 44.0268 236.62 44.5633C236.501 44.921 236.322 45.2489 236.143 45.5469C235.368 46.0537 234.414 46.3219 233.431 46.3219C230.629 46.3219 228.333 44.0566 228.333 41.2249C228.333 40.2114 228.632 39.2874 229.108 38.5124C229.407 38.3038 229.734 38.1547 230.092 38.0355C230.629 37.8268 231.225 37.7374 231.821 37.7374C234.623 37.7374 236.918 40.0326 236.918 42.8345Z" fill="white"/>
<path opacity="0.3" d="M232.596 40.3009C232.81 40.3009 232.984 40.1274 232.984 39.9134C232.984 39.6994 232.81 39.5259 232.596 39.5259C232.382 39.5259 232.209 39.6994 232.209 39.9134C232.209 40.1274 232.382 40.3009 232.596 40.3009Z" fill="white"/>
<path d="M235.488 44.0863C235.718 44.0863 235.905 43.8995 235.905 43.669C235.905 43.4385 235.718 43.2517 235.488 43.2517C235.257 43.2517 235.07 43.4385 235.07 43.669C235.07 43.8995 235.257 44.0863 235.488 44.0863Z" fill="#F5F9FF"/>
<path d="M228.423 43.2517C228.834 43.2517 229.168 42.9181 229.168 42.5065C229.168 42.095 228.834 41.7614 228.423 41.7614C228.011 41.7614 227.678 42.095 227.678 42.5065C227.678 42.9181 228.011 43.2517 228.423 43.2517Z" fill="#F5F9FF"/>
<path d="M232.894 42.0893C233.223 42.0893 233.49 41.8224 233.49 41.4931C233.49 41.1639 233.223 40.897 232.894 40.897C232.565 40.897 232.298 41.1639 232.298 41.4931C232.298 41.8224 232.565 42.0893 232.894 42.0893Z" fill="#F5F9FF"/>
<path d="M233.967 46.143C234.132 46.143 234.265 46.0096 234.265 45.8449C234.265 45.6803 234.132 45.5469 233.967 45.5469C233.802 45.5469 233.669 45.6803 233.669 45.8449C233.669 46.0096 233.802 46.143 233.967 46.143Z" fill="#F5F9FF"/>
<path opacity="0.3" d="M229.854 40.8671C230.233 40.8671 230.54 40.5602 230.54 40.1815C230.54 39.8029 230.233 39.496 229.854 39.496C229.475 39.496 229.168 39.8029 229.168 40.1815C229.168 40.5602 229.475 40.8671 229.854 40.8671Z" fill="white"/>
<path d="M231.493 39.2278C231.642 39.2278 231.762 39.1077 231.762 38.9596C231.762 38.8114 231.642 38.6913 231.493 38.6913C231.345 38.6913 231.225 38.8114 231.225 38.9596C231.225 39.1077 231.345 39.2278 231.493 39.2278Z" fill="#F5F9FF"/>
<path d="M235.071 40.748C235.235 40.748 235.369 40.6145 235.369 40.4499C235.369 40.2853 235.235 40.1519 235.071 40.1519C234.906 40.1519 234.772 40.2853 234.772 40.4499C234.772 40.6145 234.906 40.748 235.071 40.748Z" fill="#F5F9FF"/>
<path opacity="0.3" d="M230.599 46.2922C230.978 46.2922 231.285 45.9852 231.285 45.6066C231.285 45.228 230.978 44.921 230.599 44.921C230.221 44.921 229.914 45.228 229.914 45.6066C229.914 45.9852 230.221 46.2922 230.599 46.2922Z" fill="white"/>
<path opacity="0.3" d="M235.845 41.821C236.026 41.821 236.173 41.6742 236.173 41.4932C236.173 41.3121 236.026 41.1653 235.845 41.1653C235.664 41.1653 235.517 41.3121 235.517 41.4932C235.517 41.6742 235.664 41.821 235.845 41.821Z" fill="white"/>
<path d="M231.791 36.7538C232.4 36.7538 232.894 36.5402 232.894 36.2768C232.894 36.0134 232.4 35.7999 231.791 35.7999C231.182 35.7999 230.688 36.0134 230.688 36.2768C230.688 36.5402 231.182 36.7538 231.791 36.7538Z" fill="#F5F9FF"/>
<path d="M231.792 36.5451C232.154 36.5451 232.447 36.425 232.447 36.2768C232.447 36.1287 232.154 36.0085 231.792 36.0085C231.429 36.0085 231.136 36.1287 231.136 36.2768C231.136 36.425 231.429 36.5451 231.792 36.5451Z" fill="#F5F9FF"/>
<path d="M231.791 49.7199C232.4 49.7199 232.894 49.5064 232.894 49.243C232.894 48.9796 232.4 48.7661 231.791 48.7661C231.182 48.7661 230.688 48.9796 230.688 49.243C230.688 49.5064 231.182 49.7199 231.791 49.7199Z" fill="#F5F9FF"/>
<path d="M231.791 49.5114C232.153 49.5114 232.447 49.3913 232.447 49.2431C232.447 49.095 232.153 48.9749 231.791 48.9749C231.429 48.9749 231.135 49.095 231.135 49.2431C231.135 49.3913 231.429 49.5114 231.791 49.5114Z" fill="#F5F9FF"/>
<path d="M236.015 37.7285C236.148 37.5013 235.83 37.0673 235.304 36.7593C234.779 36.4512 234.245 36.3856 234.112 36.6129C233.979 36.8401 234.297 37.274 234.822 37.5821C235.348 37.8902 235.881 37.9558 236.015 37.7285Z" fill="#F5F9FF"/>
<path d="M235.629 37.5019C235.704 37.3741 235.511 37.1219 235.199 36.9388C234.886 36.7556 234.572 36.7107 234.498 36.8385C234.423 36.9663 234.615 37.2184 234.928 37.4016C235.24 37.5848 235.554 37.6297 235.629 37.5019Z" fill="#F5F9FF"/>
<path d="M229.458 48.9102C229.591 48.683 229.273 48.2491 228.748 47.941C228.222 47.6329 227.688 47.5674 227.555 47.7946C227.422 48.0219 227.74 48.4558 228.265 48.7639C228.791 49.0719 229.325 49.1375 229.458 48.9102Z" fill="#F5F9FF"/>
<path d="M229.072 48.684C229.147 48.5562 228.955 48.3041 228.642 48.1209C228.33 47.9377 228.016 47.8928 227.941 48.0206C227.866 48.1485 228.058 48.4006 228.371 48.5838C228.683 48.7669 228.997 48.8118 229.072 48.684Z" fill="#F5F9FF"/>
<path d="M237.996 40.5704C238.226 40.4418 238.171 39.9067 237.873 39.3752C237.576 38.8437 237.148 38.5171 236.919 38.6458C236.689 38.7744 236.744 39.3095 237.041 39.841C237.339 40.3725 237.766 40.6991 237.996 40.5704Z" fill="#F5F9FF"/>
<path d="M237.777 40.1794C237.906 40.1071 237.868 39.7922 237.691 39.4762C237.514 39.1602 237.266 38.9627 237.136 39.035C237.007 39.1074 237.046 39.4222 237.223 39.7382C237.4 40.0542 237.648 40.2518 237.777 40.1794Z" fill="#F5F9FF"/>
<path d="M226.667 46.8998C226.897 46.7712 226.842 46.236 226.545 45.7045C226.247 45.173 225.82 44.8465 225.59 44.9751C225.36 45.1037 225.415 45.6389 225.713 46.1704C226.01 46.7018 226.437 47.0284 226.667 46.8998Z" fill="#F5F9FF"/>
<path d="M226.449 46.5088C226.578 46.4364 226.54 46.1216 226.363 45.8055C226.186 45.4895 225.938 45.292 225.808 45.3643C225.679 45.4367 225.718 45.7516 225.894 46.0676C226.071 46.3836 226.32 46.5812 226.449 46.5088Z" fill="#F5F9FF"/>
<path d="M238.739 42.9161C238.752 42.3071 238.548 41.8092 238.285 41.8039C238.021 41.7986 237.798 42.288 237.786 42.897C237.774 43.506 237.977 44.0039 238.24 44.0092C238.504 44.0145 238.727 43.5251 238.739 42.9161Z" fill="#F5F9FF"/>
<path d="M238.531 42.9119C238.538 42.5498 238.424 42.2538 238.276 42.2509C238.128 42.2479 238.002 42.539 237.995 42.9011C237.987 43.2632 238.102 43.5592 238.25 43.5621C238.398 43.5651 238.524 43.274 238.531 42.9119Z" fill="#F5F9FF"/>
<path d="M225.776 42.6375C225.788 42.0285 225.584 41.5306 225.321 41.5253C225.057 41.52 224.834 42.0094 224.822 42.6184C224.81 43.2274 225.013 43.7253 225.277 43.7306C225.54 43.7359 225.763 43.2465 225.776 42.6375Z" fill="#F5F9FF"/>
<path d="M225.567 42.6333C225.574 42.2712 225.46 41.9753 225.312 41.9723C225.164 41.9693 225.038 42.2605 225.031 42.6226C225.023 42.9847 225.138 43.2806 225.286 43.2836C225.434 43.2865 225.56 42.9954 225.567 42.6333Z" fill="#F5F9FF"/>
<path d="M237.838 46.2142C238.14 45.6856 238.2 45.1509 237.972 45.0201C237.743 44.8893 237.312 45.2117 237.01 45.7403C236.707 46.269 236.647 46.8036 236.876 46.9344C237.104 47.0653 237.535 46.7428 237.838 46.2142Z" fill="#F5F9FF"/>
<path d="M237.656 46.1098C237.836 45.7954 237.877 45.481 237.749 45.4074C237.62 45.3338 237.37 45.5289 237.19 45.8432C237.01 46.1575 236.968 46.472 237.097 46.5456C237.226 46.6192 237.476 46.4241 237.656 46.1098Z" fill="#F5F9FF"/>
<path d="M226.581 39.7954C226.883 39.2667 226.943 38.7321 226.715 38.6013C226.486 38.4704 226.056 38.7929 225.753 39.3215C225.45 39.8501 225.39 40.3848 225.619 40.5156C225.848 40.6465 226.278 40.324 226.581 39.7954Z" fill="#F5F9FF"/>
<path d="M226.4 39.6918C226.58 39.3775 226.621 39.063 226.493 38.9894C226.364 38.9158 226.114 39.1109 225.934 39.4252C225.754 39.7396 225.713 40.0541 225.841 40.1277C225.97 40.2013 226.22 40.0061 226.4 39.6918Z" fill="#F5F9FF"/>
<path d="M235.312 48.7614C235.837 48.4524 236.154 48.0179 236.021 47.7909C235.887 47.5639 235.353 47.6304 234.828 47.9394C234.303 48.2484 233.986 48.6829 234.12 48.9099C234.253 49.1369 234.787 49.0704 235.312 48.7614Z" fill="#F5F9FF"/>
<path d="M235.206 48.5817C235.519 48.398 235.711 48.1456 235.636 48.0179C235.56 47.8902 235.246 47.9356 234.934 48.1194C234.622 48.3031 234.43 48.5555 234.505 48.6832C234.58 48.8109 234.894 48.7655 235.206 48.5817Z" fill="#F5F9FF"/>
<path d="M228.745 37.5821C229.27 37.2731 229.587 36.8387 229.454 36.6117C229.32 36.3847 228.786 36.4511 228.261 36.7601C227.737 37.069 227.419 37.5035 227.553 37.7305C227.687 37.9575 228.22 37.891 228.745 37.5821Z" fill="#F5F9FF"/>
<path d="M228.64 37.3968C228.952 37.213 229.144 36.9606 229.069 36.8329C228.994 36.7052 228.68 36.7506 228.368 36.9344C228.056 37.1181 227.864 37.3706 227.939 37.4983C228.014 37.626 228.328 37.5805 228.64 37.3968Z" fill="#F5F9FF"/>
</g>
<g filter="url(#filter4_d)">
<path d="M292.645 127.746C292.645 127.746 310.221 131.316 348.255 141.475C384.23 150.948 396.725 154.792 396.725 154.792C396.725 154.792 398.51 192.82 382.307 261.602C369.126 317.066 320.107 347.818 292.645 365.254C265.184 347.818 216.164 317.066 202.983 261.602C186.643 192.82 188.565 154.792 188.565 154.792C188.565 154.792 201.198 150.948 237.035 141.475C275.207 131.316 292.645 127.746 292.645 127.746Z" fill="#F5F9FF"/>
</g>
<path d="M291.377 369L289.438 367.751C262.433 350.549 212.161 318.502 198.727 262.038C182.386 192.95 184.047 153.827 184.047 153.55L184.186 151.885L185.848 151.469C185.986 151.469 199.004 147.446 234.873 138.012C272.819 127.884 290.823 124.139 291.1 124.139L291.515 124L291.931 124.139C292.069 124.139 310.073 127.884 348.158 138.012C384.026 147.446 397.044 151.469 397.183 151.469L398.845 151.885L398.983 153.55C398.983 153.966 400.645 193.088 384.303 262.038C370.87 318.64 320.598 350.549 293.593 367.751L291.377 369ZM188.756 155.353C188.618 163.4 189.033 200.58 203.298 260.928C216.177 315.311 262.987 345.416 291.377 363.451C319.767 345.416 366.577 315.311 379.456 260.928C393.721 200.441 394.136 163.4 393.997 155.353C389.566 154.105 375.578 150.082 346.773 142.451C312.289 133.295 294.424 129.411 291.377 128.717C288.33 129.411 270.327 133.295 235.981 142.451C207.314 150.082 193.188 153.966 188.756 155.353Z" fill="#C0C0C0"/>
<path d="M335.074 216.625H303.169V184.688H280.339V216.625H248.434V239.335H280.339V271.272H303.169V239.335H335.074V216.625Z" fill="#94C9FF"/>
<defs>
<filter id="filter0_d" x="0" y="0" width="584.525" height="584.525" filterUnits="userSpaceOnUse" color-interpolation-filters="sRGB">
<feFlood flood-opacity="0" result="BackgroundImageFix"/>
<feColorMatrix in="SourceAlpha" type="matrix" values="0 0 0 0 0 0 0 0 0 0 0 0 0 0 0 0 0 0 127 0" result="hardAlpha"/>
<feOffset dy="45"/>
<feGaussianBlur stdDeviation="41.5"/>
<feComposite in2="hardAlpha" operator="out"/>
<feColorMatrix type="matrix" values="0 0 0 0 0.168627 0 0 0 0 0.168627 0 0 0 0 0.168627 0 0 0 0.3 0"/>
<feBlend mode="normal" in2="BackgroundImageFix" result="effect1_dropShadow"/>
<feBlend mode="normal" in="SourceGraphic" in2="effect1_dropShadow" result="shape"/>
</filter>
<filter id="filter1_d" x="49" y="122" width="82" height="82" filterUnits="userSpaceOnUse" color-interpolation-filters="sRGB">
<feFlood flood-opacity="0" result="BackgroundImageFix"/>
<feColorMatrix in="SourceAlpha" type="matrix" values="0 0 0 0 0 0 0 0 0 0 0 0 0 0 0 0 0 0 127 0" result="hardAlpha"/>
<feOffset dy="4"/>
<feGaussianBlur stdDeviation="2"/>
<feComposite in2="hardAlpha" operator="out"/>
<feColorMatrix type="matrix" values="0 0 0 0 0.580392 0 0 0 0 0.788235 0 0 0 0 1 0 0 0 0.25 0"/>
<feBlend mode="normal" in2="BackgroundImageFix" result="effect1_dropShadow"/>
<feBlend mode="normal" in="SourceGraphic" in2="effect1_dropShadow" result="shape"/>
</filter>
<filter id="filter2_d" x="102" y="30" width="48" height="48" filterUnits="userSpaceOnUse" color-interpolation-filters="sRGB">
<feFlood flood-opacity="0" result="BackgroundImageFix"/>
<feColorMatrix in="SourceAlpha" type="matrix" values="0 0 0 0 0 0 0 0 0 0 0 0 0 0 0 0 0 0 127 0" result="hardAlpha"/>
<feOffset dy="4"/>
<feGaussianBlur stdDeviation="2"/>
<feComposite in2="hardAlpha" operator="out"/>
<feColorMatrix type="matrix" values="0 0 0 0 0.580392 0 0 0 0 0.788235 0 0 0 0 1 0 0 0 0.25 0"/>
<feBlend mode="normal" in2="BackgroundImageFix" result="effect1_dropShadow"/>
<feBlend mode="normal" in="SourceGraphic" in2="effect1_dropShadow" result="shape"/>
</filter>
<filter id="filter3_d" x="216" y="31" width="32" height="32" filterUnits="userSpaceOnUse" color-interpolation-filters="sRGB">
<feFlood flood-opacity="0" result="BackgroundImageFix"/>
<feColorMatrix in="SourceAlpha" type="matrix" values="0 0 0 0 0 0 0 0 0 0 0 0 0 0 0 0 0 0 127 0" result="hardAlpha"/>
<feOffset dy="4"/>
<feGaussianBlur stdDeviation="2"/>
<feComposite in2="hardAlpha" operator="out"/>
<feColorMatrix type="matrix" values="0 0 0 0 0.580392 0 0 0 0 0.788235 0 0 0 0 1 0 0 0 0.25 0"/>
<feBlend mode="normal" in2="BackgroundImageFix" result="effect1_dropShadow"/>
<feBlend mode="normal" in="SourceGraphic" in2="effect1_dropShadow" result="shape"/>
</filter>
<filter id="filter4_d" x="172.496" y="115.746" width="240.287" height="269.508" filterUnits="userSpaceOnUse" color-interpolation-filters="sRGB">
<feFlood flood-opacity="0" result="BackgroundImageFix"/>
<feColorMatrix in="SourceAlpha" type="matrix" values="0 0 0 0 0 0 0 0 0 0 0 0 0 0 0 0 0 0 127 0" result="hardAlpha"/>
<feOffset dy="4"/>
<feGaussianBlur stdDeviation="8"/>
<feComposite in2="hardAlpha" operator="out"/>
<feColorMatrix type="matrix" values="0 0 0 0 0.113725 0 0 0 0 0.141176 0 0 0 0 0.305882 0 0 0 1 0"/>
<feBlend mode="normal" in2="BackgroundImageFix" result="effect1_dropShadow"/>
<feBlend mode="normal" in="SourceGraphic" in2="effect1_dropShadow" result="shape"/>
</filter>
</defs>
</svg>
